<svg width="54" height="52" viewBox="0 0 54 52" fill="none" xmlns="http://www.w3.org/2000/svg" xmlns:xlink="http://www.w3.org/1999/xlink">
<line x1="38" y1="0" x2="38" y2="8.33" stroke="#1A7FBD" stroke-width="1.5" stroke-miterlimit="3.999327" stroke-linecap="round" stroke-linejoin="round"/>
<path d="M10.33,5.67L43.67,5.67L43.67,2.67L10.33,2.67L10.33,5.67ZM43.67,5.67C47.442,5.67 50.5,8.728 50.5,12.5L53.5,12.5C53.5,7.071 49.099,2.67 43.67,2.67L43.67,5.67ZM50.5,12.5L50.5,41.67L53.5,41.67L53.5,12.5L50.5,12.5ZM50.5,41.67C50.5,45.442 47.442,48.5 43.67,48.5L43.67,51.5C49.099,51.5 53.5,47.099 53.5,41.67L50.5,41.67ZM43.67,48.5L10.33,48.5L10.33,51.5L43.67,51.5L43.67,48.5ZM10.33,48.5C6.558,48.5 3.5,45.442 3.5,41.67L0.5,41.67C0.5,47.099 4.901,51.5 10.33,51.5L10.33,48.5ZM3.5,41.67L3.5,12.5L0.5,12.5L0.5,41.67L3.5,41.67ZM3.5,12.5C3.5,8.728 6.558,5.67 10.33,5.67L10.33,2.67C4.901,2.67 0.5,7.071 0.5,12.5L3.5,12.5Z" fill="#1A7FBD"/>
</svg>
