<svg width="348" height="348" viewBox="0 0 348 348" fill="none" xmlns="http://www.w3.org/2000/svg" xmlns:xlink="http://www.w3.org/1999/xlink">
<path d="M173.54,0.686C271.86,0.686 347.56,76.006 347.54,173.866C347.52,270.145 270.76,346.425 173.92,346.405C77.64,346.405 -1.26,269.105 -0.02,173.546C1.4,64.446 91.22,-2.934 173.56,0.686L173.54,0.686ZM340.84,173.366C342.14,90.326 278.56,6.806 174.26,6.306C73.06,5.806 6.22,87.066 6.74,174.326C7.26,263.065 75.62,340.085 173.22,340.665C275.94,341.265 342.66,258.305 340.84,173.366Z" fill="#000000"/>
<path d="M305.08,173.826C305.04,245.806 245.98,305.546 174.7,305.726C102.76,305.906 42.3,245.706 42.18,173.786C42.06,101.646 102.7,40.766 174.1,41.326C247.32,41.906 305.12,100.386 305.08,173.826L305.08,173.826ZM174.5,47.926C107.16,47.526 49.66,104.006 49.16,171.046C48.62,241.486 104.46,298.706 174.04,299.026C241.56,299.346 300.3,242.926 299.68,174.406C299,100.426 243.58,50.286 174.52,47.926L174.5,47.926Z" fill="#000000"/>
<path d="M263.32,169.926C266.66,217.346 228,259.386 177.56,263.146C132.28,266.526 88.32,227.726 84.8,181.286C80.94,130.106 118.46,87.366 170.5,83.706C217.74,80.366 259.74,119.406 263.3,169.926L263.32,169.926ZM91.56,172.766C91.44,219.166 127.76,256.186 173.78,256.546C218.84,256.906 257.58,218.486 257.54,173.486C257.5,128.146 219.58,90.586 173.82,90.526C128.74,90.466 91.68,127.506 91.56,172.766Z" fill="#000000"/>
</svg>
