<svg width="48" height="52" viewBox="0 0 48 52" fill="none" xmlns="http://www.w3.org/2000/svg" xmlns:xlink="http://www.w3.org/1999/xlink">
<line x1="30.947" y1="24.176" x2="36.217" y2="24.176" stroke="#1A7FBD" stroke-width="1.5" stroke-miterlimit="3.999327" stroke-linecap="round" stroke-linejoin="round"/>
<path d="M34.572,16.247C35.174,16.816 36.123,16.788 36.692,16.186C37.261,15.584 37.234,14.634 36.631,14.066L34.572,16.247ZM15.741,36.207L14.711,37.298L14.711,37.298L15.741,36.207ZM36.631,37.298C37.233,36.729 37.261,35.78 36.692,35.177C36.124,34.575 35.174,34.547 34.572,35.116L36.631,37.298ZM36.631,14.066C30.215,8.006 20.112,8.307 14.055,14.721L16.236,16.781C21.158,11.569 29.362,11.327 34.572,16.247L36.631,14.066ZM14.055,14.721C7.995,21.138 8.296,31.24 14.711,37.298L16.77,35.116C11.558,30.194 11.317,21.991 16.236,16.781L14.055,14.721ZM14.711,37.298C20.862,43.103 30.48,43.103 36.631,37.298L34.572,35.116C29.577,39.831 21.765,39.831 16.77,35.116L14.711,37.298Z" fill="#1A7FBD"/>
<path d="M44.123,13.359C44.583,14.048 45.514,14.234 46.203,13.773C46.892,13.313 47.078,12.382 46.618,11.693L44.123,13.359ZM38.837,45.37L39.67,46.618L39.671,46.617L38.837,45.37ZM46.617,39.671C47.078,38.983 46.893,38.051 46.205,37.59C45.516,37.13 44.585,37.314 44.124,38.003L46.617,39.671ZM46.618,11.693C38.893,0.129 23.256,-2.978 11.693,4.745L13.359,7.24C23.546,0.436 37.319,3.174 44.123,13.359L46.618,11.693ZM11.693,4.745C0.129,12.47 -2.978,28.107 4.745,39.67L7.24,38.004C0.436,27.817 3.174,14.043 13.359,7.24L11.693,4.745ZM4.745,39.67C12.47,51.234 28.107,54.341 39.67,46.618L38.004,44.123C27.817,50.927 14.043,48.189 7.24,38.004L4.745,39.67ZM39.671,46.617C42.423,44.775 44.775,42.423 46.617,39.671L44.124,38.003C42.5,40.428 40.428,42.5 38.003,44.124L39.671,46.617Z" fill="#1A7FBD"/>
</svg>
