<svg width="54" height="54" viewBox="0 0 54 54" fill="none" xmlns="http://www.w3.org/2000/svg" xmlns:xlink="http://www.w3.org/1999/xlink">
<line x1="4.78" y1="44.94" x2="15.89" y2="44.94" stroke="#1A7FBD" stroke-width="1.5" stroke-miterlimit="3.999327" stroke-linecap="round" stroke-linejoin="round"/>
<path d="M27,50.5C26.172,50.5 25.5,51.172 25.5,52C25.5,52.828 26.172,53.5 27,53.5L27,50.5ZM0.5,27C0.5,27.828 1.172,28.5 2,28.5C2.828,28.5 3.5,27.828 3.5,27L0.5,27ZM27,53.5C41.635,53.5 53.5,41.635 53.5,27L50.5,27C50.5,39.979 39.979,50.5 27,50.5L27,53.5ZM53.5,27C53.5,12.365 41.635,0.5 27,0.5L27,3.5C39.979,3.5 50.5,14.021 50.5,27L53.5,27ZM27,0.5C12.365,0.5 0.5,12.365 0.5,27L3.5,27C3.5,14.021 14.021,3.5 27,3.5L27,0.5Z" fill="#1A7FBD"/>
</svg>
