<svg width="350" height="72" viewBox="0 0 350 72" fill="none" xmlns="http://www.w3.org/2000/svg" xmlns:xlink="http://www.w3.org/1999/xlink">
<path d="M0.014,70.789C0.014,59.906 -0.005,49.017 0.007,38.134C0.02,25.744 8.42,15.944 20.747,14.038C27.81,12.948 34.651,13.607 40.897,17.369C47.479,21.335 51.204,27.207 52.224,34.79C52.274,35.157 52.293,35.531 52.344,35.898C52.363,36.012 52.376,36.12 52.407,36.399L61.276,36.399C61.561,35.024 61.833,33.586 62.163,32.161C64.589,21.721 73.204,14.19 83.909,13.657C91.346,13.29 98.808,13.461 106.258,13.423C112.839,13.391 119.427,13.423 126.009,13.423L128.182,13.423L128.182,0L140.598,0L140.598,13.543L222.751,13.543L222.751,24.667L140.737,24.667C140.699,25.497 140.648,26.105 140.648,26.707C140.648,35.239 140.636,43.779 140.648,52.311C140.655,57.74 142.599,59.634 148.098,59.64C151.696,59.64 155.288,59.64 159.158,59.64L159.158,70.783L144.259,70.783C143.163,70.783 142.086,70.612 141.01,70.397L140.997,70.397C135.549,69.326 131.451,66.444 129.512,61.192C128.676,58.925 128.29,56.378 128.252,53.952C128.106,44.988 128.195,36.019 128.195,27.049C128.195,26.333 128.195,25.624 128.195,24.768L125.882,24.768C116.818,24.768 107.746,24.768 98.682,24.768C94.52,24.768 90.358,24.692 86.196,24.8C79.266,24.977 73.742,29.855 72.982,36.576L119.225,36.576L119.225,47.725L72.463,47.725C73.495,49.701 74.122,51.399 75.161,52.786C78.05,56.625 82.066,58.24 86.836,58.234C97.022,58.215 107.208,58.234 117.394,58.234C118.11,58.234 118.819,58.234 119.656,58.234L119.656,70.789L87.729,70.789C86.329,70.789 84.049,70.637 82.661,70.454L82.649,70.454C72.241,69.098 64.411,61.927 62.169,51.678C61.884,50.373 61.624,49.062 61.371,47.833L52.566,47.833L52.566,70.789L40.264,70.789C40.245,70.175 40.213,69.554 40.213,68.94C40.213,58.804 40.283,48.662 40.181,38.527C40.099,30.368 34.151,24.483 26.214,24.477C18.276,24.477 12.341,30.381 12.29,38.527C12.227,49.283 12.29,60.039 12.309,70.789L0.014,70.789Z" fill="#FFFFFF"/>
<path d="M231.466,70.789C231.485,60.153 231.466,49.518 231.536,38.882C231.593,30.077 234.748,22.653 242.489,18.009C252.326,12.105 262.62,12.029 272.565,17.705C280.243,22.089 283.778,29.253 283.911,37.957C284.063,48.219 283.949,58.487 283.955,68.756C283.955,69.434 283.999,70.111 284.018,70.789L271.716,70.789C271.704,69.921 271.685,69.06 271.678,68.192C271.678,58.297 271.735,48.403 271.647,38.514C271.583,31.952 267.726,26.878 261.796,25.193C255.753,23.476 249.469,25.712 246.061,30.786C244.332,33.358 243.831,36.24 243.825,39.262C243.812,49.771 243.781,60.286 243.762,70.796L231.46,70.796L231.466,70.789Z" fill="#FFFFFF"/>
<path d="M194.333,70.789C192.997,70.789 191.66,70.637 190.355,70.352C189.455,70.156 188.556,69.953 187.669,69.694C176.539,66.45 168.83,58.222 168.748,46.072C168.729,42.993 168.748,39.915 168.748,36.716L181.664,36.716C181.664,39.186 181.563,41.581 181.696,43.969C181.81,46.053 181.905,48.207 182.5,50.183C184.394,56.461 190.672,60.318 197.437,59.609C204.335,58.887 209.619,53.813 210.176,47.174C210.41,44.406 210.284,41.612 210.322,38.831C210.328,38.166 210.322,37.501 210.322,36.595L222.902,36.595C222.871,43.405 223.694,50.113 220.603,56.391C216.593,64.537 209.847,68.914 201.022,70.409L201.003,70.409C199.787,70.618 198.558,70.783 197.323,70.783L194.333,70.783L194.333,70.789Z" fill="#FFFFFF"/>
<path d="M321.374,70.479C304.949,70.485 292.793,58.874 292.634,42.201C292.489,26.662 303.606,13.721 321.495,13.651C337.977,13.588 350.019,25.826 350,42.41C349.981,58.418 337.673,70.492 321.374,70.479Z" fill="#FFFFFF"/>
</svg>
