<svg width="350" height="72" viewBox="0 0 350 72" fill="none" xmlns="http://www.w3.org/2000/svg" xmlns:xlink="http://www.w3.org/1999/xlink">
<path d="M0.013,70.789C0.013,59.906 -0.006,49.017 0.007,38.134C0.019,25.744 8.419,15.944 20.746,14.037C27.809,12.948 34.651,13.607 40.897,17.37C47.478,21.335 51.203,27.207 52.223,34.79C52.274,35.157 52.293,35.531 52.343,35.898C52.362,36.012 52.375,36.12 52.407,36.399L61.275,36.399C61.56,35.024 61.833,33.586 62.162,32.161C64.588,21.721 73.203,14.19 83.909,13.657C91.346,13.29 98.808,13.461 106.257,13.423C112.839,13.391 119.427,13.423 126.009,13.423L128.181,13.423L128.181,0L140.597,0L140.597,13.543L222.75,13.543L222.75,24.667L140.737,24.667C140.698,25.497 140.648,26.105 140.648,26.707C140.648,35.239 140.635,43.779 140.648,52.311C140.654,57.74 142.599,59.634 148.097,59.64C151.695,59.64 155.287,59.64 159.158,59.64L159.158,70.783L144.259,70.783C143.163,70.783 142.086,70.612 141.009,70.397L140.996,70.397C135.548,69.326 131.45,66.444 129.512,61.192C128.675,58.925 128.289,56.378 128.251,53.952C128.105,44.988 128.194,36.019 128.194,27.049C128.194,26.333 128.194,25.624 128.194,24.768L125.882,24.768C116.817,24.768 107.746,24.768 98.681,24.768C94.519,24.768 90.357,24.692 86.195,24.8C79.265,24.977 73.742,29.855 72.981,36.576L119.224,36.576L119.224,47.725L72.462,47.725C73.495,49.701 74.122,51.399 75.161,52.786C78.049,56.625 82.065,58.24 86.835,58.234C97.021,58.215 107.207,58.234 117.393,58.234C118.109,58.234 118.819,58.234 119.655,58.234L119.655,70.789L87.728,70.789C86.329,70.789 84.048,70.637 82.661,70.454L82.648,70.454C72.24,69.098 64.411,61.927 62.168,51.678C61.883,50.373 61.624,49.062 61.37,47.833L52.565,47.833L52.565,70.789L40.263,70.789C40.244,70.175 40.213,69.554 40.213,68.94C40.213,58.804 40.282,48.662 40.181,38.527C40.099,30.368 34.15,24.483 26.213,24.477C18.276,24.477 12.34,30.381 12.29,38.527C12.226,49.283 12.29,60.039 12.309,70.789L0.013,70.789Z" fill="#FFFFFF"/>
<path d="M231.467,70.789C231.486,60.153 231.467,49.518 231.536,38.882C231.593,30.077 234.748,22.653 242.489,18.009C252.327,12.105 262.62,12.029 272.566,17.705C280.243,22.089 283.778,29.253 283.911,37.957C284.063,48.219 283.949,58.487 283.955,68.756C283.955,69.434 284,70.111 284.019,70.789L271.717,70.789C271.704,69.921 271.685,69.06 271.679,68.192C271.679,58.297 271.736,48.403 271.647,38.514C271.584,31.952 267.726,26.878 261.797,25.193C255.754,23.476 249.47,25.712 246.062,30.786C244.332,33.358 243.832,36.24 243.826,39.262C243.813,49.771 243.781,60.286 243.762,70.796L231.46,70.796L231.467,70.789Z" fill="#FFFFFF"/>
<path d="M194.333,70.789C192.997,70.789 191.66,70.637 190.355,70.352C189.455,70.156 188.556,69.953 187.669,69.693C176.539,66.45 168.83,58.221 168.748,46.072C168.729,42.993 168.748,39.914 168.748,36.715L181.664,36.715C181.664,39.186 181.563,41.58 181.696,43.969C181.81,46.053 181.905,48.206 182.5,50.183C184.394,56.46 190.672,60.318 197.437,59.609C204.335,58.887 209.619,53.813 210.176,47.174C210.41,44.406 210.284,41.612 210.322,38.831C210.328,38.166 210.322,37.501 210.322,36.595L222.902,36.595C222.871,43.405 223.694,50.113 220.603,56.391C216.593,64.537 209.847,68.914 201.022,70.409L201.003,70.409C199.787,70.618 198.558,70.783 197.323,70.783L194.333,70.783L194.333,70.789Z" fill="#FFFFFF"/>
<path d="M321.374,70.479C304.948,70.485 292.792,58.874 292.634,42.201C292.488,26.662 303.605,13.721 321.494,13.651C337.977,13.588 350.019,25.826 350,42.41C349.981,58.418 337.673,70.492 321.374,70.479Z" fill="#FFFFFF"/>
</svg>
