<svg width="374" height="76" viewBox="0 0 374 76" fill="none" xmlns="http://www.w3.org/2000/svg" xmlns:xlink="http://www.w3.org/1999/xlink">
<path d="M0.014,75.643C0.014,64.014 -0.006,52.378 0.008,40.749C0.021,27.509 8.997,17.038 22.169,15C29.717,13.836 37.027,14.54 43.701,18.561C50.734,22.798 54.715,29.073 55.804,37.175C55.859,37.568 55.879,37.967 55.933,38.36C55.953,38.482 55.967,38.597 56.001,38.895L65.477,38.895C65.782,37.426 66.073,35.889 66.425,34.366C69.017,23.211 78.223,15.163 89.663,14.594C97.61,14.201 105.584,14.384 113.544,14.343C120.577,14.31 127.617,14.343 134.65,14.343L136.971,14.343L136.971,0L150.239,0L150.239,14.472L238.025,14.472L238.025,26.358L150.387,26.358C150.347,27.245 150.293,27.895 150.293,28.538C150.293,37.656 150.279,46.78 150.293,55.898C150.299,61.699 152.378,63.723 158.253,63.73C162.098,63.73 165.936,63.73 170.072,63.73L170.072,75.637L154.151,75.637C152.98,75.637 151.829,75.454 150.679,75.224L150.665,75.224C144.844,74.08 140.464,71 138.393,65.388C137.499,62.965 137.086,60.244 137.046,57.651C136.89,48.073 136.985,38.488 136.985,28.904C136.985,28.139 136.985,27.381 136.985,26.467L134.514,26.467C124.828,26.467 115.135,26.467 105.448,26.467C101.001,26.467 96.554,26.386 92.106,26.501C84.701,26.69 78.799,31.902 77.986,39.084L127.4,39.084L127.4,50.998L77.431,50.998C78.535,53.109 79.205,54.924 80.315,56.406C83.402,60.508 87.693,62.234 92.79,62.227C103.675,62.207 114.559,62.227 125.444,62.227C126.209,62.227 126.967,62.227 127.86,62.227L127.86,75.643L93.745,75.643C92.249,75.643 89.812,75.481 88.329,75.285L88.316,75.285C77.194,73.836 68.828,66.174 66.432,55.221C66.127,53.827 65.85,52.426 65.579,51.113L56.17,51.113L56.17,75.643L43.025,75.643C43.004,74.987 42.97,74.323 42.97,73.667C42.97,62.836 43.045,51.999 42.937,41.169C42.849,32.451 36.492,26.162 28.011,26.155C19.529,26.155 13.187,32.464 13.133,41.169C13.065,52.663 13.133,64.156 13.153,75.643L0.014,75.643Z" fill="#FFFFFF"/>
<path d="M247.339,75.643C247.359,64.278 247.339,52.913 247.413,41.548C247.474,32.139 250.845,24.206 259.117,19.244C269.629,12.936 280.629,12.854 291.256,18.919C299.46,23.604 303.237,31.259 303.379,40.56C303.542,51.526 303.42,62.498 303.427,73.471C303.427,74.195 303.474,74.919 303.494,75.643L290.349,75.643C290.335,74.716 290.315,73.796 290.308,72.868C290.308,62.295 290.369,51.722 290.274,41.155C290.207,34.143 286.084,28.721 279.749,26.92C273.291,25.086 266.576,27.475 262.935,32.897C261.087,35.645 260.552,38.725 260.545,41.954C260.532,53.184 260.498,64.42 260.477,75.65L247.332,75.65L247.339,75.643Z" fill="#FFFFFF"/>
<path d="M207.659,75.643C206.231,75.643 204.802,75.481 203.408,75.176C202.447,74.966 201.486,74.75 200.538,74.472C188.645,71.007 180.407,62.214 180.319,49.231C180.299,45.941 180.319,42.651 180.319,39.233L194.121,39.233C194.121,41.873 194.013,44.432 194.155,46.984C194.277,49.211 194.378,51.512 195.015,53.624C197.038,60.332 203.746,64.454 210.976,63.696C218.347,62.924 223.993,57.503 224.588,50.409C224.839,47.451 224.703,44.466 224.744,41.494C224.751,40.783 224.744,40.072 224.744,39.104L238.187,39.104C238.153,46.381 239.033,53.55 235.73,60.257C231.445,68.962 224.236,73.64 214.807,75.237L214.787,75.237C213.487,75.461 212.174,75.637 210.854,75.637L207.659,75.637L207.659,75.643Z" fill="#FFFFFF"/>
<path d="M343.411,75.312C325.859,75.319 312.869,62.911 312.7,45.095C312.545,28.491 324.424,14.662 343.54,14.587C361.153,14.519 374.021,27.597 374,45.318C373.98,62.424 360.828,75.325 343.411,75.312Z" fill="#FFFFFF"/>
</svg>
