<svg width="372" height="70" viewBox="0 0 372 70" fill="none" xmlns="http://www.w3.org/2000/svg" xmlns:xlink="http://www.w3.org/1999/xlink">
<path d="M0.015,69.057C0.015,58.441 -0.006,47.818 0.008,37.201C0.021,25.114 8.949,15.554 22.051,13.694C29.558,12.631 36.829,13.274 43.468,16.945C50.463,20.813 54.422,26.542 55.506,33.939C55.56,34.297 55.58,34.662 55.634,35.02C55.654,35.131 55.668,35.236 55.701,35.508L65.127,35.508C65.43,34.167 65.72,32.764 66.07,31.374C68.649,21.19 77.805,13.842 89.184,13.323C97.088,12.965 105.019,13.132 112.937,13.095C119.932,13.064 126.934,13.095 133.93,13.095L136.239,13.095L136.239,0L149.435,0L149.435,13.212L236.753,13.212L236.753,24.063L149.583,24.063C149.543,24.873 149.489,25.466 149.489,26.053C149.489,34.377 149.476,42.707 149.489,51.031C149.496,56.327 151.563,58.175 157.407,58.181C161.231,58.181 165.049,58.181 169.162,58.181L169.162,69.051L153.327,69.051C152.162,69.051 151.018,68.884 149.873,68.674L149.859,68.674C144.069,67.63 139.713,64.818 137.653,59.695C136.764,57.483 136.354,54.999 136.313,52.632C136.158,43.888 136.253,35.137 136.253,26.387C136.253,25.689 136.253,24.997 136.253,24.162L133.795,24.162C124.16,24.162 114.519,24.162 104.884,24.162C100.461,24.162 96.038,24.088 91.614,24.193C84.248,24.366 78.377,29.125 77.57,35.681L126.719,35.681L126.719,46.557L77.017,46.557C78.115,48.485 78.781,50.142 79.886,51.495C82.956,55.24 87.224,56.816 92.294,56.809C103.12,56.791 113.947,56.809 124.773,56.809C125.534,56.809 126.288,56.809 127.177,56.809L127.177,69.057L93.243,69.057C91.756,69.057 89.332,68.909 87.857,68.73L87.844,68.73C76.782,67.407 68.46,60.412 66.077,50.413C65.774,49.14 65.498,47.861 65.228,46.662L55.87,46.662L55.87,69.057L42.795,69.057C42.775,68.458 42.741,67.852 42.741,67.253C42.741,57.366 42.815,47.472 42.707,37.585C42.62,29.625 36.298,23.884 27.861,23.878C19.425,23.878 13.117,29.638 13.063,37.585C12.995,48.078 13.063,58.571 13.083,69.057L0.015,69.057Z" fill="#FFFFFF"/>
<path d="M246.016,69.057C246.036,58.682 246.016,48.306 246.09,37.931C246.151,29.341 249.504,22.098 257.731,17.569C268.187,11.809 279.128,11.735 289.698,17.272C297.858,21.548 301.615,28.538 301.757,37.028C301.918,47.039 301.797,57.057 301.804,67.074C301.804,67.735 301.851,68.396 301.871,69.057L288.796,69.057C288.783,68.211 288.762,67.37 288.756,66.524C288.756,56.871 288.816,47.219 288.722,37.572C288.655,31.17 284.554,26.22 278.253,24.576C271.829,22.902 265.151,25.083 261.528,30.033C259.69,32.542 259.158,35.354 259.152,38.301C259.138,48.553 259.105,58.812 259.084,69.064L246.009,69.064L246.016,69.057Z" fill="#FFFFFF"/>
<path d="M206.548,69.057C205.128,69.057 203.707,68.909 202.32,68.631C201.364,68.439 200.408,68.242 199.466,67.988C187.636,64.824 179.442,56.797 179.355,44.944C179.334,41.941 179.355,38.938 179.355,35.817L193.083,35.817C193.083,38.227 192.975,40.563 193.116,42.893C193.238,44.926 193.339,47.027 193.972,48.955C195.985,55.079 202.657,58.843 209.848,58.15C217.18,57.446 222.795,52.496 223.387,46.02C223.636,43.319 223.502,40.594 223.542,37.881C223.549,37.232 223.542,36.583 223.542,35.7L236.913,35.7C236.88,42.343 237.755,48.887 234.469,55.011C230.208,62.958 223.037,67.228 213.658,68.687L213.638,68.687C212.345,68.891 211.039,69.051 209.726,69.051L206.548,69.051L206.548,69.057Z" fill="#FFFFFF"/>
<path d="M341.575,68.755C324.116,68.761 311.196,57.433 311.028,41.169C310.873,26.01 322.689,13.385 341.702,13.317C359.221,13.255 372.02,25.194 372,41.373C371.98,56.988 358.898,68.767 341.575,68.755Z" fill="#FFFFFF"/>
</svg>
