<svg width="346" height="68" viewBox="0 0 346 68" fill="none" xmlns="http://www.w3.org/2000/svg" xmlns:xlink="http://www.w3.org/1999/xlink">
<path d="M0.893,67.037C0.893,56.673 0.875,46.302 0.887,35.937C0.9,24.137 9.171,14.804 21.31,12.988C28.265,11.95 35.002,12.578 41.152,16.161C47.633,19.938 51.301,25.531 52.306,32.752C52.355,33.102 52.374,33.458 52.424,33.808C52.443,33.916 52.455,34.019 52.486,34.284L61.219,34.284C61.5,32.975 61.768,31.606 62.093,30.248C64.482,20.306 72.965,13.133 83.507,12.626C90.83,12.276 98.179,12.439 105.514,12.403C111.995,12.373 118.483,12.403 124.964,12.403L127.103,12.403L127.103,-0.381L139.33,-0.381L139.33,12.518L220.229,12.518L220.229,23.111L139.467,23.111C139.429,23.902 139.379,24.481 139.379,25.054C139.379,33.18 139.367,41.313 139.379,49.439C139.386,54.609 141.301,56.413 146.715,56.419C150.258,56.419 153.795,56.419 157.606,56.419L157.606,67.031L142.935,67.031C141.856,67.031 140.795,66.868 139.735,66.663L139.723,66.663C134.358,65.644 130.322,62.899 128.413,57.897C127.59,55.738 127.209,53.312 127.172,51.002C127.029,42.465 127.116,33.922 127.116,25.38C127.116,24.698 127.116,24.022 127.116,23.208L124.839,23.208C115.913,23.208 106.98,23.208 98.054,23.208C93.956,23.208 89.857,23.135 85.759,23.238C78.935,23.407 73.495,28.052 72.747,34.453L118.283,34.453L118.283,45.071L72.235,45.071C73.252,46.954 73.87,48.57 74.893,49.892C77.737,53.548 81.692,55.086 86.389,55.08C96.42,55.062 106.45,55.08 116.48,55.08C117.185,55.08 117.884,55.08 118.707,55.08L118.707,67.037L87.269,67.037C85.89,67.037 83.644,66.893 82.278,66.718L82.266,66.718C72.017,65.427 64.307,58.597 62.099,48.836C61.818,47.593 61.562,46.344 61.313,45.174L52.642,45.174L52.642,67.037L40.529,67.037C40.51,66.452 40.479,65.861 40.479,65.276C40.479,55.623 40.547,45.964 40.447,36.311C40.366,28.541 34.509,22.936 26.693,22.93C18.877,22.93 13.032,28.553 12.982,36.311C12.92,46.555 12.982,56.799 13.001,67.037L0.893,67.037Z" fill="#FFFFFF"/>
<path d="M228.811,67.037C228.83,56.908 228.811,46.779 228.88,36.649C228.936,28.264 232.042,21.193 239.665,16.771C249.352,11.148 259.488,11.076 269.282,16.481C276.842,20.656 280.323,27.479 280.454,35.769C280.604,45.542 280.491,55.321 280.498,65.101C280.498,65.746 280.541,66.392 280.56,67.037L268.446,67.037C268.434,66.211 268.415,65.39 268.409,64.564C268.409,55.14 268.465,45.717 268.377,36.299C268.315,30.049 264.516,25.217 258.678,23.612C252.727,21.977 246.539,24.107 243.183,28.939C241.48,31.389 240.987,34.134 240.981,37.011C240.968,47.02 240.937,57.035 240.919,67.043L228.805,67.043L228.811,67.037Z" fill="#FFFFFF"/>
<path d="M192.245,67.037C190.928,67.037 189.612,66.893 188.327,66.621C187.441,66.434 186.556,66.241 185.682,65.994C174.722,62.905 167.131,55.068 167.05,43.497C167.031,40.565 167.05,37.633 167.05,34.586L179.769,34.586C179.769,36.939 179.669,39.219 179.8,41.494C179.912,43.479 180.006,45.53 180.592,47.412C182.457,53.391 188.639,57.065 195.301,56.389C202.094,55.701 207.296,50.869 207.845,44.547C208.076,41.91 207.951,39.25 207.989,36.601C207.995,35.968 207.989,35.334 207.989,34.471L220.377,34.471C220.346,40.957 221.157,47.346 218.113,53.325C214.164,61.083 207.521,65.252 198.832,66.675L198.813,66.675C197.615,66.874 196.405,67.031 195.189,67.031L192.245,67.031L192.245,67.037Z" fill="#FFFFFF"/>
<path d="M317.344,66.742C301.17,66.748 289.199,55.689 289.043,39.811C288.9,25.012 299.847,12.686 317.463,12.62C333.694,12.56 345.552,24.215 345.533,40.01C345.515,55.255 333.394,66.754 317.344,66.742Z" fill="#FFFFFF"/>
</svg>
