<svg width="614" height="126" viewBox="0 0 614 126" fill="none" xmlns="http://www.w3.org/2000/svg" xmlns:xlink="http://www.w3.org/1999/xlink">
<path d="M0.024,124C0.024,104.937 -0.01,85.862 0.013,66.799C0.035,45.095 14.748,27.929 36.341,24.589C48.714,22.681 60.698,23.835 71.638,30.426C83.167,37.372 89.692,47.658 91.478,60.94C91.567,61.584 91.6,62.239 91.689,62.882C91.722,63.082 91.745,63.271 91.8,63.759L107.335,63.759C107.834,61.351 108.311,58.832 108.888,56.335C113.138,38.049 128.229,24.855 146.982,23.923C160.009,23.28 173.08,23.579 186.129,23.513C197.658,23.457 209.199,23.513 220.727,23.513L224.533,23.513L224.533,0L246.281,0L246.281,23.724L390.189,23.724L390.189,43.209L246.525,43.209C246.459,44.662 246.371,45.727 246.371,46.782C246.371,61.728 246.349,76.686 246.371,91.632C246.381,101.142 249.789,104.46 259.419,104.471C265.723,104.471 272.013,104.471 278.793,104.471L278.793,123.989L252.695,123.989C250.775,123.989 248.889,123.689 247.003,123.312L246.981,123.312C237.437,121.437 230.259,116.388 226.863,107.189C225.399,103.217 224.721,98.756 224.655,94.506C224.399,78.805 224.555,63.093 224.555,47.381C224.555,46.127 224.555,44.884 224.555,43.386L220.505,43.386C204.627,43.386 188.737,43.386 172.858,43.386C165.568,43.386 158.277,43.253 150.987,43.442C138.848,43.752 129.172,52.296 127.841,64.069L208.843,64.069L208.843,83.599L126.931,83.599C128.739,87.061 129.838,90.035 131.658,92.465C136.718,99.189 143.753,102.018 152.108,102.007C169.951,101.974 187.793,102.007 205.637,102.007C206.891,102.007 208.133,102.007 209.597,102.007L209.597,124L153.673,124C151.22,124 147.226,123.734 144.796,123.412L144.773,123.412C126.542,121.037 112.827,108.476 108.899,90.523C108.4,88.237 107.945,85.94 107.501,83.787L92.078,83.787L92.078,124L70.529,124C70.495,122.924 70.44,121.836 70.44,120.76C70.44,103.006 70.562,85.241 70.385,67.487C70.24,53.195 59.821,42.887 45.917,42.876C32.014,42.876 21.617,53.217 21.528,67.487C21.417,86.328 21.528,105.17 21.561,124L0.024,124Z" fill="#FFFFFF"/>
<path d="M405.455,124C405.488,105.369 405.455,86.739 405.577,68.108C405.677,52.685 411.203,39.68 424.762,31.546C441.995,21.205 460.026,21.072 477.447,31.014C490.896,38.692 497.087,51.242 497.321,66.488C497.587,84.464 497.387,102.451 497.398,120.438C497.398,121.625 497.476,122.813 497.509,124L475.96,124C475.938,122.48 475.905,120.971 475.894,119.45C475.894,102.118 475.994,84.786 475.838,67.465C475.727,55.969 468.97,47.081 458.584,44.129C447.998,41.122 436.99,45.039 431.021,53.927C427.991,58.432 427.115,63.481 427.104,68.774C427.082,87.183 427.026,105.602 426.993,124.011L405.444,124.011L405.455,124Z" fill="#FFFFFF"/>
<path d="M340.409,124C338.068,124 335.727,123.734 333.441,123.234C331.865,122.89 330.29,122.535 328.736,122.08C309.24,116.399 295.736,101.985 295.592,80.703C295.558,75.31 295.592,69.917 295.592,64.314L318.217,64.314C318.217,68.641 318.039,72.836 318.272,77.019C318.472,80.669 318.639,84.442 319.682,87.904C322.999,98.9 333.996,105.658 345.846,104.415C357.93,103.15 367.184,94.262 368.161,82.633C368.571,77.784 368.35,72.891 368.416,68.02C368.427,66.855 368.416,65.69 368.416,64.103L390.453,64.103C390.398,76.031 391.84,87.782 386.425,98.778C379.401,113.048 367.584,120.716 352.127,123.334L352.094,123.334C349.963,123.7 347.81,123.989 345.647,123.989L340.409,123.989L340.409,124Z" fill="#FFFFFF"/>
<path d="M562.943,123.456C534.171,123.467 512.877,103.128 512.6,73.923C512.345,46.704 531.818,24.034 563.154,23.912C592.026,23.801 613.12,45.239 613.087,74.289C613.054,102.329 591.494,123.478 562.943,123.456Z" fill="#FFFFFF"/>
</svg>
