<svg width="54" height="54" viewBox="0 0 54 54" fill="none" xmlns="http://www.w3.org/2000/svg" xmlns:xlink="http://www.w3.org/1999/xlink">
<path d="M11.756,33.048C12.334,32.455 12.323,31.506 11.731,30.927C11.138,30.348 10.188,30.359 9.609,30.952L11.756,33.048ZM2,40.89L0.927,39.842C0.606,40.17 0.454,40.627 0.512,41.082C0.571,41.536 0.834,41.94 1.227,42.176L2,40.89ZM8.94,45.06L10.226,44.288C10.099,44.077 9.923,43.901 9.712,43.774L8.94,45.06ZM13.11,52L11.824,52.773C12.065,53.174 12.48,53.44 12.946,53.491C13.411,53.542 13.874,53.373 14.197,53.034L13.11,52ZM25.026,41.654C25.598,41.054 25.574,40.105 24.974,39.534C24.374,38.963 23.424,38.986 22.853,39.586L25.026,41.654ZM9.609,30.952L0.927,39.842L3.073,41.938L11.756,33.048L9.609,30.952ZM1.227,42.176L8.167,46.346L9.712,43.774L2.773,39.604L1.227,42.176ZM7.654,45.833L11.824,52.773L14.396,51.227L10.226,44.288L7.654,45.833ZM14.197,53.034L25.026,41.654L22.853,39.586L12.023,50.966L14.197,53.034Z" fill="#1A7FBD"/>
<path d="M31.147,39.586C30.576,38.986 29.626,38.963 29.026,39.534C28.426,40.105 28.402,41.054 28.973,41.654L31.147,39.586ZM40.89,52L39.803,53.034C40.126,53.373 40.589,53.542 41.054,53.491C41.52,53.44 41.934,53.174 42.176,52.773L40.89,52ZM45.06,45.06L44.287,43.774C44.077,43.901 43.901,44.077 43.774,44.288L45.06,45.06ZM52,40.89L52.772,42.176C53.166,41.94 53.429,41.536 53.488,41.082C53.546,40.627 53.393,40.17 53.073,39.842L52,40.89ZM44.39,30.952C43.812,30.359 42.862,30.348 42.269,30.927C41.677,31.506 41.665,32.455 42.244,33.048L44.39,30.952ZM28.973,41.654L39.803,53.034L41.977,50.966L31.147,39.586L28.973,41.654ZM42.176,52.773L46.346,45.833L43.774,44.288L39.604,51.227L42.176,52.773ZM45.833,46.346L52.772,42.176L51.227,39.604L44.287,43.774L45.833,46.346ZM53.073,39.842L44.39,30.952L42.244,33.048L50.927,41.938L53.073,39.842Z" fill="#1A7FBD"/>
<path d="M41.805,6.634C41.22,6.049 40.27,6.049 39.684,6.634C39.098,7.22 39.098,8.17 39.684,8.756L41.805,6.634ZM39.684,8.756C40.27,9.341 41.22,9.341 41.805,8.756C42.391,8.17 42.391,7.22 41.805,6.634L39.684,8.756ZM39.684,8.756C46.692,15.763 46.692,27.127 39.684,34.134L41.805,36.256C49.985,28.077 49.985,14.814 41.805,6.634L39.684,8.756ZM39.684,34.134C32.677,41.142 21.313,41.142 14.305,34.134L12.184,36.256C20.363,44.435 33.626,44.435 41.805,36.256L39.684,34.134ZM14.305,34.134C7.298,27.127 7.298,15.763 14.305,8.756L12.184,6.634C4.005,14.814 4.005,28.077 12.184,36.256L14.305,34.134ZM14.305,8.756C21.313,1.748 32.677,1.748 39.684,8.756L41.805,6.634C33.626,-1.545 20.363,-1.545 12.184,6.634L14.305,8.756Z" fill="#1A7FBD"/>
<path d="M26.99,28.618L27.688,27.29C27.473,27.177 27.233,27.118 26.99,27.118L26.99,28.618ZM31.979,31.243L31.281,32.57L31.286,32.573L31.979,31.243ZM33.898,29.842L35.377,29.589L35.377,29.588L33.898,29.842ZM32.944,24.282L31.897,23.208C31.543,23.552 31.382,24.049 31.466,24.536L32.944,24.282ZM36.979,20.35L35.933,19.276L35.932,19.276L36.979,20.35ZM36.243,18.089L36.027,19.573L36.031,19.574L36.243,18.089ZM30.662,17.28L29.316,17.942C29.534,18.386 29.957,18.693 30.447,18.764L30.662,17.28ZM28.172,12.218L29.518,11.556L29.517,11.552L28.172,12.218ZM25.797,12.218L24.452,11.552L24.451,11.556L25.797,12.218ZM23.307,17.28L23.522,18.764C24.012,18.693 24.435,18.386 24.653,17.942L23.307,17.28ZM17.726,18.089L17.938,19.574L17.941,19.573L17.726,18.089ZM16.99,20.35L15.936,21.418L15.943,21.425L16.99,20.35ZM21.025,24.282L22.503,24.536C22.587,24.049 22.425,23.552 22.072,23.208L21.025,24.282ZM20.07,29.842L21.549,30.098L21.549,30.096L20.07,29.842ZM21.99,31.243L21.291,29.915L21.29,29.915L21.99,31.243ZM26.979,28.618L26.979,27.118C26.736,27.118 26.496,27.177 26.281,27.29L26.979,28.618ZM26.291,29.946L31.281,32.57L32.678,29.915L27.688,27.29L26.291,29.946ZM31.286,32.573C33.358,33.653 35.774,31.905 35.377,29.589L32.42,30.096C32.396,29.958 32.551,29.849 32.673,29.912L31.286,32.573ZM35.377,29.588L34.422,24.028L31.466,24.536L32.42,30.096L35.377,29.588ZM33.991,25.356L38.026,21.425L35.932,19.276L31.897,23.208L33.991,25.356ZM38.026,21.425C39.705,19.79 38.778,16.936 36.455,16.604L36.031,19.574C36.01,19.571 35.973,19.557 35.939,19.528C35.91,19.502 35.896,19.476 35.889,19.455C35.882,19.434 35.878,19.404 35.886,19.366C35.896,19.323 35.918,19.29 35.933,19.276L38.026,21.425ZM36.458,16.605L30.877,15.795L30.447,18.764L36.027,19.573L36.458,16.605ZM32.008,16.618L29.518,11.556L26.826,12.88L29.316,17.942L32.008,16.618ZM29.517,11.552C28.478,9.454 25.49,9.454 24.452,11.552L27.141,12.883C27.133,12.9 27.109,12.93 27.071,12.953C27.038,12.973 27.007,12.979 26.984,12.979C26.961,12.979 26.931,12.973 26.898,12.953C26.86,12.93 26.836,12.9 26.828,12.883L29.517,11.552ZM24.451,11.556L21.961,16.618L24.653,17.942L27.143,12.88L24.451,11.556ZM23.092,15.795L17.511,16.605L17.941,19.573L23.522,18.764L23.092,15.795ZM17.514,16.604C15.169,16.939 14.295,19.799 15.936,21.418L18.043,19.283C18.058,19.297 18.079,19.329 18.087,19.369C18.095,19.403 18.092,19.431 18.085,19.451C18.079,19.471 18.064,19.499 18.034,19.526C17.998,19.557 17.959,19.571 17.938,19.574L17.514,16.604ZM15.943,21.425L19.978,25.356L22.072,23.208L18.036,19.276L15.943,21.425ZM19.547,24.028L18.592,29.588L21.549,30.096L22.503,24.536L19.547,24.028ZM18.592,29.586C18.194,31.887 20.618,33.661 22.689,32.57L21.29,29.915C21.314,29.903 21.356,29.892 21.401,29.897C21.44,29.901 21.466,29.914 21.482,29.925C21.498,29.937 21.518,29.957 21.533,29.992C21.55,30.033 21.553,30.074 21.549,30.098L18.592,29.586ZM22.688,32.57L27.678,29.946L26.281,27.29L21.291,29.915L22.688,32.57ZM26.979,30.118L26.99,30.118L26.99,27.118L26.979,27.118L26.979,30.118Z" fill="#1A7FBD"/>
</svg>
