<svg width="214" height="212" viewBox="0 0 214 212" fill="none" xmlns="http://www.w3.org/2000/svg" xmlns:xlink="http://www.w3.org/1999/xlink">
<path d="M106.389,0.31C165.02,0.31 212.002,47.107 212.012,105.513C212.022,164.379 164.99,210.893 105.939,211.127C52.589,211.351 0.579,169.455 0.696,105.405C0.814,40.701 54.173,-1.05 106.389,0.31ZM105.948,3.645C56.071,1.806 4.354,43.615 3.767,105.376C3.229,162.188 49.479,207.773 106.77,207.723C163.621,207.665 208.424,162.208 208.854,105.18C209.264,51.43 163.465,1.865 105.958,3.654L105.948,3.645Z" fill="#000000"/>
<path d="M106.095,21.15C154.174,21.15 191.191,57.982 191.181,105.835C191.171,152.916 153.636,190.217 106.281,190.207C59.2,190.207 20.618,152.407 21.224,105.679C21.919,52.329 65.841,19.38 106.105,21.15L106.095,21.15ZM187.905,105.591C188.541,64.984 157.45,24.143 106.447,23.898C56.961,23.654 24.276,63.39 24.53,106.06C24.784,149.454 58.212,187.117 105.939,187.4C156.169,187.694 188.795,147.126 187.905,105.591Z" fill="#000000"/>
<path d="M170.418,105.816C170.399,141.014 141.518,170.227 106.663,170.315C71.484,170.403 41.919,140.965 41.86,105.797C41.802,70.52 71.455,40.75 106.369,41.024C142.174,41.307 170.438,69.904 170.418,105.816L170.418,105.816ZM106.565,44.251C73.635,44.055 45.518,71.674 45.273,104.457C45.009,138.902 72.315,166.882 106.34,167.039C139.357,167.195 168.081,139.606 167.778,106.1C167.445,69.924 140.345,45.405 106.575,44.251L106.565,44.251Z" fill="#000000"/>
<path d="M149.998,103.909C151.631,127.098 132.726,147.655 108.061,149.494C85.919,151.147 64.423,132.173 62.701,109.464C60.814,84.437 79.161,63.537 104.609,61.748C127.709,60.114 148.247,79.205 149.988,103.909L149.998,103.909ZM66.007,105.298C65.948,127.988 83.709,146.09 106.213,146.266C128.247,146.442 147.191,127.655 147.171,105.65C147.152,83.479 128.609,65.112 106.232,65.083C84.188,65.053 66.066,83.166 66.007,105.298Z" fill="#000000"/>
</svg>
