<svg width="1090" height="1540" viewBox="0 0 1090 1540" fill="none" xmlns="http://www.w3.org/2000/svg" xmlns:xlink="http://www.w3.org/1999/xlink">
<path d="M756.959,923.253C699.572,980.653 623.327,1012.349 542.185,1012.571L542.185,1255.861C844.293,1255.379 1089.085,1010.587 1089.567,708.479L846.277,708.479C846.055,789.62 814.359,865.865 756.959,923.253Z" transform="rotate(0 815.876 982.169)" fill="#000000"/>
<path d="M890.389,606.31C949.02,606.31 996.002,653.107 996.012,711.513C996.022,770.379 948.991,816.893 889.939,817.127C836.589,817.351 784.579,775.455 784.696,711.405C784.814,646.701 838.173,604.95 890.389,606.31ZM889.949,609.645C840.071,607.806 788.354,649.615 787.767,711.376C787.23,768.188 833.479,813.773 890.77,813.723C947.621,813.665 992.424,768.208 992.854,711.18C993.264,657.43 947.465,607.865 889.958,609.654L889.949,609.645Z" fill="#000000"/>
<path d="M890.096,627.15C938.174,627.15 975.191,663.982 975.182,711.835C975.172,758.916 937.636,796.217 890.281,796.207C843.201,796.207 804.618,758.407 805.225,711.679C805.919,658.329 849.841,625.38 890.105,627.15L890.096,627.15ZM971.905,711.591C972.541,670.984 941.45,630.143 890.448,629.898C840.961,629.654 808.276,669.39 808.53,712.06C808.785,755.454 842.213,793.117 889.939,793.4C940.169,793.694 972.795,753.126 971.905,711.591Z" fill="#000000"/>
<path d="M954.418,711.816C954.399,747.014 925.519,776.227 890.663,776.315C855.484,776.403 825.919,746.965 825.86,711.797C825.802,676.52 855.455,646.75 890.369,647.024C926.174,647.307 954.438,675.904 954.418,711.816L954.418,711.816ZM890.565,650.251C857.636,650.055 829.518,677.674 829.274,710.457C829.01,744.902 856.315,772.882 890.34,773.039C923.357,773.195 952.081,745.606 951.778,712.1C951.445,675.924 924.345,651.405 890.575,650.251L890.565,650.251Z" fill="#000000"/>
<path d="M933.998,709.909C935.631,733.098 916.727,753.655 892.061,755.494C869.92,757.147 848.423,738.173 846.702,715.464C844.814,690.437 863.161,669.537 888.609,667.748C911.709,666.114 932.247,685.205 933.988,709.909L933.998,709.909ZM850.007,711.298C849.949,733.988 867.709,752.09 890.213,752.266C912.247,752.442 931.191,733.655 931.172,711.65C931.152,689.479 912.609,671.112 890.233,671.083C868.188,671.053 850.066,689.166 850.007,711.298Z" fill="#000000"/>
<rect  x="0" y="0" width="1077.441" height="1539.944" fill="url(#pattern_0_9_2680)"/>
<path d="M247.686,618.381C190.299,675.781 114.054,707.477 32.912,707.699L32.912,950.989C335.02,950.507 579.812,705.715 580.294,403.607L337.004,403.607C336.782,484.749 305.086,560.994 247.686,618.381Z" transform="rotate(180 306.603 677.298)" fill="#1A7FBD"/>
</svg>
