<svg width="1090" height="1540" viewBox="0 0 1090 1540" fill="none" xmlns="http://www.w3.org/2000/svg" xmlns:xlink="http://www.w3.org/1999/xlink">
<path d="M756.176,923.253C698.789,980.653 622.544,1012.349 541.402,1012.571L541.402,1255.861C843.51,1255.379 1088.302,1010.587 1088.784,708.479L845.494,708.479C845.272,789.62 813.576,865.865 756.176,923.253Z" transform="rotate(0 815.093 982.169)" fill="#000000"/>
<path d="M889.606,606.31C948.237,606.31 995.219,653.107 995.229,711.513C995.239,770.379 948.207,816.893 889.156,817.127C835.806,817.351 783.796,775.455 783.913,711.405C784.031,646.701 837.39,604.95 889.606,606.31ZM889.165,609.645C839.288,607.806 787.571,649.615 786.984,711.376C786.446,768.188 832.696,813.773 889.987,813.723C946.838,813.665 991.641,768.208 992.071,711.18C992.481,657.43 946.682,607.865 889.175,609.654L889.165,609.645Z" fill="#000000"/>
<path d="M889.312,627.15C937.391,627.15 974.408,663.981 974.398,711.835C974.389,758.916 936.853,796.217 889.498,796.207C842.417,796.207 803.835,758.407 804.442,711.678C805.136,658.329 849.058,625.38 889.322,627.15L889.312,627.15ZM971.122,711.59C971.758,670.984 940.667,630.143 889.665,629.898C840.178,629.654 807.493,669.39 807.747,712.06C808.002,755.454 841.43,793.116 889.156,793.4C939.386,793.693 972.012,753.126 971.122,711.59Z" fill="#000000"/>
<path d="M953.635,711.816C953.616,747.014 924.735,776.227 889.88,776.315C854.701,776.403 825.136,746.965 825.077,711.796C825.019,676.52 854.672,646.75 889.586,647.023C925.391,647.307 953.655,675.904 953.635,711.816L953.635,711.816ZM889.782,650.251C856.852,650.055 828.735,677.674 828.49,710.456C828.226,744.901 855.532,772.882 889.557,773.038C922.574,773.195 951.298,745.606 950.995,712.099C950.662,675.923 923.562,651.405 889.792,650.251L889.782,650.251Z" fill="#000000"/>
<path d="M933.215,709.909C934.848,733.098 915.943,753.655 891.278,755.494C869.136,757.147 847.64,738.174 845.919,715.464C844.031,690.437 862.378,669.538 887.826,667.748C910.926,666.115 931.464,685.205 933.205,709.909L933.215,709.909ZM849.224,711.298C849.166,733.988 866.926,752.091 889.43,752.267C911.464,752.443 930.408,733.655 930.388,711.65C930.369,689.479 911.826,671.112 889.449,671.083C867.405,671.054 849.283,689.166 849.224,711.298Z" fill="#000000"/>
<rect  x="-0.783" y="0" width="1077.441" height="1539.944" fill="url(#pattern_0_7902_602)"/>
<path d="M246.903,618.381C189.516,675.781 113.27,707.477 32.129,707.699L32.129,950.989C334.237,950.507 579.029,705.715 579.511,403.607L336.221,403.607C335.999,484.749 304.303,560.994 246.903,618.381Z" transform="rotate(180 305.82 677.298)" fill="#1A7FBD"/>
</svg>
