<svg width="54" height="54" viewBox="0 0 54 54" fill="none" xmlns="http://www.w3.org/2000/svg" xmlns:xlink="http://www.w3.org/1999/xlink">
<path d="M24.558,32.89C23.973,33.476 23.973,34.425 24.558,35.011C25.144,35.597 26.094,35.597 26.68,35.011L24.558,32.89ZM33.625,28.066C34.211,27.48 34.211,26.53 33.625,25.944C33.04,25.358 32.09,25.358 31.504,25.944L33.625,28.066ZM26.68,35.011L33.625,28.066L31.504,25.944L24.558,32.89L26.68,35.011Z" fill="#1A7FBD"/>
<path d="M22.506,28.727C21.92,28.142 20.97,28.142 20.385,28.727C19.799,29.313 19.799,30.263 20.385,30.849L22.506,28.727ZM24.548,35.012C25.134,35.598 26.083,35.598 26.669,35.012C27.255,34.426 27.255,33.476 26.669,32.891L24.548,35.012ZM20.385,30.849L24.548,35.012L26.669,32.891L22.506,28.727L20.385,30.849Z" fill="#1A7FBD"/>
<path d="M6.689,14.351L5.752,13.179L5.751,13.18L6.689,14.351ZM18.323,5.045L19.26,6.217L19.261,6.216L18.323,5.045ZM35.677,5.045L34.739,6.216L34.74,6.217L35.677,5.045ZM47.311,14.351L46.374,15.522L46.375,15.523L47.311,14.351ZM3.5,39.505L3.5,24.109L0.5,24.109L0.5,39.505L3.5,39.505ZM3.5,24.109C3.5,20.764 5.023,17.608 7.627,15.521L5.751,13.18C2.439,15.834 0.5,19.85 0.5,24.109L3.5,24.109ZM7.626,15.522L19.26,6.217L17.386,3.874L5.752,13.179L7.626,15.522ZM19.261,6.216C23.783,2.595 30.217,2.595 34.739,6.216L36.614,3.874C30.996,-0.625 23.004,-0.625 17.386,3.874L19.261,6.216ZM34.74,6.217L46.374,15.522L48.248,13.179L36.614,3.874L34.74,6.217ZM46.375,15.523C48.985,17.607 50.5,20.771 50.5,24.109L53.5,24.109C53.5,19.863 51.573,15.835 48.247,13.178L46.375,15.523ZM50.5,24.109L50.5,39.505L53.5,39.505L53.5,24.109L50.5,24.109ZM50.5,39.505C50.5,45.581 45.576,50.505 39.5,50.505L39.5,53.505C47.233,53.505 53.5,47.238 53.5,39.505L50.5,39.505ZM39.5,50.505L14.5,50.505L14.5,53.505L39.5,53.505L39.5,50.505ZM14.5,50.505C8.424,50.505 3.5,45.581 3.5,39.505L0.5,39.505C0.5,47.238 6.767,53.505 14.5,53.505L14.5,50.505Z" fill="#1A7FBD"/>
</svg>
