<svg width="54" height="54" viewBox="0 0 54 54" fill="none" xmlns="http://www.w3.org/2000/svg" xmlns:xlink="http://www.w3.org/1999/xlink">
<line x1="4.78" y1="36.61" x2="15.89" y2="36.61" stroke="#1A7FBD" stroke-width="1.5" stroke-miterlimit="3.999327" stroke-linecap="round" stroke-linejoin="round"/>
<line x1="4.78" y1="44.94" x2="15.89" y2="44.94" stroke="#1A7FBD" stroke-width="1.5" stroke-miterlimit="3.999327" stroke-linecap="round" stroke-linejoin="round"/>
<path d="M27,50.5C26.172,50.5 25.5,51.172 25.5,52C25.5,52.828 26.172,53.5 27,53.5L27,50.5ZM0.5,27C0.5,27.828 1.172,28.5 2,28.5C2.828,28.5 3.5,27.828 3.5,27L0.5,27ZM27,53.5C41.635,53.5 53.5,41.635 53.5,27L50.5,27C50.5,39.979 39.979,50.5 27,50.5L27,53.5ZM53.5,27C53.5,12.365 41.635,0.5 27,0.5L27,3.5C39.979,3.5 50.5,14.021 50.5,27L53.5,27ZM27,0.5C12.365,0.5 0.5,12.365 0.5,27L3.5,27C3.5,14.021 14.021,3.5 27,3.5L27,0.5Z" fill="#1A7FBD"/>
<path d="M27.722,15.849C27.722,15.02 27.05,14.349 26.222,14.349C25.393,14.349 24.722,15.02 24.722,15.849L27.722,15.849ZM26.222,28.764L24.722,28.764C24.722,29.287 24.994,29.772 25.441,30.044L26.222,28.764ZM35.596,36.237C36.304,36.668 37.227,36.445 37.658,35.737C38.089,35.03 37.866,34.107 37.158,33.676L35.596,36.237ZM24.722,15.849L24.722,28.764L27.722,28.764L27.722,15.849L24.722,15.849ZM25.441,30.044L35.596,36.237L37.158,33.676L27.003,27.483L25.441,30.044Z" fill="#1A7FBD"/>
</svg>
