<svg width="54" height="52" viewBox="0 0 54 52" fill="none" xmlns="http://www.w3.org/2000/svg" xmlns:xlink="http://www.w3.org/1999/xlink">
<path d="M25.687,32.436C26.515,32.436 27.187,31.765 27.187,30.936C27.187,30.108 26.515,29.436 25.687,29.436L25.687,32.436ZM25.687,21.916C26.515,21.916 27.187,21.244 27.187,20.416C27.187,19.588 26.515,18.916 25.687,18.916L25.687,21.916ZM25.687,29.436C23.614,29.436 21.927,27.749 21.927,25.676L18.927,25.676C18.927,29.406 21.957,32.436 25.687,32.436L25.687,29.436ZM21.927,25.676C21.927,23.603 23.614,21.916 25.687,21.916L25.687,18.916C21.957,18.916 18.927,21.946 18.927,25.676L21.927,25.676Z" fill="#1A7FBD"/>
<path d="M51.8,22.43L53.071,23.227C53.076,23.219 53.081,23.21 53.086,23.202L51.8,22.43ZM49.765,25.676L48.494,24.879C48.188,25.367 48.188,25.986 48.494,26.473L49.765,25.676ZM51.8,28.922L50.529,29.719L50.529,29.719L51.8,28.922ZM51.382,30.738L50.585,29.467L50.565,29.48L51.382,30.738ZM36.218,25.676L35.157,24.615C34.571,25.201 34.571,26.151 35.157,26.737L36.218,25.676ZM41.092,20.802L40.031,19.742L40.031,19.742L41.092,20.802ZM42.021,21.916L50.683,21.916L50.683,18.916L42.021,18.916L42.021,21.916ZM50.683,21.916C50.585,21.916 50.498,21.829 50.498,21.731L53.498,21.731C53.498,20.172 52.242,18.916 50.683,18.916L50.683,21.916ZM50.498,21.731C50.498,21.687 50.511,21.663 50.513,21.659L53.086,23.202C53.339,22.78 53.498,22.276 53.498,21.731L50.498,21.731ZM50.529,21.633L48.494,24.879L51.035,26.473L53.071,23.227L50.529,21.633ZM48.494,26.473L50.529,29.719L53.071,28.125L51.035,24.879L48.494,26.473ZM50.529,29.719C50.474,29.63 50.502,29.52 50.585,29.467L52.179,32.009C53.494,31.184 53.898,29.445 53.07,28.125L50.529,29.719ZM50.565,29.48C50.594,29.461 50.623,29.449 50.647,29.443C50.67,29.436 50.683,29.436 50.683,29.436L50.683,32.436C51.187,32.436 51.718,32.308 52.2,31.996L50.565,29.48ZM50.683,29.436L42.021,29.436L42.021,32.436L50.683,32.436L50.683,29.436ZM42.021,29.436C42.072,29.436 42.12,29.457 42.152,29.489L40.031,31.611C40.564,32.144 41.28,32.436 42.021,32.436L42.021,29.436ZM42.152,29.489L37.278,24.615L35.157,26.737L40.031,31.611L42.152,29.489ZM37.278,26.737L42.152,21.863L40.031,19.742L35.157,24.615L37.278,26.737ZM42.152,21.863C42.12,21.895 42.072,21.916 42.021,21.916L42.021,18.916C41.28,18.916 40.564,19.208 40.031,19.742L42.152,21.863Z" fill="#1A7FBD"/>
<line x1="30.947" y1="24.176" x2="36.218" y2="24.176" stroke="#1A7FBD" stroke-width="1.5" stroke-miterlimit="3.999327" stroke-linecap="round" stroke-linejoin="round"/>
<path d="M34.572,16.247C35.174,16.816 36.123,16.789 36.692,16.186C37.261,15.584 37.234,14.635 36.631,14.066L34.572,16.247ZM15.741,36.207L14.711,37.298L14.711,37.298L15.741,36.207ZM36.631,37.298C37.233,36.729 37.261,35.78 36.692,35.178C36.124,34.575 35.174,34.548 34.572,35.116L36.631,37.298ZM36.631,14.066C30.215,8.006 20.112,8.307 14.055,14.721L16.236,16.781C21.158,11.569 29.362,11.327 34.572,16.247L36.631,14.066ZM14.055,14.721C7.995,21.138 8.296,31.24 14.711,37.298L16.77,35.117C11.558,30.194 11.317,21.991 16.236,16.781L14.055,14.721ZM14.711,37.298C20.862,43.104 30.48,43.104 36.631,37.298L34.572,35.116C29.577,39.831 21.765,39.831 16.77,35.116L14.711,37.298Z" fill="#1A7FBD"/>
<path d="M44.123,13.359C44.583,14.048 45.514,14.234 46.203,13.773C46.892,13.313 47.078,12.382 46.618,11.693L44.123,13.359ZM38.837,45.37L39.67,46.618L39.671,46.617L38.837,45.37ZM46.617,39.671C47.078,38.983 46.893,38.051 46.205,37.59C45.516,37.13 44.585,37.314 44.124,38.003L46.617,39.671ZM46.618,11.693C38.893,0.129 23.256,-2.978 11.693,4.745L13.359,7.24C23.546,0.436 37.319,3.174 44.123,13.359L46.618,11.693ZM11.693,4.745C0.129,12.47 -2.978,28.107 4.745,39.67L7.24,38.004C0.436,27.817 3.174,14.043 13.359,7.24L11.693,4.745ZM4.745,39.67C12.47,51.234 28.107,54.341 39.67,46.618L38.004,44.123C27.817,50.927 14.043,48.189 7.24,38.004L4.745,39.67ZM39.671,46.617C42.423,44.775 44.775,42.423 46.617,39.671L44.124,38.003C42.5,40.428 40.428,42.5 38.003,44.124L39.671,46.617Z" fill="#1A7FBD"/>
</svg>
