<svg width="54" height="52" viewBox="0 0 54 52" fill="none" xmlns="http://www.w3.org/2000/svg" xmlns:xlink="http://www.w3.org/1999/xlink">
<path d="M25.687,32.437C26.515,32.437 27.187,31.765 27.187,30.937C27.187,30.108 26.515,29.437 25.687,29.437L25.687,32.437ZM25.687,21.917C26.515,21.917 27.187,21.245 27.187,20.417C27.187,19.588 26.515,18.917 25.687,18.917L25.687,21.917ZM25.687,29.437C23.614,29.437 21.927,27.75 21.927,25.677L18.927,25.677C18.927,29.406 21.957,32.437 25.687,32.437L25.687,29.437ZM21.927,25.677C21.927,23.604 23.614,21.917 25.687,21.917L25.687,18.917C21.957,18.917 18.927,21.947 18.927,25.677L21.927,25.677Z" fill="#1A7FBD"/>
<path d="M51.8,22.431L53.071,23.228C53.076,23.219 53.081,23.211 53.086,23.203L51.8,22.431ZM49.765,25.677L48.494,24.88C48.188,25.367 48.188,25.986 48.494,26.473L49.765,25.677ZM51.8,28.922L50.529,29.719L50.529,29.719L51.8,28.922ZM51.382,30.738L50.585,29.467L50.565,29.481L51.382,30.738ZM36.218,25.677L35.157,24.616C34.571,25.202 34.571,26.151 35.157,26.737L36.218,25.677ZM41.092,20.803L40.031,19.742L40.031,19.742L41.092,20.803ZM42.021,21.917L50.683,21.917L50.683,18.917L42.021,18.917L42.021,21.917ZM50.683,21.917C50.585,21.917 50.498,21.829 50.498,21.732L53.498,21.732C53.498,20.173 52.242,18.917 50.683,18.917L50.683,21.917ZM50.498,21.732C50.498,21.688 50.511,21.663 50.513,21.659L53.086,23.203C53.339,22.781 53.498,22.276 53.498,21.732L50.498,21.732ZM50.529,21.634L48.494,24.88L51.035,26.473L53.071,23.228L50.529,21.634ZM48.494,26.473L50.529,29.719L53.071,28.126L51.035,24.88L48.494,26.473ZM50.529,29.719C50.474,29.631 50.502,29.52 50.585,29.468L52.179,32.009C53.494,31.184 53.898,29.445 53.07,28.125L50.529,29.719ZM50.565,29.481C50.594,29.462 50.623,29.45 50.647,29.443C50.67,29.437 50.683,29.437 50.683,29.437L50.683,32.437C51.187,32.437 51.718,32.309 52.2,31.996L50.565,29.481ZM50.683,29.437L42.021,29.437L42.021,32.437L50.683,32.437L50.683,29.437ZM42.021,29.437C42.072,29.437 42.12,29.458 42.152,29.49L40.031,31.611C40.564,32.144 41.28,32.437 42.021,32.437L42.021,29.437ZM42.152,29.49L37.278,24.616L35.157,26.737L40.031,31.611L42.152,29.49ZM37.278,26.737L42.152,21.863L40.031,19.742L35.157,24.616L37.278,26.737ZM42.152,21.863C42.12,21.895 42.072,21.917 42.021,21.917L42.021,18.917C41.28,18.917 40.564,19.209 40.031,19.742L42.152,21.863Z" fill="#1A7FBD"/>
<line x1="30.947" y1="24.176" x2="36.218" y2="24.176" stroke="#1A7FBD" stroke-width="1.5" stroke-miterlimit="3.999327" stroke-linecap="round" stroke-linejoin="round"/>
<path d="M34.572,16.247C35.174,16.816 36.123,16.789 36.692,16.186C37.261,15.584 37.234,14.635 36.631,14.066L34.572,16.247ZM15.741,36.207L14.711,37.298L14.711,37.298L15.741,36.207ZM36.631,37.298C37.233,36.729 37.261,35.78 36.692,35.178C36.124,34.575 35.174,34.548 34.572,35.116L36.631,37.298ZM36.631,14.066C30.215,8.006 20.112,8.307 14.055,14.721L16.236,16.781C21.158,11.569 29.362,11.327 34.572,16.247L36.631,14.066ZM14.055,14.721C7.995,21.138 8.296,31.24 14.711,37.298L16.77,35.117C11.558,30.194 11.317,21.991 16.236,16.781L14.055,14.721ZM14.711,37.298C20.862,43.104 30.48,43.104 36.631,37.298L34.572,35.116C29.577,39.831 21.765,39.831 16.77,35.116L14.711,37.298Z" fill="#1A7FBD"/>
<path d="M44.123,13.359C44.583,14.048 45.514,14.234 46.203,13.773C46.892,13.313 47.078,12.382 46.618,11.693L44.123,13.359ZM38.837,45.37L39.67,46.618L39.671,46.617L38.837,45.37ZM46.617,39.671C47.078,38.983 46.893,38.051 46.205,37.59C45.516,37.13 44.585,37.314 44.124,38.003L46.617,39.671ZM46.618,11.693C38.893,0.129 23.256,-2.978 11.693,4.745L13.359,7.24C23.546,0.436 37.319,3.174 44.123,13.359L46.618,11.693ZM11.693,4.745C0.129,12.47 -2.978,28.107 4.745,39.67L7.24,38.004C0.436,27.817 3.174,14.043 13.359,7.24L11.693,4.745ZM4.745,39.67C12.47,51.234 28.107,54.341 39.67,46.618L38.004,44.123C27.817,50.927 14.043,48.189 7.24,38.004L4.745,39.67ZM39.671,46.617C42.423,44.775 44.775,42.423 46.617,39.671L44.124,38.003C42.5,40.428 40.428,42.5 38.003,44.124L39.671,46.617Z" fill="#1A7FBD"/>
</svg>
