<svg width="54" height="52" viewBox="0 0 54 52" fill="none" xmlns="http://www.w3.org/2000/svg" xmlns:xlink="http://www.w3.org/1999/xlink">
<path d="M15.89,20.94L21.44,20.94L21.44,17.94L15.89,17.94L15.89,20.94ZM21.44,20.94C22.147,20.94 22.72,21.513 22.72,22.22L25.72,22.22C25.72,19.856 23.804,17.94 21.44,17.94L21.44,20.94ZM22.72,22.22L22.72,27.77L25.72,27.77L25.72,22.22L22.72,22.22ZM22.72,27.77C22.72,28.477 22.147,29.05 21.44,29.05L21.44,32.05C23.804,32.05 25.72,30.134 25.72,27.77L22.72,27.77ZM21.44,29.05L15.89,29.05L15.89,32.05L21.44,32.05L21.44,29.05ZM15.89,29.05C15.183,29.05 14.61,28.477 14.61,27.77L11.61,27.77C11.61,30.134 13.526,32.05 15.89,32.05L15.89,29.05ZM14.61,27.77L14.61,22.22L11.61,22.22L11.61,27.77L14.61,27.77ZM14.61,22.22C14.61,21.513 15.183,20.94 15.89,20.94L15.89,17.94C13.526,17.94 11.61,19.856 11.61,22.22L14.61,22.22Z" fill="#1A7FBD"/>
<line x1="32.56" y1="19.33" x2="40.89" y2="19.33" stroke="#1A7FBD" stroke-width="1.5" stroke-miterlimit="3.999327" stroke-linecap="round" stroke-linejoin="round"/>
<line x1="32.56" y1="27.67" x2="40.89" y2="27.67" stroke="#1A7FBD" stroke-width="1.5" stroke-miterlimit="3.999327" stroke-linecap="round" stroke-linejoin="round"/>
<line x1="13" y1="0" x2="13" y2="8.33" stroke="#1A7FBD" stroke-width="1.5" stroke-miterlimit="3.999327" stroke-linecap="round" stroke-linejoin="round"/>
<line x1="38" y1="0" x2="38" y2="8.33" stroke="#1A7FBD" stroke-width="1.5" stroke-miterlimit="3.999327" stroke-linecap="round" stroke-linejoin="round"/>
<path d="M10.33,5.67L43.67,5.67L43.67,2.67L10.33,2.67L10.33,5.67ZM43.67,5.67C47.442,5.67 50.5,8.728 50.5,12.5L53.5,12.5C53.5,7.071 49.099,2.67 43.67,2.67L43.67,5.67ZM50.5,12.5L50.5,41.67L53.5,41.67L53.5,12.5L50.5,12.5ZM50.5,41.67C50.5,45.442 47.442,48.5 43.67,48.5L43.67,51.5C49.099,51.5 53.5,47.099 53.5,41.67L50.5,41.67ZM43.67,48.5L10.33,48.5L10.33,51.5L43.67,51.5L43.67,48.5ZM10.33,48.5C6.558,48.5 3.5,45.442 3.5,41.67L0.5,41.67C0.5,47.099 4.901,51.5 10.33,51.5L10.33,48.5ZM3.5,41.67L3.5,12.5L0.5,12.5L0.5,41.67L3.5,41.67ZM3.5,12.5C3.5,8.728 6.558,5.67 10.33,5.67L10.33,2.67C4.901,2.67 0.5,7.071 0.5,12.5L3.5,12.5Z" fill="#1A7FBD"/>
<line x1="13.11" y1="37.39" x2="40.89" y2="37.39" stroke="#1A7FBD" stroke-width="1.5" stroke-miterlimit="3.999327" stroke-linecap="round" stroke-linejoin="round"/>
</svg>
