<svg width="28" height="22" viewBox="0 0 28 22" fill="none" xmlns="http://www.w3.org/2000/svg" xmlns:xlink="http://www.w3.org/1999/xlink">
<path d="M0,3.667C0,1.641 1.567,0 3.5,0L24.5,0C26.43,0 28,1.641 28,3.667L28,18.333C28,20.356 26.43,22 24.5,22L3.5,22C1.567,22 0,20.356 0,18.333L0,3.667ZM2.625,3.667L2.625,4.933L12.059,13.045C13.185,14.019 14.815,14.019 15.941,13.045L25.375,4.933L25.375,3.615C25.375,3.163 24.981,2.698 24.5,2.698L3.5,2.698C3.017,2.698 2.625,3.163 2.625,3.615L2.625,3.667ZM2.625,8.491L2.625,18.333C2.625,18.838 3.017,19.25 3.5,19.25L24.5,19.25C24.981,19.25 25.375,18.838 25.375,18.333L25.375,8.491L17.609,15.171C15.509,16.976 12.491,16.976 10.341,15.171L2.625,8.491Z" fill="#1A7FBD"/>
</svg>
