<svg width="34" height="24" viewBox="0 0 34 24" fill="none" xmlns="http://www.w3.org/2000/svg" xmlns:xlink="http://www.w3.org/1999/xlink">
<path d="M0.758,3.678C0.758,1.578 2.561,-0.124 4.785,-0.124L28.948,-0.124C31.169,-0.124 32.975,1.578 32.975,3.678L32.975,18.885C32.975,20.982 31.169,22.687 28.948,22.687L4.785,22.687C2.561,22.687 0.758,20.982 0.758,18.885L0.758,3.678ZM3.778,3.678L3.778,4.99L14.633,13.402C15.929,14.412 17.804,14.412 19.1,13.402L29.954,4.99L29.954,3.624C29.954,3.155 29.501,2.674 28.948,2.674L4.785,2.674C4.229,2.674 3.778,3.155 3.778,3.624L3.778,3.678ZM3.778,8.679L3.778,18.885C3.778,19.408 4.229,19.836 4.785,19.836L28.948,19.836C29.501,19.836 29.954,19.408 29.954,18.885L29.954,8.679L21.019,15.606C18.603,17.477 15.13,17.477 12.657,15.606L3.778,8.679Z" fill="#1A7FBD"/>
</svg>
