<svg width="2906" height="1850" viewBox="0 0 2906 1850" fill="none" xmlns="http://www.w3.org/2000/svg" xmlns:xlink="http://www.w3.org/1999/xlink">
<path d="M2904.002,0L24,0L24,527.398L0,516L-0.858,517.806L24,529.614L24,553.398L0,542L-0.858,543.806L24,555.614L24,579.398L0,568L-0.858,569.806L24,581.614L24,605.398L0,594L-0.858,595.806L24,607.614L24,631.398L0,620L-0.858,621.806L24,633.614L24,657.398L0,646L-0.858,647.806L24,659.614L24,683.398L0,672L-0.858,673.806L24,685.614L24,709.398L0,698L-0.858,699.806L24,711.614L24,735.398L0,724L-0.858,725.806L24,737.614L24,761.398L0,750L-0.858,751.806L24,763.614L24,787.398L0,776L-0.858,777.806L24,789.614L24,813.398L0,802L-0.858,803.806L24,815.614L24,839.398L0,828L-0.858,829.806L24,841.612L24,865.398L0,854L-0.858,855.806L24,867.612L24,891.398L0,880L-0.858,881.806L24,893.612L24,917.398L0,906L-0.858,907.806L24,919.612L24,943.398L0,932L-0.858,933.806L24,945.612L24,969.398L0,958L-0.858,959.806L24,971.612L24,995.398L0,984L-0.858,985.806L24,997.612L24,1021.398L0,1010L-0.858,1011.806L24,1023.612L24,1047.398L0,1036L-0.858,1037.806L24,1049.612L24,1073.398L0,1062L-0.858,1063.806L24,1075.612L24,1099.398L0,1088L-0.858,1089.806L24,1101.612L24,1125.398L0,1114L-0.858,1115.806L24,1127.612L24,1151.398L0,1140L-0.858,1141.806L24,1153.612L24,1177.398L0,1166L-0.858,1167.806L24,1179.612L24,1203.398L0,1192L-0.858,1193.806L24,1205.612L24,1229.398L0,1218L-0.858,1219.806L24,1231.612L24,1255.398L0,1244L-0.858,1245.806L24,1257.612L24,1281.398L0,1270L-0.858,1271.806L24,1283.612L24,1307.398L0,1296L-0.858,1297.806L24,1309.612L24,1333.398L0,1322L-0.858,1323.806L24,1335.612L24,1456L277.472,1456L417.216,1522.372L417.216,1577.944L534.224,1577.944L1103.784,1848.458L1104.642,1846.652L538.886,1577.944L588.966,1577.944L1103.784,1822.458L1104.642,1820.652L593.628,1577.944L643.708,1577.944L1103.784,1796.458L1104.642,1794.652L648.37,1577.944L698.45,1577.944L1103.784,1770.458L1104.642,1768.652L703.112,1577.944L753.194,1577.944L1103.784,1744.458L1104.642,1742.652L757.854,1577.944L807.936,1577.944L1103.784,1718.458L1104.642,1716.652L812.598,1577.944L862.678,1577.944L1103.784,1692.458L1104.642,1690.652L867.34,1577.944L917.42,1577.944L1103.784,1666.458L1104.642,1664.652L922.082,1577.944L972.162,1577.944L1103.784,1640.458L1104.642,1638.652L976.824,1577.944L1026.906,1577.944L1103.784,1614.458L1104.642,1612.652L1031.568,1577.944L1081.648,1577.944L1103.784,1588.458L1104.642,1586.652L1086.31,1577.944L1494.658,1577.944L1494.658,1456L2904.002,1456L2904.002,0ZM417.216,1496.372L417.216,1520.158L282.134,1456L332.214,1456L417.216,1496.372ZM417.216,1470.372L417.216,1494.158L336.876,1456L386.958,1456L417.216,1470.372ZM417.216,1456L417.216,1468.158L391.618,1456L417.216,1456Z" clip-rule="evenodd" fill-rule="evenodd" fill="#1A7FBD"/>
</svg>
