<svg width="26" height="30" viewBox="0 0 26 30" fill="none" xmlns="http://www.w3.org/2000/svg" xmlns:xlink="http://www.w3.org/1999/xlink">
<path d="M15.786,17.813L10.214,17.813C4.573,17.813 0,22.43 0,28.125C0,29.16 0.832,30 1.857,30L24.143,30C25.168,30 26,29.16 26,28.125C26,22.43 21.427,17.813 15.786,17.813ZM2.843,27.188C3.302,23.49 6.43,20.625 10.214,20.625L15.786,20.625C19.567,20.625 22.698,23.493 23.156,27.188L2.843,27.188ZM13,15C17.103,15 20.429,11.642 20.429,7.5C20.429,3.358 17.103,0 13,0C8.897,0 5.571,3.358 5.571,7.5C5.571,11.643 8.897,15 13,15ZM13,2.813C15.56,2.813 17.643,4.915 17.643,7.5C17.643,10.085 15.56,12.188 13,12.188C10.44,12.188 8.357,10.084 8.357,7.5C8.357,4.915 10.441,2.813 13,2.813Z" fill="#1A7FBD"/>
</svg>
