<svg width="32" height="32" viewBox="0 0 32 32" fill="none" xmlns="http://www.w3.org/2000/svg" xmlns:xlink="http://www.w3.org/1999/xlink">
<path d="M18.921,18.435L12.511,18.435C6.02,18.435 0.758,23.223 0.758,29.128C0.758,30.202 1.715,31.072 2.895,31.072L28.537,31.072C29.717,31.072 30.673,30.202 30.673,29.128C30.673,23.223 25.412,18.435 18.921,18.435ZM4.029,28.156C4.557,24.322 8.157,21.351 12.511,21.351L18.921,21.351C23.272,21.351 26.874,24.325 27.402,28.156L4.029,28.156ZM15.716,15.519C20.436,15.519 24.263,12.037 24.263,7.742C24.263,3.448 20.436,-0.034 15.716,-0.034C10.995,-0.034 7.169,3.448 7.169,7.742C7.169,12.038 10.995,15.519 15.716,15.519ZM15.716,2.882C18.661,2.882 21.058,5.062 21.058,7.742C21.058,10.422 18.661,12.603 15.716,12.603C12.77,12.603 10.374,10.422 10.374,7.742C10.374,5.062 12.771,2.882 15.716,2.882Z" fill="#1A7FBD"/>
</svg>
