<svg width="26" height="24" viewBox="0 0 26 24" fill="none" xmlns="http://www.w3.org/2000/svg" xmlns:xlink="http://www.w3.org/1999/xlink">
<path d="M3.147,9.586C2.576,8.986 1.626,8.963 1.026,9.534C0.426,10.105 0.402,11.054 0.974,11.654L3.147,9.586ZM12.89,22L11.803,23.034C12.126,23.373 12.589,23.542 13.054,23.491C13.52,23.439 13.935,23.174 14.176,22.772L12.89,22ZM17.06,15.06L16.288,13.774C16.077,13.901 15.901,14.077 15.774,14.287L17.06,15.06ZM24,10.89L24.773,12.176C25.166,11.939 25.429,11.536 25.488,11.081C25.546,10.627 25.394,10.17 25.073,9.842L24,10.89ZM16.391,0.952C15.812,0.359 14.862,0.348 14.269,0.927C13.677,1.506 13.665,2.455 14.244,3.048L16.391,0.952ZM0.974,11.654L11.803,23.034L13.977,20.966L3.147,9.586L0.974,11.654ZM14.176,22.772L18.346,15.833L15.774,14.287L11.604,21.227L14.176,22.772ZM17.833,16.346L24.773,12.176L23.227,9.604L16.288,13.774L17.833,16.346ZM25.073,9.842L16.391,0.952L14.244,3.048L22.927,11.938L25.073,9.842Z" fill="#1A7FBD"/>
</svg>
