<svg width="14" height="24" viewBox="0 0 14 24" fill="none" xmlns="http://www.w3.org/2000/svg" xmlns:xlink="http://www.w3.org/1999/xlink">
<path d="M3.722,1.849C3.722,1.02 3.05,0.349 2.222,0.349C1.394,0.349 0.722,1.02 0.722,1.849L3.722,1.849ZM2.222,14.764L0.722,14.764C0.722,15.287 0.994,15.772 1.441,16.044L2.222,14.764ZM11.597,22.237C12.304,22.668 13.227,22.445 13.658,21.737C14.09,21.03 13.866,20.107 13.159,19.676L11.597,22.237ZM0.722,1.849L0.722,14.764L3.722,14.764L3.722,1.849L0.722,1.849ZM1.441,16.044L11.597,22.237L13.159,19.676L3.003,13.483L1.441,16.044Z" fill="#1A7FBD"/>
</svg>
