<svg width="12" height="12" viewBox="0 0 12 12" fill="none" xmlns="http://www.w3.org/2000/svg" xmlns:xlink="http://www.w3.org/1999/xlink">
<path d="M7.921,3.344C9.13,4.553 9.13,6.514 7.921,7.724L10.042,9.845C12.423,7.464 12.423,3.603 10.042,1.223L7.921,3.344ZM7.921,7.724C6.711,8.933 4.75,8.933 3.541,7.724L1.419,9.845C3.8,12.226 7.661,12.226 10.042,9.845L7.921,7.724ZM3.541,7.724C2.332,6.514 2.332,4.553 3.541,3.344L1.419,1.223C-0.961,3.603 -0.961,7.464 1.419,9.845L3.541,7.724ZM3.541,3.344C4.75,2.135 6.711,2.135 7.921,3.344L10.042,1.223C7.661,-1.158 3.8,-1.158 1.419,1.223L3.541,3.344Z" fill="#1A7FBD"/>
</svg>
