<svg width="20" height="16" viewBox="0 0 20 16" fill="none" xmlns="http://www.w3.org/2000/svg" xmlns:xlink="http://www.w3.org/1999/xlink">
<path d="M17.799,4.431L19.07,5.227C19.075,5.219 19.08,5.211 19.085,5.202L17.799,4.431ZM15.764,7.676L14.493,6.88C14.188,7.367 14.188,7.986 14.493,8.473L15.764,7.676ZM17.799,10.922L16.528,11.719L16.528,11.719L17.799,10.922ZM17.382,12.738L16.585,11.467L16.564,11.48L17.382,12.738ZM2.217,7.676L1.157,6.616C0.571,7.201 0.571,8.151 1.157,8.737L2.217,7.676ZM7.091,2.802L6.031,1.742L6.031,1.742L7.091,2.802ZM8.02,3.916L16.682,3.916L16.682,0.916L8.02,0.916L8.02,3.916ZM16.682,3.916C16.585,3.916 16.498,3.829 16.498,3.731L19.498,3.731C19.498,2.172 18.241,0.916 16.682,0.916L16.682,3.916ZM16.498,3.731C16.498,3.687 16.51,3.663 16.513,3.659L19.085,5.202C19.339,4.78 19.498,4.276 19.498,3.731L16.498,3.731ZM16.528,3.634L14.493,6.88L17.035,8.473L19.07,5.227L16.528,3.634ZM14.493,8.473L16.528,11.719L19.07,10.125L17.035,6.879L14.493,8.473ZM16.528,11.719C16.473,11.631 16.501,11.52 16.585,11.467L18.179,14.009C19.494,13.184 19.898,11.445 19.07,10.125L16.528,11.719ZM16.564,11.48C16.593,11.462 16.622,11.45 16.646,11.443C16.67,11.436 16.683,11.436 16.682,11.436L16.682,14.436C17.186,14.436 17.718,14.309 18.199,13.996L16.564,11.48ZM16.682,11.436L8.02,11.436L8.02,14.436L16.682,14.436L16.682,11.436ZM8.02,11.436C8.072,11.436 8.12,11.458 8.152,11.49L6.031,13.611C6.564,14.144 7.28,14.436 8.02,14.436L8.02,11.436ZM8.152,11.49L3.278,6.616L1.157,8.737L6.031,13.611L8.152,11.49ZM3.278,8.737L8.152,3.863L6.031,1.742L1.157,6.616L3.278,8.737ZM8.152,3.863C8.12,3.895 8.072,3.916 8.02,3.916L8.02,0.916C7.28,0.916 6.564,1.209 6.031,1.742L8.152,3.863Z" fill="#1A7FBD"/>
</svg>
