<svg width="18" height="18" viewBox="0 0 18 18" fill="none" xmlns="http://www.w3.org/2000/svg" xmlns:xlink="http://www.w3.org/1999/xlink">
<path d="M14.005,4.076L12.943,5.135L12.945,5.137L14.005,4.076ZM14.005,14.087L12.946,13.025L12.945,13.026L14.005,14.087ZM3.995,14.087L5.057,13.028L5.055,13.026L3.995,14.087ZM3.995,4.076L5.054,5.139L5.055,5.137L3.995,4.076ZM12.945,5.137C15.128,7.32 15.126,10.852 12.946,13.025L15.064,15.149C18.422,11.803 18.419,6.369 15.066,3.016L12.945,5.137ZM12.945,13.026C10.761,15.21 7.229,15.207 5.057,13.028L2.932,15.146C6.279,18.503 11.713,18.501 15.066,15.148L12.945,13.026ZM5.055,13.026C2.872,10.843 2.874,7.311 5.054,5.139L2.936,3.014C-0.422,6.36 -0.419,11.794 2.934,15.148L5.055,13.026ZM5.055,5.137C7.239,2.953 10.771,2.956 12.943,5.135L15.068,3.017C11.721,-0.34 6.287,-0.338 2.934,3.016L5.055,5.137Z" fill="#1A7FBD"/>
</svg>
