<svg width="42" height="44" viewBox="0 0 42 44" fill="none" xmlns="http://www.w3.org/2000/svg" xmlns:xlink="http://www.w3.org/1999/xlink">
<path d="M35.805,6.634C35.22,6.049 34.27,6.049 33.684,6.634C33.098,7.22 33.098,8.17 33.684,8.756L35.805,6.634ZM33.684,8.756C34.27,9.341 35.22,9.341 35.805,8.756C36.391,8.17 36.391,7.22 35.805,6.634L33.684,8.756ZM33.684,8.756C40.692,15.763 40.692,27.127 33.684,34.134L35.805,36.256C43.985,28.077 43.985,14.813 35.805,6.634L33.684,8.756ZM33.684,34.134C26.677,41.142 15.313,41.142 8.306,34.134L6.184,36.256C14.363,44.435 27.626,44.435 35.805,36.256L33.684,34.134ZM8.306,34.134C1.298,27.127 1.298,15.763 8.306,8.756L6.184,6.634C-1.995,14.813 -1.995,28.077 6.184,36.256L8.306,34.134ZM8.306,8.756C15.313,1.748 26.677,1.748 33.684,8.756L35.805,6.634C27.626,-1.545 14.363,-1.545 6.184,6.634L8.306,8.756Z" fill="#1A7FBD"/>
</svg>
