<svg width="32" height="32" viewBox="0 0 32 32" fill="none" xmlns="http://www.w3.org/2000/svg" xmlns:xlink="http://www.w3.org/1999/xlink">
<path d="M3.429,0L28.571,0C29.481,0 30.353,0.357 30.996,0.993C31.639,1.63 32,2.492 32,3.392L32,28.608C32,29.508 31.639,30.37 30.996,31.007C30.353,31.643 29.481,32 28.571,32L3.429,32C2.519,32 1.647,31.643 1.004,31.007C0.361,30.37 0,29.508 0,28.608L0,3.392C0,2.492 0.361,1.63 1.004,0.993C1.647,0.357 2.519,0 3.429,0ZM10.113,12.373L5.514,12.373L5.514,26.264L10.113,26.264L10.113,12.373ZM7.848,5.68C9.115,5.694 10.364,6.567 10.418,8.08C10.445,9.425 9.272,10.449 7.814,10.48L7.779,10.48C6.524,10.466 5.299,9.57 5.242,8.08C5.26,6.75 6.379,5.711 7.848,5.68ZM25.234,13.556C24.154,12.455 22.839,12.042 21.445,12.034C20.424,12.051 19.477,12.266 18.689,12.828C18.109,13.252 17.676,13.778 17.285,14.333L17.285,12.373L12.686,12.373C12.708,12.756 12.719,13.5 12.719,14.604C12.726,17.84 12.71,21.076 12.695,24.313C12.692,24.963 12.689,25.614 12.686,26.264L17.285,26.264L17.285,18.489C17.292,18.102 17.312,17.713 17.455,17.375C17.977,16.325 18.74,15.697 19.822,15.685C21.668,15.741 22.146,17.435 22.156,18.829L22.156,26.264L26.758,26.264L26.758,18.286C26.718,16.532 26.357,14.807 25.234,13.556Z" clip-rule="evenodd" fill-rule="evenodd" fill="#FFFFFF"/>
</svg>
