<svg width="14" height="16" viewBox="0 0 14 16" fill="none" xmlns="http://www.w3.org/2000/svg" xmlns:xlink="http://www.w3.org/1999/xlink">
<path d="M3.89,2.94L9.44,2.94L9.44,-0.06L3.89,-0.06L3.89,2.94ZM9.44,2.94C10.147,2.94 10.72,3.513 10.72,4.22L13.72,4.22C13.72,1.856 11.804,-0.06 9.44,-0.06L9.44,2.94ZM10.72,4.22L10.72,9.77L13.72,9.77L13.72,4.22L10.72,4.22ZM10.72,9.77C10.72,10.477 10.147,11.05 9.44,11.05L9.44,14.05C11.804,14.05 13.72,12.134 13.72,9.77L10.72,9.77ZM9.44,11.05L3.89,11.05L3.89,14.05L9.44,14.05L9.44,11.05ZM3.89,11.05C3.183,11.05 2.61,10.477 2.61,9.77L-0.39,9.77C-0.39,12.134 1.526,14.05 3.89,14.05L3.89,11.05ZM2.61,9.77L2.61,4.22L-0.39,4.22L-0.39,9.77L2.61,9.77ZM2.61,4.22C2.61,3.513 3.183,2.94 3.89,2.94L3.89,-0.06C1.526,-0.06 -0.39,1.856 -0.39,4.22L2.61,4.22Z" fill="#1A7FBD"/>
</svg>
