<svg width="32" height="32" viewBox="0 0 32 32" fill="none" xmlns="http://www.w3.org/2000/svg" xmlns:xlink="http://www.w3.org/1999/xlink">
<path d="M3.429,0L28.571,0C29.481,0 30.353,0.357 30.996,0.993C31.639,1.63 32,2.492 32,3.392L32,28.608C32,29.508 31.639,30.37 30.996,31.007C30.353,31.643 29.481,32 28.571,32L3.429,32C2.519,32 1.647,31.643 1.004,31.007C0.361,30.37 0,29.508 0,28.608L0,3.392C0,2.492 0.361,1.63 1.004,0.993C1.647,0.357 2.519,0 3.429,0ZM20.877,5.358C20.626,5.341 20.384,5.334 20.152,5.339C19.455,5.353 18.838,5.467 18.3,5.678C16.208,6.488 15.146,8.086 15.146,10.596L15.146,14.077L12.211,14.077L12.211,18.133L15.146,18.133L15.146,29.422L19.375,29.422L19.375,18.133L23.537,18.133L23.709,14.077L19.375,14.077L19.375,11.103C19.414,9.751 19.847,9.285 21.046,9.312L23.605,9.312L23.709,5.526C22.756,5.442 21.796,5.359 20.877,5.358Z" clip-rule="evenodd" fill-rule="evenodd" fill="#FFFFFF"/>
</svg>
