<svg width="14" height="12" viewBox="0 0 14 12" fill="none" xmlns="http://www.w3.org/2000/svg" xmlns:xlink="http://www.w3.org/1999/xlink">
<path d="M8.46,3.343C9.669,4.553 9.669,6.514 8.46,7.723L10.581,9.845C12.962,7.464 12.962,3.603 10.581,1.222L8.46,3.343ZM8.46,7.723C7.25,8.932 5.289,8.932 4.08,7.723L1.958,9.845C4.339,12.225 8.2,12.225 10.581,9.845L8.46,7.723ZM4.08,7.723C2.871,6.514 2.871,4.553 4.08,3.343L1.958,1.222C-0.422,3.603 -0.422,7.464 1.958,9.845L4.08,7.723ZM4.08,3.343C5.289,2.134 7.25,2.134 8.46,3.343L10.581,1.222C8.2,-1.159 4.339,-1.159 1.958,1.222L4.08,3.343Z" fill="#1A7FBD"/>
</svg>
