<svg width="12" height="12" viewBox="0 0 12 12" fill="none" xmlns="http://www.w3.org/2000/svg" xmlns:xlink="http://www.w3.org/1999/xlink">
<path d="M7.921,3.343C9.13,4.553 9.13,6.514 7.921,7.723L10.042,9.845C12.423,7.464 12.423,3.603 10.042,1.222L7.921,3.343ZM7.921,7.723C6.711,8.932 4.75,8.932 3.541,7.723L1.419,9.845C3.8,12.225 7.661,12.225 10.042,9.845L7.921,7.723ZM3.541,7.723C2.331,6.514 2.331,4.553 3.541,3.343L1.419,1.222C-0.961,3.603 -0.961,7.464 1.419,9.845L3.541,7.723ZM3.541,3.343C4.75,2.134 6.711,2.134 7.921,3.343L10.042,1.222C7.661,-1.159 3.8,-1.159 1.419,1.222L3.541,3.343Z" fill="#1A7FBD"/>
</svg>
