<svg width="26" height="24" viewBox="0 0 26 24" fill="none" xmlns="http://www.w3.org/2000/svg" xmlns:xlink="http://www.w3.org/1999/xlink">
<path d="M11.756,3.048C12.334,2.455 12.323,1.506 11.731,0.927C11.138,0.348 10.188,0.359 9.609,0.952L11.756,3.048ZM2,10.89L0.927,9.842C0.606,10.17 0.454,10.627 0.512,11.081C0.571,11.536 0.834,11.939 1.227,12.176L2,10.89ZM8.94,15.06L10.226,14.287C10.099,14.077 9.923,13.901 9.712,13.774L8.94,15.06ZM13.11,22L11.824,22.772C12.065,23.174 12.48,23.439 12.946,23.491C13.411,23.542 13.874,23.373 14.197,23.034L13.11,22ZM25.026,11.654C25.598,11.054 25.574,10.105 24.974,9.534C24.374,8.963 23.424,8.986 22.853,9.586L25.026,11.654ZM9.609,0.952L0.927,9.842L3.073,11.938L11.756,3.048L9.609,0.952ZM1.227,12.176L8.167,16.346L9.712,13.774L2.773,9.604L1.227,12.176ZM7.654,15.833L11.824,22.772L14.396,21.227L10.226,14.287L7.654,15.833ZM14.197,23.034L25.026,11.654L22.853,9.586L12.023,20.966L14.197,23.034Z" fill="#1A7FBD"/>
</svg>
