<svg width="454" height="68" viewBox="0 0 454 68" fill="none" xmlns="http://www.w3.org/2000/svg" xmlns:xlink="http://www.w3.org/1999/xlink">
<g style="mix-blend-mode:screen">
<path d="M116.415,35.237C117.588,35.339 118.233,35.832 117.842,36.326L118.743,36.683L118.981,36.785C119.27,36.836 119.575,36.683 119.643,36.445L119.558,36.275L119.457,36.07C119.541,35.917 119.779,35.679 119.983,35.543L120.17,35.407L121.02,34.947L121.376,34.488C121.614,34.777 121.886,34.879 121.971,34.726C122.056,34.573 122.43,34.301 122.77,34.114C123.11,33.927 124.163,34.199 124.248,34.08C124.333,33.961 124.979,33.995 125.063,33.773L125.369,33.671L125.437,33.671C125.437,33.671 126.406,33.263 127.425,32.889L128.496,33.059L128.598,33.059C128.716,33.093 128.937,32.974 129.09,32.821C129.243,32.667 129.957,32.361 130.212,32.412C130.467,32.463 131.52,32.004 132.013,31.868L132.471,31.8L132.624,31.8C132.811,31.885 133.168,31.817 133.406,31.647C133.644,31.476 134.493,30.915 134.765,30.847C135.037,30.779 136.277,30.404 136.94,30.217L137.62,30.166L138.146,30.132C138.69,29.826 139.404,29.367 139.709,29.094C140.015,28.822 141.358,29.316 141.714,29.247L141.952,29.077C142.19,28.89 142.275,28.584 142.496,28.38L142.547,28.329C142.853,28.465 143.566,28.397 144.161,28.193C144.756,27.988 146.285,27.376 146.489,27.546C146.693,27.716 147.78,27.206 148.222,27.036L148.477,26.78L149.139,26.134C149.819,26.474 150.431,26.644 150.499,26.525L150.499,26.406L150.601,26.083C150.957,26.049 151.433,25.913 151.654,25.759C151.875,25.606 152.758,25.215 153.081,24.943C153.404,24.67 154.457,25.232 154.542,25.164C154.627,25.096 155.324,24.773 155.885,24.534C156.445,24.296 157.924,23.616 157.958,23.581C157.992,23.547 158.569,23.479 159.215,23.428C159.861,23.377 161.526,22.782 161.662,22.85C161.797,22.918 162.511,22.663 163.157,22.373C163.802,22.084 165.739,21.931 165.824,21.914C165.909,21.897 166.13,21.727 165.943,21.659C165.756,21.591 165.722,21.182 166.198,20.859C166.674,20.536 168.254,21.063 168.339,21.012C168.424,20.961 168.951,20.74 169.307,20.587C169.664,20.434 170.887,20.298 171.057,20.127L171.227,19.991C171.363,19.872 171.55,19.719 171.703,19.719L172.145,19.719C172.638,19.838 173.3,19.634 173.64,19.294L173.997,19.175L174.49,19.004C175.135,19.038 176.07,19.158 176.579,19.26C177.089,19.362 178.703,18.443 179.332,18.12C179.961,17.796 182.288,18.137 182.883,18.256L183.393,17.864C183.648,17.677 183.987,17.524 184.327,17.473L184.837,17.388C185.347,17.592 186.128,17.575 186.553,17.337L187.012,17.184C187.165,17.133 187.47,17.456 187.691,17.439L188.405,17.405C189.17,17.252 190.053,17.065 190.359,17.014C190.665,16.963 191.599,17.303 191.99,17.184C192.381,17.065 193.808,17.388 194.199,17.405L194.556,17.371L194.726,17.371C194.895,17.269 195.473,17.235 196.034,17.252C196.594,17.269 198.684,17.932 199.704,18.052C200.724,18.171 204.444,18.273 205.702,18.256L206.516,19.09C206.874,19.447 207.23,19.481 207.656,19.141L207.706,19.107C208.03,19.277 208.402,19.464 208.556,19.515C208.708,19.566 209.134,19.515 209.406,19.481C209.678,19.447 210.254,19.906 210.526,20.11C210.798,20.315 211.902,21.165 212.446,21.472C212.99,21.778 214.366,23.564 214.894,24.449L215.674,25.096L215.726,25.147C215.606,25.334 215.776,25.913 216.082,26.44C216.388,26.967 217.102,28.482 217.154,28.584C217.204,28.686 217.39,29.435 217.544,29.996L217.73,30.49C217.85,30.83 218.716,30.83 218.342,31.425L217.968,32.021C218.598,32.191 219.226,32.48 219.362,32.667C219.498,32.855 220.076,33.739 220.314,34.216L220.704,34.352L221.384,34.59C222.216,34.709 223.32,34.828 223.848,34.862C224.374,34.896 226.108,34.845 226.548,34.93L226.974,34.999L227.33,35.05C227.722,35.067 228.384,34.981 228.808,34.845C229.234,34.709 231.306,34.777 231.612,34.522L232.07,34.981C232.376,35.288 232.394,34.777 232.394,34.624C232.394,34.046 232.564,33.773 233.312,34.165L233.43,34.233C233.634,34.216 233.854,33.927 233.956,33.586L234.484,33.944L234.62,34.046C235.096,33.859 235.606,33.79 235.724,33.893C235.842,33.995 236.318,34.284 236.438,34.25L236.54,34.216C237.524,33.893 238.528,33.586 239.496,33.263L240.09,33.059C240.72,32.804 241.534,32.446 241.908,32.242L242.436,32.463L242.81,32.616C243.166,32.225 243.608,31.936 243.794,31.953L243.948,31.953L244.186,32.004C245.204,31.834 246.106,31.647 246.208,31.579C246.31,31.51 246.802,31.613 247.108,31.902C247.414,32.191 248.298,31.306 248.62,31.306C248.942,31.306 249.742,30.796 249.962,30.813C250.184,30.83 250.896,30.609 251.032,30.353C251.168,30.098 251.968,30.507 252.036,30.404C252.104,30.302 252.85,29.877 253.412,29.894L254.006,29.894L254.294,29.86C254.6,29.792 255.298,29.401 255.84,28.992L256.606,29.128L257.184,29.23C257.812,29.145 258.56,28.992 258.848,28.89C259.138,28.788 260.004,28.329 260.36,28.261L260.752,28.346C261.652,28.55 262.314,28.278 263.674,27.444L263.776,27.376C263.98,27.427 264.812,27.376 265.628,27.274L266.104,26.967L266.24,26.882C266.494,26.882 266.664,27.036 266.614,27.172L266.58,27.308L266.512,27.631C266.614,28.039 266.936,28.005 267.208,27.546L267.598,27.257L267.99,26.95C268.584,26.746 268.924,26.746 268.754,26.95C268.584,27.155 269.094,27.648 270.08,27.41C271.064,27.172 273.46,26.95 273.104,26.831C272.746,26.712 271.558,26.729 271.268,26.933L270.962,27.053L270.742,27.138C270.436,27.121 270.182,26.984 270.198,26.865C270.216,26.746 270.674,26.304 271.082,26.1C271.49,25.896 272.984,25.913 273.086,25.861C273.188,25.81 273.512,25.555 273.63,25.708C273.75,25.861 274.802,25.896 275.788,25.572L276.4,25.232C276.858,24.977 277.062,24.977 277.556,25.215C278.2,25.521 278.966,25.538 279.578,24.96L279.78,24.773C280.188,24.687 280.834,24.653 281.192,24.67C281.548,24.687 282.874,24.483 283.4,24.756L283.944,24.381L284.402,24.075L285.608,23.871C285.608,23.871 286.272,23.871 286.918,23.871C287.562,23.871 289.398,23.769 289.55,23.667C289.704,23.564 290.588,23.513 291.114,23.854C291.64,24.194 293.628,23.513 293.968,23.479L294.258,23.53C294.58,23.599 294.97,23.888 295.174,23.803C295.43,23.701 295.48,23.292 295.702,23.088L295.872,22.935C296.178,22.867 296.602,22.884 296.788,22.969C296.976,23.054 297.536,23.003 297.672,22.884C297.808,22.765 298.386,22.578 298.556,22.663L298.726,22.663C299.236,22.714 299.88,22.867 300.238,22.663C300.816,22.373 301.258,22.169 301.834,22.578L301.92,22.629C302.056,22.629 302.362,22.476 302.616,22.254C302.872,22.033 304.316,22.339 304.724,22.356C305.132,22.373 306.202,22.135 306.252,21.829C306.304,21.523 307.458,21.88 307.798,22.084C308.138,22.288 309.854,22.254 310.11,22.39C310.364,22.527 310.992,22.067 311.214,22.152C311.434,22.237 312.182,22.203 312.438,21.982C312.692,21.761 313.728,21.387 314.306,21.574L314.628,21.778L315.648,22.459C315.292,21.829 315.41,21.489 315.904,21.727C316.396,21.965 317.96,22.152 318.112,22.254C318.264,22.356 318.792,22.595 318.894,22.459C318.996,22.322 319.608,21.489 319.964,20.961L320.848,21.557C321.358,21.897 322.326,21.455 322.904,22.016L323.006,22.101C323.312,22.05 323.854,21.863 324.212,21.676C324.568,21.489 325.69,21.523 326.336,21.591L326.914,21.642L327.254,21.676C327.644,21.574 328.324,21.455 328.748,21.387C329.174,21.319 331.262,21.557 331.602,21.506C331.942,21.455 332.928,21.387 332.978,21.506C333.03,21.625 333.506,21.999 333.862,21.982C334.22,21.965 334.508,21.114 334.61,21.097C334.712,21.08 335.68,21.284 336.614,21.472L337.43,21.284L337.652,21.233C337.872,21.165 338.552,21.216 339.164,21.336C339.776,21.455 341.712,21.421 342.358,21.744L342.952,21.267C343.36,20.944 343.564,20.723 343.666,21.438C343.718,21.778 344.21,21.71 344.55,21.472L344.872,21.267C345.348,21.267 346.062,21.131 346.47,21.012L346.878,20.944L346.98,20.944C347.15,21.097 347.422,21.353 347.608,21.489C347.794,21.625 348.746,21.625 349.324,21.625L349.41,21.557L349.97,21.114C350.394,21.404 350.972,21.574 351.244,21.506L351.498,21.404L351.89,21.267C352.892,21.182 354.132,21.029 354.642,20.893C355.152,20.757 356.902,21.063 357.462,21.199L357.922,20.91L358.364,20.638C358.804,20.774 359.74,20.842 360.436,20.808C361.132,20.774 362.968,20.944 363.222,20.774L363.444,20.672L363.512,20.638C363.512,20.638 363.698,20.621 363.75,20.74C363.8,20.859 364.276,21.046 364.616,20.706C364.956,20.366 366.808,20.774 367.334,20.689C367.86,20.604 369.136,21.25 369.17,21.233C369.204,21.216 369.662,21.029 370.138,20.876C370.614,20.723 373.552,20.842 373.978,20.876L374.334,20.774L374.454,20.74C374.522,20.383 374.708,20.23 374.862,20.417C375.014,20.604 375.694,20.825 375.948,20.842C376.204,20.859 377.172,20.536 377.732,20.332C378.294,20.127 380.078,20.383 380.35,20.468C380.62,20.553 381.862,20.417 382.354,20.536L382.796,20.536L383,20.502C383.204,20.144 383.594,20.008 383.866,20.195C384.138,20.383 384.92,20.366 385.14,20.195C385.362,20.025 386.482,20.161 387.026,19.821L387.486,20.485C387.486,20.485 388.08,20.366 388.624,20.281C389.168,20.195 390.442,20.025 390.748,19.957C391.054,19.889 392.072,19.991 392.396,20.212C392.718,20.434 393.874,19.906 394.282,20.025C394.69,20.144 396.15,19.838 396.44,19.838C396.728,19.838 397.68,20.11 398.02,20.212L398.376,19.991C398.546,19.872 398.904,19.855 399.14,19.923L399.634,20.042C400.16,20.23 401.026,20.349 401.588,20.281L402.08,20.178L402.81,20.025C403.592,20.11 404.934,20.059 405.768,19.923L406.362,20.519L407.552,20.059L407.636,19.991C407.738,19.923 408.57,19.923 409.522,19.991C410.474,20.059 412.938,20.638 413.124,20.672C413.312,20.706 414.296,20.417 414.858,20.195C415.418,19.974 416.998,20.519 417.066,20.536C417.134,20.553 417.932,20.638 418.664,20.706C419.394,20.774 421.28,21.574 421.314,21.472C421.348,21.37 421.398,20.978 421.466,20.808C421.534,20.638 422.384,20.859 422.844,20.808C423.302,20.757 424.526,20.859 424.406,21.267C424.288,21.676 426.242,21.846 426.19,21.693C426.14,21.54 426.19,21.029 426.428,20.961C426.666,20.893 427.362,21.063 427.754,21.199C428.144,21.336 429.572,21.148 429.878,21.216C430.182,21.284 431.27,21.54 431.56,21.608C431.848,21.676 432.732,21.489 433.004,21.319C433.276,21.148 434.158,21.659 434.38,21.659C434.6,21.659 435.366,21.557 435.654,21.591C435.942,21.625 436.844,21.948 437.2,22.033L437.556,21.846L437.676,21.778C438.032,22.016 437.93,22.459 437.456,22.748L438.508,22.782C439.018,22.799 439.442,22.782 439.324,22.22L439.256,21.846C439.63,21.727 440.394,21.761 440.956,21.914L441.142,22.288C441.328,22.663 440.956,22.799 440.496,22.799L440.446,22.799C440.394,23.139 440.616,23.428 440.972,23.462L441.108,23.343C441.448,23.071 441.618,22.629 441.992,22.407L442.348,22.203C442.944,22.152 443.436,22.288 443.452,22.527C443.47,22.765 443.912,23.564 444.388,23.803C444.864,24.041 446.29,23.513 446.342,23.513C446.392,23.513 446.97,23.633 447.564,23.786C448.16,23.939 449.672,23.735 449.484,23.854C449.298,23.973 449.008,24.67 448.974,25.079L448.974,25.879C448.974,26.355 449.246,26.848 449.57,26.967C449.892,27.087 450.724,27.733 450.708,28.124C450.69,28.516 449.45,28.924 449.45,28.652C449.45,28.38 449.298,27.546 449.11,27.716C448.924,27.886 448.568,28.499 448.584,28.839C448.6,29.179 449.586,29.826 450.012,29.69C450.436,29.554 451.642,29.401 451.472,29.69C451.302,29.979 451.422,30.592 451.506,30.813C451.592,31.034 451.864,31.817 451.982,32.072L452.152,32.072C452.712,32.174 452.746,32.446 452.542,32.736L452.338,33.008C451.744,32.753 451.234,32.48 451.2,32.412C451.166,32.344 450.912,32.089 450.86,32.344C450.81,32.599 450.47,33.263 450.25,32.957C450.028,32.65 449.91,32.174 449.876,32.004C449.842,31.834 449.416,31.459 449.246,31.647C449.076,31.834 448.77,32.378 448.5,32.497C448.228,32.616 447.242,33.28 446.478,33.382L445.73,33.263L444.998,33.144C444.15,33.178 443.35,33.144 443.232,33.025C443.112,32.906 442.57,32.684 442.348,32.804C442.128,32.923 441.346,33.348 441.194,33.501C441.04,33.654 440.19,33.433 439.868,33.603C439.544,33.773 438.236,33.45 437.896,33.654C437.556,33.859 436.3,33.195 435.874,33.11C435.45,33.025 434.04,33.433 433.462,33.263L432.884,33.263L432.476,33.229C432.018,33.229 431.526,33.229 431.406,33.229C431.288,33.229 429.826,33.297 428.432,33.331C427.04,33.365 422.978,33.535 422.52,33.45C422.062,33.365 420.056,33.569 419.258,33.569L418.578,33.382L418.136,33.263C417.848,33.399 417.304,33.603 416.948,33.722L416.76,33.637L415.502,32.991C414.024,33.161 412.394,33.246 411.884,33.161C411.374,33.076 409.506,33.246 408.962,33.246C408.418,33.246 406.514,33.28 405.938,33.246C405.36,33.212 403.966,32.991 403.78,33.552L402.964,33.246L402.352,33.025C401.724,33.144 400.756,33.144 400.178,33.025L399.718,33.144L399.174,33.28C398.682,33.161 398.07,33.195 397.798,33.365C397.526,33.535 396.338,32.804 395.708,32.582C395.08,32.361 393.058,33.246 392.446,33.246C391.834,33.246 390.068,33.212 389.78,33.025C389.49,32.838 388.198,33.212 387.842,33.263C387.486,33.314 386.312,33.348 386.042,33.433C385.77,33.518 384.664,33.433 384.308,33.416C383.952,33.399 382.71,33.331 382.372,33.416C382.032,33.501 381.198,33.059 381.148,33.059C381.096,33.059 379.924,33.297 378.668,33.586C377.41,33.876 374.98,33.637 374.658,33.637C374.334,33.637 372.874,33.722 372.074,33.824C371.276,33.927 368.286,33.365 367.062,33.297C365.84,33.229 362.644,33.978 362.508,33.961C362.372,33.944 361.132,33.688 360.08,33.484L359.212,33.944C358.804,34.148 358.584,33.416 358.194,33.944L357.938,34.284C357.564,34.029 355.56,33.739 353.47,33.654L351.6,33.79L351.126,33.824C350.666,33.79 349.732,33.671 349.036,33.586L348.832,33.807C348.372,34.284 348.152,33.552 347.794,33.807C347.268,34.182 346.792,33.671 346.282,33.62L345.738,33.569C345.212,33.654 344.532,33.927 344.244,34.165C343.954,34.403 342.748,33.91 342.358,34.046C341.968,34.182 340.658,33.586 340.268,33.484C339.878,33.382 338.892,33.927 338.824,33.944C338.756,33.961 337.652,33.824 336.446,33.688L335.324,33.876L334.762,33.961C334.168,33.961 333.37,34.046 332.978,34.182C332.588,34.318 331.28,33.739 330.6,33.79C329.92,33.841 327.456,33.944 326.624,33.807L325.944,34.335L325.808,34.437C325.282,34.233 323.922,34.063 322.768,34.029C321.612,33.995 318.452,34.522 318.146,34.386C317.84,34.25 316.736,34.658 316.43,34.743C316.124,34.828 315.342,34.505 315.292,34.539C315.24,34.573 314.662,34.76 314.154,34.947L313.678,34.999L313.32,35.033C312.912,34.913 312.216,34.811 311.792,34.811L311.502,34.947L310.924,35.22C310.364,35.05 309.65,34.947 309.344,34.964C309.04,34.981 308.02,35.169 307.764,35.407C307.51,35.645 306.388,35.152 306.082,35.118C305.776,35.084 304.808,35.543 304.384,35.611C303.958,35.679 302.396,35.611 301.97,35.662C301.546,35.713 299.576,35.951 298.556,36.053C297.536,36.156 294.376,36.275 293.782,36.258C293.186,36.241 291.522,36.734 291.114,36.734C290.706,36.734 289.194,37.006 288.684,37.057C288.174,37.108 286.424,37.381 285.932,37.364C285.438,37.347 283.774,37.925 283.18,38.061C282.584,38.197 280.376,38.214 279.696,38.248C279.016,38.282 277.13,38.827 276.892,38.861C276.654,38.895 275.72,38.929 275.33,38.929C274.938,38.929 273.886,39.354 273.546,39.388C273.206,39.422 271.66,39.712 270.86,39.95C270.062,40.188 267.106,40.699 266.256,40.801C265.406,40.903 263.198,41.736 262.91,41.549C262.62,41.362 261.838,41.941 261.618,41.924C261.396,41.907 260.598,42.179 260.292,42.281C259.986,42.383 259.086,42.774 258.814,42.825C258.542,42.876 257.354,43.251 256.69,43.421C256.028,43.591 253.734,44.289 253.072,44.459C252.408,44.629 249.572,45.463 248.332,46.007L247.074,46.194L246.548,46.279C245.936,46.416 245.204,46.637 244.916,46.773C244.628,46.909 243.642,47.062 243.336,47.147C243.03,47.232 241.892,47.436 241.432,47.368C240.974,47.3 238.544,48.304 236.812,48.764L235.146,48.832C234.67,48.849 234.178,48.798 233.72,48.9C233.176,49.002 232.682,49.325 232.138,49.376L231.766,49.41C231.324,49.206 230.728,49.206 230.44,49.41C230.152,49.614 228.876,49.206 228.57,49.104C228.266,49.002 227.262,48.713 227.058,48.661C226.854,48.61 226.278,48.696 226.074,48.576C225.87,48.457 224.952,48.747 224.714,48.832C224.476,48.917 222.998,48.679 221.86,48.372L220.84,48.032L220.722,47.998C220.688,47.726 220.5,47.641 220.314,47.794C220.126,47.947 218.92,48.168 218.172,47.879C217.424,47.59 215.59,45.752 215.336,45.088L214.264,44.867L213.738,44.765C213.382,43.965 212.888,43.081 212.668,42.774C212.446,42.468 211.58,41.345 211.138,40.988C210.696,40.63 210.612,39.218 210.526,39.15C210.442,39.082 210.084,38.895 209.898,38.827C209.712,38.759 209.134,37.993 208.624,37.296L207.638,36.972C206.788,36.683 206.144,36.019 205.344,35.611C205.124,35.492 204.63,35.73 204.274,35.781C203.68,35.849 203.084,35.866 202.49,35.968L201.878,36.087C201.232,36.309 200.468,36.547 200.18,36.632C199.891,36.717 198.99,36.598 198.718,36.479C198.446,36.36 197.767,36.955 197.291,36.887L196.849,36.887C196.289,36.836 195.677,36.734 195.15,36.853L194.182,37.074C193.128,37.33 191.922,37.534 191.531,37.551C191.14,37.568 190.648,38.47 190.342,38.555C190.036,38.64 188.881,38.878 188.49,38.895C188.099,38.912 186.774,39.235 186.196,39.473C185.618,39.712 183.834,39.746 183.749,39.78C183.665,39.814 183.342,40.052 183.053,40.239C182.764,40.426 181.524,40.784 181.201,40.971C180.878,41.158 179.349,41.328 178.805,41.498C178.261,41.668 176.596,42.281 176.24,42.281C175.883,42.281 174.829,42.57 174.15,42.247L174.337,43.251C174.337,43.251 174.133,43.438 174.014,43.438L173.334,43.489C172.79,43.846 171.975,44.255 171.516,44.374C171.057,44.493 169.392,44.867 168.883,45.02C168.373,45.173 166.81,45.582 166.555,45.633C166.3,45.684 165.688,46.092 165.298,45.803C164.907,45.514 164.074,46.688 163.87,46.824L163.717,46.824C162.834,46.671 162.222,47.198 161.475,47.368L161.084,47.453C160.761,47.641 160.387,47.794 160.234,47.777C160.081,47.76 159.691,47.896 159.691,48.134C159.691,48.372 158.875,48.066 158.722,48.134C158.569,48.202 157.601,48.219 156.955,48.117L156.785,48.917L156.7,49.308C155.919,49.376 154.763,49.512 154.135,49.597C153.506,49.682 151.977,50.448 151.807,50.397C151.637,50.346 150.006,50.329 148.579,50.482L148.137,51.809L147.95,52.354C147.644,52.013 147.033,51.843 146.591,51.979C146.149,52.116 144.62,52.694 144.161,53.051L143.719,52.422C143.719,52.422 143.295,52.473 143.142,52.575L142.343,53.119C141.426,53.324 140.389,53.647 140.049,53.834C139.709,54.021 138.265,53.885 137.671,54.31L136.889,54.31C136.43,54.293 137.025,55.076 136.243,54.889L135.938,54.821C135.581,54.821 135.139,54.94 134.935,55.093C134.731,55.246 134.052,54.906 133.763,55.042C133.474,55.178 132.522,55.825 132.302,56.267L131.52,55.995L131.282,55.91C130.806,56.25 130.093,56.539 129.702,56.556L129.379,56.522L128.954,56.488C128.513,56.522 126.983,56.846 125.556,57.169L124.384,57.73C124.163,57.833 124.078,58.122 123.721,57.833L123.296,57.509C123.042,57.833 122.583,58.241 122.26,58.394L121.258,58.394C120.646,58.7 120.085,58.99 120.017,59.041C119.949,59.092 119.134,59.262 118.301,59.415L117.571,59.789L116.908,60.13C116.007,60.419 115.175,60.538 115.073,60.402C114.971,60.266 114.24,60.419 113.986,60.266C113.731,60.113 113.408,60.878 113.136,60.929L112.711,60.929C112.541,60.827 112.049,60.98 111.624,61.236L111.182,61.44C110.689,61.678 110.248,61.729 109.721,61.78L109.449,61.78C109.177,61.95 108.582,62.359 108.124,62.733C107.665,63.107 105.813,62.546 105.473,62.58C105.133,62.614 104.216,63.107 103.825,63.175C103.434,63.243 102.143,63.55 101.786,63.499C101.429,63.447 100.835,64.281 100.427,64.332C100.019,64.383 98.847,64.128 98.609,63.992C98.371,63.856 97.691,64.621 97.335,64.775C96.978,64.928 96.536,64.809 96.366,64.656C96.196,64.502 95.245,64.843 94.905,65.013C94.565,65.183 93.58,65.404 93.427,65.183C93.274,64.962 92.254,65.404 91.982,65.54L91.932,65.506C91.286,64.928 90.963,65.472 90.572,65.744L90.504,65.796C90.368,65.779 90.08,65.881 89.842,66.034C89.604,66.187 88.941,65.761 88.873,65.642C88.805,65.523 88.363,65.37 88.075,65.676C87.786,65.983 86.613,65.693 86.681,65.608C86.749,65.523 86.528,65.336 86.087,65.421C85.645,65.506 84.269,65.166 83.98,65.098C83.691,65.03 82.57,65.098 82.23,65.098C81.89,65.098 79.766,65.098 78.254,65.047C76.742,64.996 73.123,64.179 72.953,63.89C72.783,63.601 71.05,63.379 70.37,63.141L70.047,62.733L69.64,62.222C69.028,61.865 68.467,61.508 68.399,61.423C68.331,61.338 67.754,61.065 67.38,60.912C67.006,60.759 66.14,59.823 65.851,59.602C65.562,59.381 65.562,58.326 65.324,58.02C65.086,57.713 64.712,56.693 64.814,56.454C64.916,56.216 64.101,55.995 64.084,55.893L64.118,55.808C64.407,55.246 64.033,54.872 63.489,54.651L63.183,54.532C63.234,54.413 63.557,54.14 63.897,53.936L63.948,53.562L63.982,53.307C64.271,52.847 64.22,52.626 63.863,52.83C63.506,53.034 62.673,53.375 62.606,53.324C62.538,53.273 62.894,52.473 63.013,52.15C63.132,51.826 62.436,50.976 62.317,50.839C62.198,50.703 62.113,50.159 61.637,49.972L61.637,49.87L61.79,49.223C61.45,48.627 61.042,47.641 60.872,47.011C60.703,46.381 59.53,44.612 59.411,44.255L59.258,43.931L59.037,43.421C58.681,42.893 58.103,41.413 57.746,40.12L57.746,40.001C57.78,39.541 57.933,39.031 57.78,38.623L57.219,37.108C57.491,35.458 57.61,33.893 57.491,33.654L57.559,33.45L57.644,33.178C57.797,32.889 58.035,32.021 58.171,31.238L59.632,29.877L59.683,29.826C59.649,29.707 59.7,29.452 59.819,29.23C59.938,29.009 59.632,28.448 59.887,28.312C60.142,28.176 60.703,26.933 61.246,26.219L61.552,25.538C61.756,25.079 61.858,24.602 62.351,24.313L63.115,23.871C63.047,23.156 63.183,22.527 63.455,22.476C63.727,22.424 64.39,22.22 64.169,22.152C63.948,22.084 63.54,21.812 63.71,21.761C63.88,21.71 64.288,21.54 64.271,21.489C64.254,21.438 63.948,21.216 63.693,21.063C63.438,20.91 62.164,21.216 61.654,21.387C61.144,21.557 59.309,22.203 58.613,22.356C57.916,22.51 56.302,23.411 56.132,23.343L55.962,23.258L54.331,23.718C53.957,23.888 53.6,24.092 53.21,24.245L52.955,24.347C52.649,24.449 52.309,24.756 52.207,25.028L51.748,25.079L51.477,25.113C51.188,25.232 50.355,25.504 49.608,25.708C48.86,25.913 46.736,27.036 46.226,27.189L45.768,27.325L45.377,27.444C44.952,27.597 44.001,28.022 43.253,28.397C42.505,28.771 39.923,29.911 39.175,30.183C38.428,30.456 36.253,31.357 36.015,31.613C35.777,31.868 34.656,32.259 34.282,32.395C33.908,32.531 32.6,32.94 32.158,33.059C31.716,33.178 30.51,33.552 30.527,33.654C30.544,33.756 29.796,34.369 28.811,34.777C27.825,35.186 24.223,36.649 22.932,37.159L21.981,37.976C21.42,38.453 20.961,39.048 20.282,39.456L19.636,39.848C18.939,40.29 17.886,41.056 17.291,41.549C16.697,42.043 14.352,42.893 14.08,43.081C13.808,43.268 12.857,43.625 12.449,43.506L12.109,43.438L11.395,43.319C10.614,43.217 9.679,43.268 9.323,43.438C8.966,43.608 8.031,43.115 7.963,43.183C7.895,43.251 7.301,43.302 6.757,43.302L6.893,42.757C6.944,42.587 7.08,42.451 7.148,42.281C7.335,41.787 7.742,41.328 6.621,41.073C6.145,40.971 5.398,40.511 5.517,39.814C5.585,39.405 5.279,39.388 4.871,39.269L4.548,39.184C4.344,38.776 3.495,37.857 2.696,37.125L3.223,36.139C3.138,36.053 2.492,35.594 1.796,35.101L1.728,34.233L1.66,33.535C1.116,32.787 0.606,31.817 0.538,31.374C0.47,30.932 0.708,29.571 0.912,29.281L0.487,28.992C0.487,28.992 0.436,28.703 0.521,28.652L0.776,28.482C1.099,28.346 1.184,28.056 0.997,27.818L1.337,27.563C1.524,27.427 1.626,27.155 1.66,26.933C1.694,26.729 1.49,26.457 1.592,26.287C1.745,26.015 2.084,25.827 2.322,25.589L2.832,25.079C3.393,24.534 3.699,23.871 3.512,23.616C3.325,23.36 4.497,23.054 4.735,22.833C4.973,22.612 5.941,22.356 5.907,22.237C5.873,22.118 6.332,21.625 6.621,21.37C6.91,21.114 7.895,20.57 8.031,20.468C8.167,20.366 8.388,19.872 8.473,19.736C8.558,19.6 9.102,19.226 9.543,18.885C9.985,18.545 11.735,18.086 12.007,17.967C12.279,17.847 12.874,17.116 13.162,16.929C13.451,16.741 14.131,16.163 14.182,16.282C14.233,16.401 14.505,16.588 14.556,16.197C14.607,15.806 16.068,14.972 16.697,14.461L17.58,14.836C17.58,14.836 17.852,14.751 17.937,14.649C18.209,14.376 18.464,14.087 18.701,13.781C19.007,13.424 19.177,13.645 19.534,13.781C19.976,13.951 20.519,13.883 19.891,13.321C19.874,13.304 20.265,12.913 20.536,12.777C20.672,12.709 21.08,12.947 21.148,12.896L22.168,11.977C23.68,11.552 25.022,11.041 25.141,10.854L25.311,10.701L25.396,10.633C25.6,10.667 26.092,10.82 26.5,10.99L26.653,10.616L26.738,10.412C26.483,10.038 26.5,9.748 26.806,9.765C27.112,9.782 28.097,9.663 28.403,9.595C28.709,9.527 29.694,8.744 30.068,8.217L30.578,7.962L30.85,7.826C31.478,7.843 32.804,7.69 33.806,7.468L34.078,6.567C34.078,6.567 34.384,6.567 34.537,6.567C34.792,6.584 35.148,6.72 35.301,6.618L35.59,6.447C35.539,6.107 35.845,5.903 36.287,5.988L36.644,5.92C37.051,5.835 37.408,5.614 37.748,5.41L38.105,5.188C38.428,4.882 38.835,4.678 39.005,4.712C39.175,4.746 39.753,4.491 40.042,4.218L40.365,4.15L40.67,4.082C41.078,4.201 41.622,4.287 41.877,4.252L42.047,4.15L42.353,3.963C42.641,3.708 42.947,3.402 43.032,3.3C43.117,3.198 43.559,3.112 43.848,3.3L44.052,3.368L44.731,3.606C45.292,3.266 46.396,2.874 47.178,2.755L47.739,2.449L48.078,2.262C48.486,1.972 49.013,1.853 49.251,2.007C49.489,2.16 50.134,1.496 50.474,1.462C50.814,1.428 51.884,1.343 52.156,1.139C52.428,0.935 53.312,1.496 53.532,1.513C53.753,1.53 54.756,1.139 55.35,0.918L56.047,0.918C56.506,0.935 57.067,0.918 57.491,0.969C57.933,1.02 57.933,0.969 57.967,0.713L57.967,0.611C58.069,0.492 58.358,0.526 58.63,0.662C58.902,0.798 59.768,0.373 59.989,0.356C60.21,0.339 62.011,0.322 63.489,0.271C64.967,0.22 68.909,0.986 69.13,0.918C69.351,0.85 70.064,1.02 70.37,1.207L70.795,0.986C71.033,0.867 71.424,0.952 71.747,0.918C72.358,0.867 73.004,1.241 73.616,0.781L73.683,0.73C74.295,1.122 74.822,1.275 74.873,1.054C74.924,0.832 76.147,0.798 76.606,0.884C77.065,0.969 78.373,1.819 78.73,2.092C79.087,2.364 80.429,2.619 80.531,2.619C80.633,2.619 81.21,2.959 81.788,3.317C82.366,3.674 83.402,5.035 83.266,5.222C83.13,5.41 83.827,6.005 83.98,6.192C84.133,6.379 84.676,7.026 84.863,7.196C85.05,7.366 85.356,8.217 85.424,8.608C85.492,9 85.764,10.157 85.866,9.987C85.968,9.816 86.206,9.748 86.274,10.14C86.342,10.531 86.749,11.858 86.681,12.301C86.613,12.743 87.208,14.206 87.497,14.904C87.786,15.601 88.652,17.524 88.975,17.575C89.298,17.626 90.47,19.021 90.861,19.124C91.252,19.226 90.827,20.11 91.065,20.264C91.303,20.417 91.762,20.893 91.66,21.063C91.558,21.233 91.643,21.727 91.728,21.914C91.813,22.101 92.322,24.041 92.679,24.347L91.711,24.347C91.643,24.466 91.558,24.79 91.524,25.045C91.49,25.3 91.575,26.457 91.677,27.036L91.099,27.546C90.708,27.886 90.606,28.533 90.606,29.043L90.606,29.452C90.266,29.605 89.74,30.047 89.434,30.456L89.264,30.864L89.111,31.238C88.924,31.664 88.635,32.191 88.448,32.395C88.262,32.599 87.786,33.399 87.718,33.671C87.65,33.944 87.31,34.607 87.378,34.999C87.446,35.39 86.07,35.849 85.934,36.139C85.798,36.428 85.05,37.585 84.795,38.078C84.541,38.572 83.351,40.494 82.892,41.311L82.434,42.026C81.975,42.74 81.414,43.421 80.956,44.153L80.837,44.34C80.888,44.646 81.567,44.782 82.315,44.646C83.062,44.51 85.135,44.68 85.441,44.646L85.56,44.357L85.764,43.88C86.121,44.101 86.545,44.187 86.698,44.084C86.851,43.982 87.871,43.761 88.465,43.676C89.06,43.591 90.368,43.047 90.47,43.404C90.572,43.761 91.847,43.183 92.475,43.03C93.104,42.876 94.735,41.924 95.075,41.856C95.415,41.787 96.434,41.311 96.74,41.311C97.046,41.311 97.912,41.022 98.099,40.903C98.286,40.784 99,41.039 99.119,41.005C99.238,40.971 99.679,40.733 99.9,40.647C100.121,40.562 100.988,40.494 101.276,40.511C101.565,40.528 103.23,39.678 104.437,39.099L105.796,38.963L106.662,38.878C107.597,38.708 108.599,38.487 108.871,38.384L109.109,38.265L109.704,37.959C110.434,37.891 111.114,37.738 111.199,37.602C111.284,37.466 111.675,37.142 111.862,37.142C112.049,37.142 112.711,37.074 112.915,37.057C113.119,37.04 113.918,36.462 114.342,35.968L115.039,36.615C115.039,36.615 115.43,36.53 115.498,36.428L116.211,35.407L116.415,35.237Z" fill="#1B7FBD"/>
</g>
</svg>
