<svg width="26" height="26" viewBox="0 0 26 26" fill="none" xmlns="http://www.w3.org/2000/svg" xmlns:xlink="http://www.w3.org/1999/xlink">
<path d="M13,7.728C13.428,7.728 13.838,7.567 14.14,7.282C14.443,6.996 14.613,6.609 14.613,6.205C14.613,5.801 14.443,5.414 14.14,5.128C13.838,4.843 13.428,4.682 13,4.682C12.573,4.682 12.163,4.843 11.86,5.128C11.558,5.414 11.388,5.801 11.388,6.205C11.388,6.609 11.558,6.996 11.86,7.282C12.163,7.567 12.573,7.728 13,7.728ZM14.583,0.531C14.135,0.187 13.577,0 13,0C12.424,0 11.865,0.187 11.418,0.531L0.664,8.784C-0.643,9.791 0.109,11.788 1.795,11.788L2.251,11.788L2.251,20.315C0.974,20.93 0.101,22.183 0.101,23.631L0.101,24.985C0.101,25.254 0.214,25.512 0.415,25.703C0.617,25.893 0.89,26 1.176,26L24.825,26C25.11,26 25.384,25.893 25.585,25.703C25.787,25.512 25.9,25.254 25.9,24.985L25.9,23.631C25.9,22.185 25.027,20.93 23.75,20.315L23.75,11.788L24.206,11.788C25.891,11.788 26.644,9.789 25.335,8.784L14.585,0.529L14.583,0.531ZM12.777,2.106C12.841,2.057 12.92,2.031 13.002,2.031C13.085,2.031 13.164,2.057 13.228,2.106L23.193,9.758L2.805,9.758L12.777,2.104L12.777,2.106ZM21.6,19.909L19.45,19.909L19.45,11.788L21.6,11.788L21.6,19.909ZM17.3,19.909L14.075,19.909L14.075,11.788L17.3,11.788L17.3,19.909ZM11.925,19.909L8.7,19.909L8.7,11.788L11.925,11.788L11.925,19.909ZM21.959,21.94C22.948,21.94 23.75,22.697 23.75,23.631L23.75,23.97L2.251,23.97L2.251,23.631C2.251,22.697 3.052,21.94 4.041,21.94L21.959,21.94ZM6.55,19.909L4.401,19.909L4.401,11.788L6.55,11.788L6.55,19.909Z" fill="#1A7FBD"/>
</svg>
