<svg width="12" height="12" viewBox="0 0 12 12" fill="none" xmlns="http://www.w3.org/2000/svg" xmlns:xlink="http://www.w3.org/1999/xlink">
<path d="M8.5,9.814C8.5,10.642 9.172,11.314 10,11.314C10.828,11.314 11.5,10.642 11.5,9.814L8.5,9.814ZM2.499,0.143C1.67,0.143 0.999,0.814 0.999,1.643C0.999,2.471 1.67,3.143 2.499,3.143L2.499,0.143ZM11.5,9.814L11.5,7.322L8.5,7.322L8.5,9.814L11.5,9.814ZM11.5,7.322C11.5,3.359 8.283,0.143 4.32,0.143L4.32,3.143C6.626,3.143 8.5,5.016 8.5,7.322L11.5,7.322ZM4.32,0.143L2.499,0.143L2.499,3.143L4.32,3.143L4.32,0.143Z" fill="#1A7FBD"/>
</svg>
