<svg width="24" height="24" viewBox="0 0 24 24" fill="none" xmlns="http://www.w3.org/2000/svg" xmlns:xlink="http://www.w3.org/1999/xlink">
<path d="M10.99,18.618L11.688,17.291C11.473,17.177 11.233,17.118 10.99,17.118L10.99,18.618ZM15.979,21.243L15.281,22.57L15.286,22.573L15.979,21.243ZM17.898,19.842L19.377,19.589L19.377,19.588L17.898,19.842ZM16.944,14.282L15.897,13.208C15.543,13.552 15.382,14.049 15.466,14.536L16.944,14.282ZM20.979,10.351L19.933,9.276L19.933,9.276L20.979,10.351ZM20.243,8.089L20.028,9.574L20.031,9.574L20.243,8.089ZM14.662,7.28L13.316,7.942C13.534,8.386 13.957,8.693 14.447,8.764L14.662,7.28ZM12.172,2.218L13.518,1.556L13.517,1.553L12.172,2.218ZM9.797,2.218L8.452,1.553L8.451,1.556L9.797,2.218ZM7.307,7.28L7.522,8.764C8.012,8.693 8.435,8.386 8.653,7.942L7.307,7.28ZM1.726,8.089L1.938,9.574L1.941,9.574L1.726,8.089ZM0.99,10.351L-0.064,11.418L-0.057,11.425L0.99,10.351ZM5.025,14.282L6.503,14.536C6.587,14.049 6.425,13.552 6.072,13.208L5.025,14.282ZM4.071,19.842L5.549,20.098L5.549,20.096L4.071,19.842ZM5.99,21.243L5.291,19.915L5.29,19.916L5.99,21.243ZM10.979,18.618L10.979,17.118C10.736,17.118 10.496,17.177 10.281,17.291L10.979,18.618ZM10.291,19.946L15.281,22.57L16.678,19.915L11.688,17.291L10.291,19.946ZM15.286,22.573C17.358,23.653 19.774,21.905 19.377,19.589L16.42,20.096C16.396,19.958 16.551,19.849 16.673,19.912L15.286,22.573ZM19.377,19.588L18.422,14.028L15.466,14.536L16.42,20.096L19.377,19.588ZM17.991,15.356L22.026,11.425L19.933,9.276L15.897,13.208L17.991,15.356ZM22.026,11.425C23.705,9.79 22.778,6.936 20.455,6.604L20.031,9.574C20.01,9.571 19.973,9.558 19.939,9.528C19.91,9.502 19.896,9.476 19.889,9.455C19.882,9.434 19.878,9.404 19.886,9.366C19.896,9.323 19.918,9.29 19.933,9.276L22.026,11.425ZM20.458,6.605L14.877,5.795L14.447,8.764L20.028,9.574L20.458,6.605ZM16.008,6.618L13.518,1.556L10.826,2.88L13.316,7.942L16.008,6.618ZM13.517,1.553C12.478,-0.546 9.49,-0.546 8.452,1.553L11.141,2.883C11.133,2.9 11.109,2.93 11.071,2.953C11.038,2.973 11.007,2.979 10.984,2.979C10.961,2.979 10.931,2.973 10.898,2.953C10.86,2.93 10.836,2.9 10.828,2.883L13.517,1.553ZM8.451,1.556L5.961,6.618L8.653,7.942L11.143,2.88L8.451,1.556ZM7.092,5.795L1.511,6.605L1.941,9.574L7.522,8.764L7.092,5.795ZM1.514,6.604C-0.831,6.939 -1.705,9.799 -0.064,11.418L2.043,9.283C2.058,9.297 2.079,9.329 2.087,9.369C2.095,9.404 2.092,9.431 2.085,9.451C2.079,9.471 2.064,9.499 2.034,9.526C1.998,9.557 1.959,9.571 1.938,9.574L1.514,6.604ZM-0.057,11.425L3.978,15.356L6.072,13.208L2.036,9.276L-0.057,11.425ZM3.547,14.028L2.592,19.588L5.549,20.096L6.503,14.536L3.547,14.028ZM2.592,19.586C2.194,21.887 4.618,23.661 6.689,22.57L5.29,19.916C5.314,19.903 5.356,19.893 5.401,19.897C5.44,19.901 5.466,19.914 5.482,19.925C5.498,19.937 5.518,19.958 5.533,19.992C5.55,20.033 5.553,20.074 5.549,20.098L2.592,19.586ZM6.688,22.57L11.678,19.946L10.281,17.291L5.291,19.915L6.688,22.57ZM10.979,20.118L10.99,20.118L10.99,17.118L10.979,17.118L10.979,20.118Z" fill="#1A7FBD"/>
</svg>
