<svg width="412" height="60" viewBox="0 0 412 60" fill="none" xmlns="http://www.w3.org/2000/svg" xmlns:xlink="http://www.w3.org/1999/xlink">
<path d="M105.639,31.887C106.707,31.98 107.296,32.43 106.94,32.88L107.76,33.206L107.977,33.299C108.24,33.345 108.519,33.206 108.581,32.988L108.503,32.833L108.41,32.647C108.488,32.507 108.704,32.29 108.89,32.166L109.061,32.042L109.835,31.623L110.16,31.204C110.376,31.468 110.624,31.561 110.701,31.421C110.779,31.282 111.119,31.033 111.429,30.863C111.739,30.692 112.699,30.94 112.776,30.832C112.853,30.723 113.442,30.754 113.519,30.552L113.798,30.459L113.86,30.459C113.86,30.459 114.742,30.087 115.671,29.746L116.646,29.901L116.739,29.901C116.847,29.932 117.049,29.823 117.188,29.684C117.327,29.544 117.977,29.265 118.21,29.311C118.442,29.358 119.402,28.939 119.851,28.815L120.269,28.753L120.408,28.753C120.578,28.83 120.903,28.768 121.12,28.613C121.337,28.458 122.111,27.946 122.359,27.884C122.606,27.822 123.736,27.48 124.34,27.31L124.959,27.263L125.439,27.232C125.935,26.953 126.585,26.534 126.863,26.286C127.142,26.037 128.365,26.487 128.69,26.425L128.907,26.27C129.124,26.099 129.201,25.82 129.402,25.634L129.449,25.587C129.727,25.712 130.378,25.65 130.919,25.463C131.461,25.277 132.855,24.719 133.04,24.874C133.226,25.029 134.217,24.563 134.619,24.408L134.852,24.176L135.455,23.586C136.075,23.896 136.632,24.051 136.694,23.943L136.694,23.834L136.787,23.539C137.112,23.508 137.545,23.384 137.746,23.245C137.948,23.105 138.753,22.748 139.047,22.5C139.341,22.252 140.301,22.764 140.378,22.702C140.456,22.639 141.09,22.345 141.601,22.127C142.112,21.91 143.459,21.29 143.49,21.259C143.521,21.228 144.047,21.166 144.635,21.119C145.224,21.072 146.741,20.529 146.865,20.591C146.988,20.654 147.639,20.421 148.227,20.157C148.815,19.893 150.58,19.754 150.657,19.738C150.735,19.723 150.936,19.567 150.766,19.505C150.596,19.443 150.565,19.071 150.998,18.776C151.431,18.481 152.871,18.962 152.949,18.916C153.026,18.869 153.506,18.667 153.831,18.528C154.156,18.388 155.271,18.264 155.426,18.109L155.58,17.985C155.704,17.876 155.874,17.737 156.014,17.737L156.416,17.737C156.865,17.845 157.469,17.659 157.779,17.349L158.104,17.24L158.553,17.085C159.141,17.116 159.992,17.225 160.457,17.318C160.921,17.411 162.392,16.573 162.965,16.278C163.537,15.983 165.658,16.294 166.2,16.402L166.665,16.045C166.897,15.875 167.206,15.735 167.516,15.689L167.98,15.611C168.445,15.797 169.157,15.782 169.544,15.564L169.962,15.425C170.101,15.378 170.38,15.673 170.581,15.657L171.231,15.626C171.928,15.487 172.733,15.316 173.012,15.27C173.29,15.223 174.142,15.533 174.498,15.425C174.854,15.316 176.154,15.611 176.51,15.626L176.835,15.595L176.99,15.595C177.145,15.502 177.671,15.471 178.182,15.487C178.693,15.502 180.597,16.107 181.526,16.216C182.455,16.325 185.845,16.418 186.991,16.402L187.734,17.163C188.059,17.488 188.384,17.519 188.771,17.209L188.818,17.178C189.112,17.333 189.452,17.504 189.592,17.55C189.731,17.597 190.118,17.55 190.366,17.519C190.613,17.488 191.14,17.907 191.387,18.093C191.635,18.28 192.641,19.055 193.137,19.335C193.632,19.614 194.886,21.243 195.366,22.05L196.078,22.639L196.125,22.686C196.016,22.857 196.171,23.384 196.45,23.865C196.728,24.346 197.378,25.727 197.425,25.82C197.471,25.913 197.642,26.596 197.781,27.108L197.951,27.558C198.06,27.868 198.849,27.868 198.509,28.411L198.168,28.954C198.741,29.11 199.314,29.373 199.437,29.544C199.561,29.715 200.088,30.521 200.304,30.956L200.66,31.08L201.28,31.297C202.038,31.406 203.044,31.514 203.524,31.545C204.004,31.576 205.584,31.53 205.986,31.608L206.372,31.67L206.698,31.716C207.054,31.732 207.658,31.654 208.044,31.53C208.432,31.406 210.32,31.468 210.6,31.235L211.018,31.654C211.296,31.933 211.312,31.468 211.312,31.328C211.312,30.801 211.466,30.552 212.148,30.909L212.256,30.971C212.442,30.956 212.642,30.692 212.736,30.382L213.216,30.708L213.34,30.801C213.772,30.63 214.238,30.568 214.346,30.661C214.454,30.754 214.888,31.018 214.996,30.987L215.088,30.956C215.986,30.661 216.9,30.382 217.782,30.087L218.324,29.901C218.896,29.668 219.64,29.342 219.98,29.156L220.46,29.358L220.8,29.497C221.126,29.141 221.528,28.877 221.698,28.892L221.838,28.892L222.054,28.939C222.984,28.784 223.804,28.613 223.898,28.551C223.99,28.489 224.438,28.582 224.718,28.846C224.996,29.11 225.802,28.303 226.096,28.303C226.39,28.303 227.118,27.837 227.318,27.853C227.52,27.868 228.17,27.667 228.294,27.434C228.418,27.201 229.146,27.573 229.206,27.48C229.268,27.387 229.95,26.999 230.46,27.015L231.002,27.015L231.266,26.984C231.544,26.922 232.18,26.565 232.674,26.193L233.372,26.317L233.898,26.41C234.47,26.332 235.152,26.193 235.414,26.099C235.678,26.006 236.468,25.587 236.792,25.525L237.148,25.603C237.97,25.789 238.572,25.541 239.812,24.781L239.904,24.719C240.09,24.765 240.848,24.719 241.592,24.625L242.026,24.346L242.148,24.269C242.382,24.269 242.536,24.408 242.49,24.532L242.458,24.657L242.396,24.951C242.49,25.324 242.784,25.293 243.032,24.874L243.388,24.61L243.744,24.331C244.286,24.145 244.594,24.145 244.44,24.331C244.286,24.517 244.75,24.967 245.648,24.75C246.546,24.532 248.728,24.331 248.404,24.222C248.078,24.113 246.994,24.129 246.732,24.315L246.452,24.424L246.252,24.501C245.972,24.486 245.74,24.362 245.756,24.253C245.772,24.145 246.19,23.741 246.56,23.555C246.932,23.369 248.294,23.384 248.388,23.338C248.48,23.291 248.774,23.058 248.884,23.198C248.992,23.338 249.952,23.369 250.85,23.074L251.406,22.764C251.824,22.531 252.01,22.531 252.46,22.748C253.048,23.027 253.744,23.043 254.302,22.515L254.488,22.345C254.858,22.267 255.446,22.236 255.772,22.252C256.098,22.267 257.304,22.081 257.784,22.329L258.28,21.988L258.698,21.709L259.798,21.522C259.798,21.522 260.4,21.522 260.99,21.522C261.578,21.522 263.25,21.429 263.388,21.336C263.528,21.243 264.332,21.197 264.812,21.507C265.292,21.817 267.104,21.197 267.414,21.166L267.676,21.212C267.97,21.274 268.326,21.538 268.512,21.46C268.744,21.367 268.792,20.995 268.992,20.809L269.148,20.669C269.426,20.607 269.814,20.622 269.984,20.7C270.154,20.778 270.664,20.731 270.788,20.622C270.912,20.514 271.438,20.343 271.594,20.421L271.748,20.421C272.212,20.467 272.8,20.607 273.126,20.421C273.652,20.157 274.054,19.971 274.582,20.343L274.658,20.39C274.782,20.39 275.062,20.25 275.294,20.048C275.526,19.847 276.842,20.126 277.212,20.141C277.584,20.157 278.56,19.94 278.606,19.66C278.652,19.381 279.706,19.707 280.014,19.893C280.324,20.079 281.888,20.048 282.12,20.173C282.352,20.297 282.926,19.878 283.126,19.955C283.328,20.033 284.01,20.002 284.242,19.8C284.474,19.598 285.418,19.257 285.944,19.428L286.238,19.614L287.168,20.235C286.842,19.66 286.95,19.35 287.4,19.567C287.848,19.785 289.272,19.955 289.412,20.048C289.552,20.141 290.032,20.359 290.124,20.235C290.216,20.11 290.774,19.35 291.1,18.869L291.904,19.412C292.368,19.723 293.252,19.319 293.778,19.831L293.87,19.909C294.148,19.862 294.644,19.692 294.97,19.521C295.294,19.35 296.316,19.381 296.904,19.443L297.43,19.49L297.74,19.521C298.096,19.428 298.716,19.319 299.102,19.257C299.49,19.195 301.394,19.412 301.704,19.366C302.014,19.319 302.912,19.257 302.958,19.366C303.004,19.474 303.438,19.816 303.762,19.8C304.088,19.785 304.35,19.009 304.444,18.993C304.536,18.978 305.418,19.164 306.27,19.335L307.014,19.164L307.214,19.117C307.416,19.055 308.036,19.102 308.592,19.211C309.15,19.319 310.914,19.288 311.502,19.583L312.044,19.148C312.416,18.854 312.602,18.652 312.694,19.304C312.742,19.614 313.19,19.552 313.5,19.335L313.794,19.148C314.228,19.148 314.878,19.024 315.25,18.916L315.62,18.854L315.714,18.854C315.868,18.993 316.116,19.226 316.286,19.35C316.456,19.474 317.324,19.474 317.85,19.474L317.928,19.412L318.438,19.009C318.826,19.273 319.352,19.428 319.6,19.366L319.832,19.273L320.188,19.148C321.1,19.071 322.232,18.931 322.696,18.807C323.16,18.683 324.754,18.962 325.266,19.086L325.684,18.823L326.086,18.574C326.488,18.699 327.34,18.761 327.974,18.73C328.61,18.699 330.282,18.854 330.514,18.699L330.714,18.605L330.776,18.574C330.776,18.574 330.946,18.559 330.994,18.667C331.04,18.776 331.474,18.947 331.782,18.636C332.092,18.326 333.78,18.699 334.26,18.621C334.74,18.543 335.9,19.133 335.932,19.117C335.962,19.102 336.38,18.931 336.814,18.792C337.248,18.652 339.926,18.761 340.312,18.792L340.638,18.699L340.746,18.667C340.808,18.342 340.978,18.202 341.118,18.373C341.256,18.543 341.876,18.745 342.108,18.761C342.34,18.776 343.224,18.481 343.734,18.295C344.244,18.109 345.87,18.342 346.118,18.419C346.366,18.497 347.496,18.373 347.944,18.481L348.348,18.481L348.532,18.45C348.718,18.124 349.074,18 349.322,18.171C349.57,18.342 350.282,18.326 350.484,18.171C350.684,18.016 351.706,18.14 352.202,17.83L352.62,18.435C352.62,18.435 353.162,18.326 353.658,18.249C354.152,18.171 355.314,18.016 355.592,17.954C355.87,17.892 356.8,17.985 357.094,18.187C357.388,18.388 358.44,17.907 358.812,18.016C359.184,18.124 360.516,17.845 360.778,17.845C361.042,17.845 361.908,18.093 362.218,18.187L362.544,17.985C362.698,17.876 363.022,17.861 363.24,17.923L363.688,18.031C364.168,18.202 364.958,18.311 365.468,18.249L365.918,18.155L366.584,18.016C367.296,18.093 368.518,18.047 369.278,17.923L369.82,18.466L370.902,18.047L370.98,17.985C371.072,17.923 371.832,17.923 372.698,17.985C373.566,18.047 375.81,18.574 375.98,18.605C376.15,18.636 377.048,18.373 377.56,18.171C378.07,17.969 379.51,18.466 379.572,18.481C379.634,18.497 380.362,18.574 381.028,18.636C381.692,18.699 383.412,19.428 383.442,19.335C383.474,19.242 383.52,18.885 383.582,18.73C383.644,18.574 384.418,18.776 384.836,18.73C385.254,18.683 386.368,18.776 386.26,19.148C386.152,19.521 387.932,19.676 387.886,19.536C387.838,19.397 387.886,18.931 388.102,18.869C388.318,18.807 388.954,18.962 389.31,19.086C389.666,19.211 390.966,19.04 391.244,19.102C391.524,19.164 392.514,19.397 392.778,19.459C393.04,19.521 393.846,19.35 394.092,19.195C394.34,19.04 395.146,19.505 395.346,19.505C395.548,19.505 396.244,19.412 396.508,19.443C396.772,19.474 397.592,19.769 397.916,19.847L398.242,19.676L398.35,19.614C398.676,19.831 398.582,20.235 398.148,20.498L399.108,20.529C399.574,20.545 399.96,20.529 399.852,20.017L399.79,19.676C400.13,19.567 400.828,19.598 401.338,19.738L401.508,20.079C401.678,20.421 401.338,20.545 400.92,20.545L400.874,20.545C400.828,20.855 401.028,21.119 401.354,21.15L401.478,21.041C401.786,20.793 401.942,20.39 402.282,20.188L402.608,20.002C403.15,19.955 403.598,20.079 403.614,20.297C403.63,20.514 404.032,21.243 404.466,21.46C404.898,21.678 406.198,21.197 406.246,21.197C406.292,21.197 406.818,21.305 407.36,21.445C407.902,21.584 409.28,21.398 409.11,21.507C408.94,21.615 408.676,22.252 408.644,22.624L408.644,23.353C408.644,23.788 408.892,24.238 409.186,24.346C409.48,24.455 410.24,25.044 410.224,25.401C410.208,25.758 409.078,26.131 409.078,25.882C409.078,25.634 408.94,24.874 408.768,25.029C408.598,25.184 408.274,25.743 408.288,26.053C408.304,26.363 409.202,26.953 409.59,26.829C409.976,26.705 411.076,26.565 410.92,26.829C410.766,27.092 410.874,27.651 410.952,27.853C411.028,28.054 411.276,28.768 411.386,29.001L411.54,29.001C412.05,29.094 412.082,29.342 411.896,29.606L411.71,29.854C411.168,29.622 410.704,29.373 410.672,29.311C410.642,29.249 410.41,29.016 410.364,29.249C410.316,29.482 410.008,30.087 409.806,29.808C409.604,29.528 409.496,29.094 409.466,28.939C409.434,28.784 409.048,28.442 408.892,28.613C408.738,28.784 408.46,29.28 408.212,29.389C407.964,29.497 407.066,30.103 406.37,30.196L405.688,30.087L405.022,29.978C404.248,30.009 403.52,29.978 403.412,29.87C403.304,29.761 402.808,29.559 402.608,29.668C402.406,29.777 401.694,30.165 401.554,30.304C401.416,30.444 400.642,30.242 400.348,30.397C400.054,30.552 398.862,30.258 398.552,30.444C398.242,30.63 397.096,30.025 396.71,29.947C396.322,29.87 395.038,30.242 394.51,30.087L393.984,30.087L393.614,30.056C393.196,30.056 392.746,30.056 392.638,30.056C392.53,30.056 391.198,30.118 389.928,30.149C388.66,30.18 384.96,30.335 384.542,30.258C384.124,30.18 382.296,30.366 381.568,30.366L380.95,30.196L380.548,30.087C380.284,30.211 379.788,30.397 379.464,30.506L379.294,30.428L378.148,29.839C376.8,29.994 375.314,30.071 374.85,29.994C374.386,29.916 372.684,30.071 372.188,30.071C371.692,30.071 369.958,30.103 369.432,30.071C368.906,30.04 367.636,29.839 367.466,30.351L366.722,30.071L366.166,29.87C365.592,29.978 364.71,29.978 364.184,29.87L363.766,29.978L363.27,30.103C362.822,29.994 362.264,30.025 362.016,30.18C361.77,30.335 360.686,29.668 360.112,29.466C359.54,29.265 357.698,30.071 357.14,30.071C356.582,30.071 354.972,30.04 354.71,29.87C354.446,29.699 353.27,30.04 352.944,30.087C352.62,30.134 351.552,30.165 351.304,30.242C351.056,30.32 350.05,30.242 349.724,30.227C349.4,30.211 348.27,30.149 347.96,30.227C347.65,30.304 346.892,29.901 346.846,29.901C346.8,29.901 345.73,30.118 344.586,30.382C343.44,30.646 341.226,30.428 340.932,30.428C340.638,30.428 339.306,30.506 338.578,30.599C337.852,30.692 335.126,30.18 334.012,30.118C332.898,30.056 329.986,30.739 329.864,30.723C329.74,30.708 328.61,30.475 327.65,30.289L326.86,30.708C326.488,30.894 326.288,30.227 325.93,30.708L325.698,31.018C325.358,30.785 323.532,30.521 321.628,30.444L319.924,30.568L319.49,30.599C319.072,30.568 318.222,30.459 317.586,30.382L317.402,30.583C316.984,31.018 316.782,30.351 316.456,30.583C315.976,30.925 315.544,30.459 315.078,30.413L314.584,30.366C314.104,30.444 313.484,30.692 313.222,30.909C312.958,31.127 311.858,30.677 311.502,30.801C311.146,30.925 309.954,30.382 309.598,30.289C309.242,30.196 308.344,30.692 308.282,30.708C308.22,30.723 307.214,30.599 306.116,30.475L305.094,30.646L304.582,30.723C304.042,30.723 303.314,30.801 302.958,30.925C302.602,31.049 301.41,30.521 300.79,30.568C300.17,30.615 297.926,30.708 297.168,30.583L296.548,31.064L296.424,31.158C295.944,30.971 294.706,30.816 293.654,30.785C292.6,30.754 289.722,31.235 289.442,31.111C289.164,30.987 288.158,31.359 287.88,31.437C287.6,31.514 286.888,31.22 286.842,31.251C286.796,31.282 286.27,31.452 285.804,31.623L285.372,31.67L285.046,31.701C284.674,31.592 284.04,31.499 283.652,31.499L283.39,31.623L282.864,31.871C282.352,31.716 281.702,31.623 281.424,31.639C281.146,31.654 280.216,31.825 279.984,32.042C279.752,32.259 278.73,31.809 278.452,31.778C278.172,31.747 277.29,32.166 276.904,32.228C276.516,32.29 275.092,32.228 274.706,32.275C274.318,32.321 272.522,32.538 271.594,32.632C270.664,32.725 267.786,32.833 267.244,32.818C266.702,32.802 265.184,33.252 264.812,33.252C264.442,33.252 263.064,33.5 262.6,33.547C262.134,33.594 260.54,33.842 260.092,33.826C259.642,33.811 258.126,34.338 257.584,34.462C257.042,34.587 255.028,34.602 254.41,34.633C253.79,34.664 252.072,35.161 251.856,35.192C251.638,35.223 250.788,35.254 250.432,35.254C250.076,35.254 249.116,35.642 248.806,35.673C248.496,35.704 247.088,35.967 246.36,36.185C245.632,36.402 242.938,36.867 242.164,36.96C241.39,37.053 239.378,37.814 239.114,37.643C238.852,37.472 238.14,38 237.938,37.984C237.736,37.969 237.01,38.217 236.73,38.31C236.452,38.403 235.632,38.76 235.384,38.807C235.136,38.853 234.052,39.195 233.448,39.35C232.844,39.505 230.756,40.141 230.152,40.296C229.548,40.451 226.962,41.212 225.832,41.708L224.686,41.879L224.206,41.956C223.65,42.081 222.984,42.282 222.72,42.406C222.458,42.531 221.56,42.67 221.28,42.748C221.002,42.825 219.964,43.011 219.546,42.949C219.128,42.887 216.916,43.803 215.336,44.222L213.82,44.284C213.386,44.299 212.936,44.253 212.518,44.346C212.024,44.439 211.574,44.734 211.078,44.78L210.738,44.811C210.336,44.625 209.794,44.625 209.53,44.811C209.268,44.997 208.106,44.625 207.828,44.532C207.55,44.439 206.636,44.175 206.45,44.129C206.264,44.082 205.738,44.16 205.552,44.051C205.366,43.942 204.53,44.206 204.314,44.284C204.098,44.361 202.75,44.144 201.714,43.865L200.784,43.555L200.676,43.524C200.644,43.275 200.474,43.198 200.304,43.337C200.134,43.477 199.035,43.679 198.354,43.415C197.673,43.151 196.001,41.475 195.768,40.87L194.793,40.669L194.313,40.576C193.988,39.846 193.539,39.039 193.338,38.76C193.137,38.481 192.347,37.457 191.945,37.131C191.542,36.805 191.465,35.517 191.387,35.455C191.31,35.393 190.985,35.223 190.815,35.161C190.644,35.099 190.118,34.4 189.654,33.764L188.756,33.469C187.982,33.206 187.393,32.601 186.666,32.228C186.465,32.12 186.016,32.337 185.69,32.383C185.149,32.445 184.607,32.461 184.065,32.554L183.508,32.663C182.919,32.864 182.223,33.082 181.96,33.159C181.696,33.237 180.876,33.128 180.628,33.019C180.381,32.911 179.761,33.454 179.328,33.392L178.925,33.392C178.415,33.345 177.857,33.252 177.377,33.361L176.495,33.562C175.535,33.795 174.436,33.981 174.08,33.997C173.724,34.012 173.275,34.835 172.996,34.912C172.718,34.99 171.665,35.207 171.309,35.223C170.953,35.238 169.745,35.533 169.219,35.75C168.693,35.967 167.067,35.998 166.99,36.029C166.912,36.061 166.618,36.278 166.355,36.448C166.092,36.619 164.962,36.945 164.668,37.116C164.373,37.286 162.98,37.441 162.485,37.597C161.989,37.752 160.472,38.31 160.147,38.31C159.822,38.31 158.862,38.574 158.243,38.279L158.413,39.195C158.413,39.195 158.228,39.365 158.119,39.365L157.5,39.412C157.005,39.738 156.261,40.11 155.843,40.219C155.426,40.327 153.908,40.669 153.444,40.808C152.98,40.948 151.555,41.32 151.323,41.367C151.091,41.413 150.534,41.786 150.178,41.522C149.821,41.258 149.063,42.329 148.877,42.453L148.738,42.453C147.933,42.313 147.376,42.794 146.694,42.949L146.338,43.027C146.044,43.198 145.704,43.337 145.564,43.322C145.425,43.306 145.069,43.43 145.069,43.648C145.069,43.865 144.326,43.586 144.186,43.648C144.047,43.71 143.165,43.725 142.576,43.632L142.422,44.361L142.344,44.718C141.632,44.78 140.579,44.904 140.007,44.982C139.434,45.06 138.041,45.758 137.886,45.711C137.731,45.665 136.245,45.649 134.944,45.789L134.542,46.999L134.372,47.496C134.093,47.185 133.536,47.03 133.133,47.154C132.731,47.278 131.337,47.806 130.919,48.132L130.517,47.558C130.517,47.558 130.13,47.604 129.991,47.697L129.263,48.194C128.427,48.38 127.483,48.675 127.173,48.845C126.863,49.016 125.548,48.892 125.006,49.28L124.294,49.28C123.876,49.264 124.417,49.978 123.705,49.807L123.427,49.745C123.102,49.745 122.699,49.854 122.513,49.994C122.328,50.133 121.708,49.823 121.445,49.947C121.182,50.071 120.315,50.661 120.114,51.064L119.402,50.816L119.185,50.738C118.752,51.049 118.101,51.312 117.745,51.328L117.451,51.297L117.064,51.266C116.662,51.297 115.268,51.592 113.968,51.886L112.9,52.398C112.699,52.492 112.621,52.755 112.296,52.492L111.909,52.197C111.677,52.492 111.259,52.864 110.965,53.004L110.051,53.004C109.494,53.283 108.983,53.547 108.921,53.593C108.859,53.64 108.116,53.795 107.358,53.934L106.692,54.276L106.088,54.586C105.268,54.85 104.509,54.959 104.416,54.834C104.323,54.71 103.658,54.85 103.426,54.71C103.193,54.571 102.899,55.269 102.651,55.315L102.264,55.315C102.11,55.222 101.661,55.362 101.274,55.595L100.871,55.781C100.422,55.998 100.02,56.045 99.54,56.091L99.292,56.091C99.044,56.246 98.503,56.619 98.085,56.96C97.667,57.301 95.979,56.789 95.67,56.82C95.36,56.851 94.524,57.301 94.168,57.363C93.812,57.425 92.635,57.705 92.31,57.658C91.985,57.612 91.443,58.372 91.072,58.418C90.7,58.465 89.632,58.232 89.415,58.108C89.199,57.984 88.579,58.682 88.254,58.822C87.929,58.962 87.527,58.853 87.372,58.713C87.217,58.574 86.35,58.884 86.041,59.039C85.731,59.194 84.833,59.396 84.694,59.194C84.554,58.993 83.626,59.396 83.378,59.52L83.331,59.489C82.743,58.962 82.449,59.458 82.093,59.706L82.031,59.753C81.907,59.737 81.644,59.83 81.427,59.97C81.211,60.11 80.607,59.722 80.545,59.613C80.483,59.505 80.08,59.365 79.817,59.644C79.554,59.924 78.486,59.66 78.548,59.582C78.61,59.505 78.409,59.334 78.006,59.411C77.604,59.489 76.35,59.179 76.086,59.117C75.823,59.055 74.802,59.117 74.492,59.117C74.182,59.117 72.247,59.117 70.869,59.07C69.492,59.024 66.194,58.279 66.039,58.015C65.885,57.751 64.306,57.55 63.686,57.332L63.392,56.96L63.021,56.495C62.463,56.169 61.952,55.843 61.891,55.765C61.829,55.688 61.302,55.439 60.962,55.3C60.621,55.16 59.832,54.307 59.568,54.105C59.305,53.903 59.305,52.941 59.089,52.662C58.872,52.383 58.531,51.452 58.624,51.235C58.717,51.018 57.974,50.816 57.958,50.723L57.989,50.645C58.253,50.133 57.912,49.792 57.417,49.59L57.138,49.481C57.184,49.373 57.479,49.125 57.788,48.938L57.835,48.597L57.866,48.364C58.129,47.945 58.082,47.744 57.757,47.93C57.432,48.116 56.674,48.426 56.612,48.38C56.55,48.333 56.875,47.604 56.983,47.309C57.092,47.015 56.457,46.239 56.348,46.115C56.24,45.99 56.163,45.494 55.729,45.323L55.729,45.23L55.869,44.641C55.559,44.098 55.187,43.198 55.033,42.624C54.878,42.05 53.81,40.436 53.701,40.11L53.562,39.815L53.361,39.35C53.036,38.869 52.509,37.519 52.184,36.34L52.184,36.231C52.215,35.812 52.354,35.347 52.215,34.974L51.704,33.594C51.952,32.089 52.06,30.661 51.952,30.444L52.014,30.258L52.091,30.009C52.231,29.746 52.447,28.954 52.571,28.241L53.902,26.999L53.949,26.953C53.918,26.844 53.964,26.611 54.073,26.41C54.181,26.208 53.902,25.696 54.135,25.572C54.367,25.448 54.878,24.315 55.373,23.664L55.652,23.043C55.838,22.624 55.93,22.19 56.379,21.926L57.076,21.522C57.014,20.871 57.138,20.297 57.386,20.25C57.633,20.204 58.237,20.017 58.036,19.955C57.835,19.893 57.463,19.645 57.618,19.598C57.773,19.552 58.144,19.397 58.129,19.35C58.113,19.304 57.835,19.102 57.602,18.962C57.37,18.823 56.209,19.102 55.745,19.257C55.28,19.412 53.608,20.002 52.974,20.141C52.339,20.281 50.868,21.103 50.713,21.041L50.559,20.964L49.072,21.383C48.732,21.538 48.407,21.724 48.051,21.864L47.819,21.957C47.54,22.05 47.23,22.329 47.137,22.577L46.719,22.624L46.472,22.655C46.209,22.764 45.45,23.012 44.769,23.198C44.088,23.384 42.153,24.408 41.688,24.548L41.27,24.672L40.914,24.781C40.527,24.92 39.66,25.308 38.979,25.65C38.298,25.991 35.945,27.03 35.264,27.279C34.582,27.527 32.601,28.349 32.384,28.582C32.167,28.815 31.146,29.172 30.805,29.296C30.465,29.42 29.273,29.792 28.87,29.901C28.468,30.009 27.368,30.351 27.384,30.444C27.399,30.537 26.718,31.096 25.82,31.468C24.922,31.84 21.64,33.175 20.464,33.64L19.597,34.385C19.086,34.819 18.668,35.362 18.049,35.735L17.461,36.092C16.826,36.495 15.866,37.193 15.324,37.643C14.783,38.093 12.646,38.869 12.398,39.039C12.151,39.21 11.284,39.536 10.912,39.427L10.603,39.365L9.952,39.257C9.24,39.164 8.389,39.21 8.064,39.365C7.739,39.52 6.887,39.071 6.825,39.133C6.763,39.195 6.222,39.241 5.726,39.241L5.85,38.745C5.897,38.59 6.02,38.465 6.082,38.31C6.253,37.86 6.624,37.441 5.602,37.209C5.169,37.116 4.488,36.697 4.596,36.061C4.658,35.688 4.379,35.673 4.008,35.564L3.714,35.486C3.528,35.114 2.754,34.276 2.026,33.609L2.506,32.709C2.429,32.632 1.841,32.213 1.206,31.763L1.144,30.971L1.082,30.335C0.587,29.653 0.122,28.768 0.06,28.365C-0.002,27.961 0.215,26.72 0.401,26.456L0.014,26.193C0.014,26.193 -0.033,25.929 0.045,25.882L0.277,25.727C0.571,25.603 0.649,25.339 0.478,25.122L0.788,24.889C0.958,24.765 1.051,24.517 1.082,24.315C1.113,24.129 0.927,23.881 1.02,23.726C1.159,23.477 1.469,23.307 1.686,23.089L2.15,22.624C2.661,22.127 2.94,21.522 2.769,21.29C2.599,21.057 3.667,20.778 3.884,20.576C4.101,20.374 4.983,20.141 4.952,20.033C4.921,19.924 5.339,19.474 5.602,19.242C5.866,19.009 6.763,18.512 6.887,18.419C7.011,18.326 7.212,17.876 7.29,17.752C7.367,17.628 7.863,17.287 8.265,16.976C8.668,16.666 10.262,16.247 10.51,16.138C10.757,16.03 11.299,15.363 11.563,15.192C11.826,15.021 12.445,14.494 12.491,14.602C12.538,14.711 12.785,14.882 12.832,14.525C12.878,14.168 14.21,13.408 14.783,12.942L15.587,13.284C15.587,13.284 15.835,13.206 15.913,13.113C16.16,12.865 16.393,12.601 16.609,12.322C16.888,11.996 17.043,12.198 17.368,12.322C17.77,12.477 18.266,12.415 17.693,11.903C17.677,11.887 18.033,11.53 18.281,11.406C18.405,11.344 18.777,11.561 18.838,11.515L19.767,10.677C21.145,10.289 22.368,9.824 22.476,9.653L22.631,9.513L22.709,9.451C22.894,9.482 23.343,9.622 23.715,9.777L23.854,9.436L23.932,9.25C23.699,8.908 23.715,8.644 23.994,8.66C24.272,8.675 25.17,8.567 25.449,8.505C25.727,8.443 26.625,7.729 26.966,7.248L27.43,7.015L27.678,6.891C28.251,6.907 29.458,6.767 30.372,6.565L30.619,5.743C30.619,5.743 30.898,5.743 31.037,5.743C31.27,5.759 31.595,5.883 31.734,5.79L31.997,5.634C31.951,5.324 32.229,5.138 32.632,5.215L32.957,5.153C33.328,5.076 33.654,4.874 33.963,4.688L34.288,4.486C34.582,4.207 34.954,4.021 35.109,4.052C35.264,4.083 35.79,3.85 36.053,3.602L36.347,3.54L36.626,3.478C36.997,3.586 37.493,3.664 37.725,3.633L37.88,3.54L38.158,3.369C38.422,3.136 38.7,2.857 38.778,2.764C38.855,2.671 39.258,2.593 39.521,2.764L39.707,2.826L40.326,3.043C40.837,2.733 41.843,2.376 42.555,2.267L43.066,1.988L43.376,1.818C43.747,1.554 44.227,1.445 44.444,1.585C44.66,1.724 45.249,1.119 45.558,1.088C45.868,1.057 46.843,0.98 47.091,0.794C47.339,0.607 48.144,1.119 48.345,1.135C48.546,1.15 49.459,0.794 50.001,0.592L50.636,0.592C51.054,0.607 51.565,0.592 51.952,0.638C52.354,0.685 52.354,0.638 52.385,0.406L52.385,0.313C52.478,0.204 52.741,0.235 52.989,0.359C53.237,0.483 54.026,0.095 54.228,0.08C54.429,0.064 56.07,0.049 57.417,0.002C58.763,-0.044 62.355,0.654 62.556,0.592C62.757,0.53 63.408,0.685 63.686,0.856L64.073,0.654C64.29,0.545 64.646,0.623 64.94,0.592C65.498,0.545 66.086,0.887 66.643,0.468L66.705,0.421C67.262,0.778 67.742,0.918 67.789,0.716C67.835,0.514 68.95,0.483 69.368,0.561C69.786,0.638 70.978,1.414 71.303,1.662C71.628,1.911 72.851,2.143 72.944,2.143C73.037,2.143 73.563,2.454 74.089,2.78C74.616,3.105 75.56,4.347 75.436,4.517C75.312,4.688 75.947,5.231 76.086,5.402C76.226,5.572 76.721,6.162 76.891,6.317C77.062,6.472 77.34,7.248 77.402,7.605C77.464,7.962 77.712,9.017 77.805,8.862C77.898,8.706 78.114,8.644 78.176,9.001C78.238,9.358 78.61,10.568 78.548,10.972C78.486,11.375 79.028,12.71 79.291,13.346C79.554,13.982 80.344,15.735 80.638,15.782C80.932,15.828 82,17.1 82.356,17.194C82.712,17.287 82.325,18.093 82.542,18.233C82.759,18.373 83.177,18.807 83.084,18.962C82.991,19.117 83.068,19.567 83.146,19.738C83.223,19.909 83.688,21.678 84.013,21.957L83.13,21.957C83.068,22.065 82.991,22.36 82.96,22.593C82.929,22.826 83.006,23.881 83.099,24.408L82.573,24.874C82.217,25.184 82.124,25.774 82.124,26.239L82.124,26.611C81.814,26.751 81.334,27.155 81.056,27.527L80.901,27.899L80.762,28.241C80.591,28.629 80.328,29.11 80.158,29.296C79.988,29.482 79.554,30.211 79.492,30.459C79.43,30.708 79.121,31.313 79.183,31.67C79.245,32.026 77.991,32.445 77.867,32.709C77.743,32.973 77.062,34.028 76.83,34.478C76.597,34.928 75.514,36.681 75.096,37.426L74.678,38.078C74.26,38.729 73.749,39.35 73.331,40.017L73.222,40.188C73.269,40.467 73.888,40.591 74.569,40.467C75.25,40.343 77.139,40.498 77.418,40.467L77.526,40.203L77.712,39.769C78.037,39.97 78.424,40.048 78.563,39.955C78.703,39.862 79.632,39.66 80.173,39.583C80.715,39.505 81.907,39.008 82,39.334C82.093,39.66 83.254,39.133 83.827,38.993C84.4,38.853 85.886,37.984 86.195,37.922C86.505,37.86 87.434,37.426 87.713,37.426C87.991,37.426 88.781,37.162 88.951,37.053C89.121,36.945 89.771,37.178 89.88,37.147C89.988,37.116 90.391,36.898 90.592,36.821C90.793,36.743 91.583,36.681 91.846,36.697C92.109,36.712 93.626,35.936 94.725,35.409L95.964,35.285L96.753,35.207C97.605,35.052 98.518,34.85 98.766,34.757L98.983,34.649L99.524,34.369C100.19,34.307 100.809,34.168 100.887,34.043C100.964,33.919 101.32,33.625 101.49,33.625C101.661,33.625 102.264,33.562 102.45,33.547C102.636,33.531 103.364,33.004 103.751,32.554L104.385,33.144C104.385,33.144 104.741,33.066 104.803,32.973L105.454,32.042L105.639,31.887Z" fill="#1B7FBD"/>
</svg>
