<svg width="10" height="16" viewBox="0 0 10 16" fill="none" xmlns="http://www.w3.org/2000/svg" xmlns:xlink="http://www.w3.org/1999/xlink">
<path d="M7.687,14.436C8.515,14.436 9.187,13.765 9.187,12.936C9.187,12.108 8.515,11.436 7.687,11.436L7.687,14.436ZM7.687,3.916C8.515,3.916 9.187,3.245 9.187,2.416C9.187,1.588 8.515,0.916 7.687,0.916L7.687,3.916ZM7.687,11.436C5.614,11.436 3.927,9.749 3.927,7.676L0.927,7.676C0.927,11.406 3.957,14.436 7.687,14.436L7.687,11.436ZM3.927,7.676C3.927,5.603 5.614,3.916 7.687,3.916L7.687,0.916C3.957,0.916 0.927,3.947 0.927,7.676L3.927,7.676Z" fill="#1A7FBD"/>
</svg>
