<svg width="28" height="16" viewBox="0 0 28 16" fill="none" xmlns="http://www.w3.org/2000/svg" xmlns:xlink="http://www.w3.org/1999/xlink">
<path d="M23.632,13.814C23.632,14.642 24.303,15.314 25.132,15.314C25.96,15.314 26.632,14.642 26.632,13.814L23.632,13.814ZM-0.641,13.814C-0.641,14.642 0.031,15.314 0.859,15.314C1.688,15.314 2.359,14.642 2.359,13.814L-0.641,13.814ZM26.632,13.814L26.632,10.179L23.632,10.179L23.632,13.814L26.632,13.814ZM26.632,10.179C26.632,4.957 22.397,0.723 17.175,0.723L17.175,3.723C20.74,3.723 23.632,6.614 23.632,10.179L26.632,10.179ZM17.175,0.723L8.816,0.723L8.816,3.723L17.175,3.723L17.175,0.723ZM8.816,0.723C3.594,0.723 -0.641,4.957 -0.641,10.179L2.359,10.179C2.359,6.614 5.251,3.723 8.816,3.723L8.816,0.723ZM-0.641,10.179L-0.641,13.814L2.359,13.814L2.359,10.179L-0.641,10.179Z" fill="#1A7FBD"/>
</svg>
