<svg width="454" height="68" viewBox="0 0 454 68" fill="none" xmlns="http://www.w3.org/2000/svg" xmlns:xlink="http://www.w3.org/1999/xlink">
<g style="mix-blend-mode:screen">
<path d="M116.295,35.535C117.467,35.637 118.113,36.131 117.722,36.624L118.623,36.982L118.86,37.084C119.149,37.135 119.455,36.982 119.523,36.743L119.438,36.573L119.336,36.369C119.421,36.216 119.659,35.978 119.863,35.842L120.05,35.705L120.899,35.246L121.256,34.787C121.494,35.076 121.766,35.178 121.851,35.025C121.936,34.872 122.31,34.599 122.649,34.412C122.989,34.225 124.043,34.497 124.128,34.378C124.212,34.259 124.858,34.293 124.943,34.072L125.249,33.97L125.317,33.97C125.317,33.97 126.285,33.562 127.305,33.187L128.375,33.357L128.477,33.357C128.596,33.391 128.817,33.272 128.97,33.119C129.123,32.966 129.836,32.66 130.091,32.711C130.346,32.762 131.4,32.302 131.892,32.166L132.351,32.098L132.504,32.098C132.691,32.183 133.048,32.115 133.286,31.945C133.523,31.775 134.373,31.214 134.645,31.145C134.917,31.077 136.157,30.703 136.82,30.516L137.499,30.465L138.026,30.431C138.57,30.125 139.283,29.665 139.589,29.393C139.895,29.121 141.237,29.614 141.594,29.546L141.832,29.376C142.07,29.189 142.155,28.882 142.376,28.678L142.427,28.627C142.732,28.763 143.446,28.695 144.041,28.491C144.635,28.287 146.165,27.674 146.368,27.845C146.572,28.015 147.66,27.504 148.101,27.334L148.356,27.079L149.019,26.432C149.699,26.773 150.31,26.943 150.378,26.824L150.378,26.705L150.48,26.381C150.837,26.347 151.313,26.211 151.534,26.058C151.754,25.905 152.638,25.514 152.961,25.241C153.284,24.969 154.337,25.531 154.422,25.462C154.507,25.394 155.204,25.071 155.764,24.833C156.325,24.595 157.803,23.914 157.837,23.88C157.871,23.846 158.449,23.778 159.094,23.727C159.74,23.676 161.405,23.08 161.541,23.148C161.677,23.217 162.391,22.961 163.036,22.672C163.682,22.383 165.619,22.23 165.704,22.213C165.789,22.196 166.01,22.025 165.823,21.957C165.636,21.889 165.602,21.481 166.078,21.158C166.553,20.834 168.134,21.362 168.218,21.311C168.303,21.26 168.83,21.039 169.187,20.885C169.544,20.732 170.767,20.596 170.937,20.426L171.107,20.29C171.243,20.171 171.43,20.018 171.583,20.018L172.024,20.018C172.517,20.137 173.18,19.933 173.52,19.592L173.876,19.473L174.369,19.303C175.015,19.337 175.949,19.456 176.459,19.558C176.969,19.66 178.583,18.742 179.211,18.418C179.84,18.095 182.168,18.435 182.763,18.554L183.272,18.163C183.527,17.976 183.867,17.823 184.207,17.772L184.717,17.687C185.226,17.891 186.008,17.874 186.433,17.636L186.891,17.482C187.044,17.431 187.35,17.755 187.571,17.738L188.285,17.704C189.049,17.55 189.933,17.363 190.238,17.312C190.544,17.261 191.479,17.602 191.87,17.482C192.26,17.363 193.688,17.687 194.078,17.704L194.435,17.67L194.605,17.67C194.775,17.567 195.353,17.533 195.913,17.55C196.474,17.567 198.564,18.231 199.583,18.35C200.604,18.469 204.324,18.571 205.582,18.554L206.396,19.388C206.754,19.745 207.11,19.779 207.536,19.439L207.586,19.405C207.91,19.575 208.282,19.762 208.436,19.813C208.588,19.865 209.014,19.813 209.286,19.779C209.558,19.745 210.134,20.205 210.406,20.409C210.678,20.613 211.782,21.464 212.326,21.77C212.87,22.077 214.246,23.863 214.774,24.748L215.554,25.394L215.606,25.445C215.486,25.633 215.656,26.211 215.962,26.739C216.268,27.266 216.982,28.78 217.034,28.882C217.084,28.985 217.27,29.733 217.424,30.295L217.61,30.788C217.73,31.128 218.596,31.128 218.222,31.724L217.848,32.319C218.478,32.49 219.106,32.779 219.242,32.966C219.378,33.153 219.956,34.038 220.194,34.514L220.584,34.651L221.264,34.889C222.096,35.008 223.2,35.127 223.728,35.161C224.254,35.195 225.988,35.144 226.428,35.229L226.854,35.297L227.21,35.348C227.602,35.365 228.264,35.28 228.688,35.144C229.114,35.008 231.186,35.076 231.492,34.821L231.95,35.28C232.256,35.586 232.274,35.076 232.274,34.923C232.274,34.344 232.444,34.072 233.192,34.463L233.31,34.531C233.514,34.514 233.734,34.225 233.836,33.885L234.364,34.242L234.5,34.344C234.976,34.157 235.486,34.089 235.604,34.191C235.722,34.293 236.198,34.582 236.318,34.548L236.42,34.514C237.404,34.191 238.408,33.885 239.376,33.562L239.97,33.357C240.6,33.102 241.414,32.745 241.788,32.541L242.316,32.762L242.69,32.915C243.046,32.524 243.488,32.234 243.674,32.251L243.828,32.251L244.066,32.302C245.084,32.132 245.986,31.945 246.088,31.877C246.19,31.809 246.682,31.911 246.988,32.2C247.294,32.49 248.178,31.605 248.5,31.605C248.822,31.605 249.622,31.094 249.842,31.111C250.064,31.128 250.776,30.907 250.912,30.652C251.048,30.397 251.848,30.805 251.916,30.703C251.984,30.601 252.73,30.176 253.292,30.193L253.886,30.193L254.174,30.159C254.48,30.091 255.178,29.699 255.72,29.291L256.486,29.427L257.064,29.529C257.692,29.444 258.44,29.291 258.728,29.189C259.018,29.087 259.884,28.627 260.24,28.559L260.632,28.644C261.532,28.848 262.194,28.576 263.554,27.742L263.656,27.674C263.86,27.725 264.692,27.674 265.508,27.572L265.984,27.266L266.12,27.181C266.374,27.181 266.544,27.334 266.494,27.47L266.46,27.606L266.392,27.93C266.494,28.338 266.816,28.304 267.088,27.845L267.478,27.555L267.87,27.249C268.464,27.045 268.804,27.045 268.634,27.249C268.464,27.453 268.974,27.947 269.96,27.708C270.944,27.47 273.34,27.249 272.984,27.13C272.626,27.011 271.438,27.028 271.148,27.232L270.842,27.351L270.622,27.436C270.316,27.419 270.062,27.283 270.078,27.164C270.096,27.045 270.554,26.602 270.962,26.398C271.37,26.194 272.864,26.211 272.966,26.16C273.068,26.109 273.392,25.854 273.51,26.007C273.63,26.16 274.682,26.194 275.668,25.871L276.28,25.531C276.738,25.275 276.942,25.275 277.436,25.514C278.08,25.82 278.846,25.837 279.458,25.258L279.66,25.071C280.068,24.986 280.714,24.952 281.072,24.969C281.428,24.986 282.754,24.782 283.28,25.054L283.824,24.68L284.282,24.374L285.488,24.169C285.488,24.169 286.152,24.169 286.798,24.169C287.442,24.169 289.278,24.067 289.43,23.965C289.584,23.863 290.468,23.812 290.994,24.152C291.52,24.493 293.508,23.812 293.848,23.778L294.138,23.829C294.46,23.897 294.85,24.186 295.054,24.101C295.31,23.999 295.36,23.591 295.582,23.387L295.752,23.234C296.058,23.165 296.482,23.182 296.668,23.268C296.856,23.353 297.416,23.302 297.552,23.182C297.688,23.063 298.266,22.876 298.436,22.961L298.606,22.961C299.116,23.012 299.76,23.165 300.118,22.961C300.696,22.672 301.138,22.468 301.714,22.876L301.8,22.927C301.936,22.927 302.242,22.774 302.496,22.553C302.752,22.332 304.196,22.638 304.604,22.655C305.012,22.672 306.082,22.434 306.132,22.128C306.184,21.821 307.338,22.179 307.678,22.383C308.018,22.587 309.734,22.553 309.99,22.689C310.244,22.825 310.872,22.366 311.094,22.451C311.314,22.536 312.062,22.502 312.318,22.281C312.572,22.059 313.608,21.685 314.186,21.872L314.508,22.077L315.528,22.757C315.172,22.128 315.29,21.787 315.784,22.025C316.276,22.264 317.84,22.451 317.992,22.553C318.144,22.655 318.672,22.893 318.774,22.757C318.876,22.621 319.488,21.787 319.844,21.26L320.728,21.855C321.238,22.196 322.206,21.753 322.784,22.315L322.886,22.4C323.192,22.349 323.734,22.162 324.092,21.974C324.448,21.787 325.57,21.821 326.216,21.889L326.794,21.94L327.134,21.974C327.524,21.872 328.204,21.753 328.628,21.685C329.054,21.617 331.142,21.855 331.482,21.804C331.822,21.753 332.808,21.685 332.858,21.804C332.91,21.923 333.386,22.298 333.742,22.281C334.1,22.264 334.388,21.413 334.49,21.396C334.592,21.379 335.56,21.583 336.494,21.77L337.31,21.583L337.532,21.532C337.752,21.464 338.432,21.515 339.044,21.634C339.656,21.753 341.592,21.719 342.238,22.042L342.832,21.566C343.24,21.243 343.444,21.022 343.546,21.736C343.598,22.077 344.09,22.008 344.43,21.77L344.752,21.566C345.228,21.566 345.942,21.43 346.35,21.311L346.758,21.243L346.86,21.243C347.03,21.396 347.302,21.651 347.488,21.787C347.674,21.923 348.626,21.923 349.204,21.923L349.29,21.855L349.85,21.413C350.274,21.702 350.852,21.872 351.124,21.804L351.378,21.702L351.77,21.566C352.772,21.481 354.012,21.328 354.522,21.192C355.032,21.056 356.782,21.362 357.342,21.498L357.802,21.209L358.244,20.937C358.684,21.073 359.62,21.141 360.316,21.107C361.012,21.073 362.848,21.243 363.102,21.073L363.324,20.971L363.392,20.937C363.392,20.937 363.578,20.919 363.63,21.039C363.68,21.158 364.156,21.345 364.496,21.005C364.836,20.664 366.688,21.073 367.214,20.988C367.74,20.902 369.016,21.549 369.05,21.532C369.084,21.515 369.542,21.328 370.018,21.175C370.494,21.022 373.432,21.141 373.858,21.175L374.214,21.073L374.334,21.039C374.402,20.681 374.588,20.528 374.742,20.715C374.894,20.902 375.574,21.124 375.828,21.141C376.084,21.158 377.052,20.834 377.612,20.63C378.174,20.426 379.958,20.681 380.23,20.766C380.5,20.851 381.742,20.715 382.234,20.834L382.676,20.834L382.88,20.8C383.084,20.443 383.474,20.307 383.746,20.494C384.018,20.681 384.8,20.664 385.02,20.494C385.242,20.324 386.362,20.46 386.906,20.12L387.366,20.783C387.366,20.783 387.96,20.664 388.504,20.579C389.048,20.494 390.322,20.324 390.628,20.256C390.934,20.188 391.952,20.29 392.276,20.511C392.598,20.732 393.754,20.205 394.162,20.324C394.57,20.443 396.03,20.137 396.32,20.137C396.608,20.137 397.56,20.409 397.9,20.511L398.256,20.29C398.426,20.171 398.784,20.154 399.02,20.222L399.514,20.341C400.04,20.528 400.906,20.647 401.468,20.579L401.96,20.477L402.69,20.324C403.472,20.409 404.814,20.358 405.648,20.222L406.242,20.817L407.432,20.358L407.516,20.29C407.618,20.222 408.45,20.222 409.402,20.29C410.354,20.358 412.818,20.937 413.004,20.971C413.192,21.005 414.176,20.715 414.738,20.494C415.298,20.273 416.878,20.817 416.946,20.834C417.014,20.851 417.812,20.937 418.544,21.005C419.274,21.073 421.16,21.872 421.194,21.77C421.228,21.668 421.278,21.277 421.346,21.107C421.414,20.937 422.264,21.158 422.724,21.107C423.182,21.056 424.406,21.158 424.286,21.566C424.168,21.974 426.122,22.145 426.07,21.991C426.02,21.838 426.07,21.328 426.308,21.26C426.546,21.192 427.242,21.362 427.634,21.498C428.024,21.634 429.452,21.447 429.758,21.515C430.062,21.583 431.15,21.838 431.44,21.906C431.728,21.974 432.612,21.787 432.884,21.617C433.156,21.447 434.038,21.957 434.26,21.957C434.48,21.957 435.246,21.855 435.534,21.889C435.822,21.923 436.724,22.247 437.08,22.332L437.436,22.145L437.556,22.077C437.912,22.315 437.81,22.757 437.336,23.046L438.388,23.08C438.898,23.097 439.322,23.08 439.204,22.519L439.136,22.145C439.51,22.025 440.274,22.059 440.836,22.213L441.022,22.587C441.208,22.961 440.836,23.097 440.376,23.097L440.326,23.097C440.274,23.438 440.496,23.727 440.852,23.761L440.988,23.642C441.328,23.37 441.498,22.927 441.872,22.706L442.228,22.502C442.824,22.451 443.316,22.587 443.332,22.825C443.35,23.063 443.792,23.863 444.268,24.101C444.744,24.339 446.17,23.812 446.222,23.812C446.272,23.812 446.85,23.931 447.444,24.084C448.04,24.237 449.552,24.033 449.364,24.152C449.178,24.271 448.888,24.969 448.854,25.377L448.854,26.177C448.854,26.654 449.126,27.147 449.45,27.266C449.772,27.385 450.604,28.032 450.588,28.423C450.57,28.814 449.33,29.223 449.33,28.951C449.33,28.678 449.178,27.845 448.99,28.015C448.804,28.185 448.448,28.797 448.464,29.138C448.48,29.478 449.466,30.125 449.892,29.988C450.316,29.852 451.522,29.699 451.352,29.988C451.182,30.278 451.302,30.89 451.386,31.111C451.472,31.333 451.744,32.115 451.862,32.371L452.032,32.371C452.592,32.473 452.626,32.745 452.422,33.034L452.218,33.306C451.624,33.051 451.114,32.779 451.08,32.711C451.046,32.643 450.792,32.388 450.74,32.643C450.69,32.898 450.35,33.562 450.13,33.255C449.908,32.949 449.79,32.473 449.756,32.302C449.722,32.132 449.296,31.758 449.126,31.945C448.956,32.132 448.65,32.677 448.38,32.796C448.108,32.915 447.122,33.579 446.358,33.681L445.61,33.562L444.878,33.442C444.03,33.477 443.23,33.442 443.112,33.323C442.992,33.204 442.45,32.983 442.228,33.102C442.008,33.221 441.226,33.647 441.074,33.8C440.92,33.953 440.07,33.732 439.748,33.902C439.424,34.072 438.116,33.749 437.776,33.953C437.436,34.157 436.18,33.494 435.754,33.408C435.33,33.323 433.92,33.732 433.342,33.562L432.764,33.562L432.356,33.528C431.898,33.528 431.406,33.528 431.286,33.528C431.168,33.528 429.706,33.596 428.312,33.63C426.92,33.664 422.858,33.834 422.4,33.749C421.942,33.664 419.936,33.868 419.138,33.868L418.458,33.681L418.016,33.562C417.728,33.698 417.184,33.902 416.828,34.021L416.64,33.936L415.382,33.289C413.904,33.459 412.274,33.545 411.764,33.459C411.254,33.374 409.386,33.545 408.842,33.545C408.298,33.545 406.394,33.579 405.818,33.545C405.24,33.511 403.846,33.289 403.66,33.851L402.844,33.545L402.232,33.323C401.604,33.442 400.636,33.442 400.058,33.323L399.598,33.442L399.054,33.579C398.562,33.459 397.95,33.494 397.678,33.664C397.406,33.834 396.218,33.102 395.588,32.881C394.96,32.66 392.938,33.545 392.326,33.545C391.714,33.545 389.948,33.511 389.66,33.323C389.37,33.136 388.078,33.511 387.722,33.562C387.366,33.613 386.192,33.647 385.922,33.732C385.65,33.817 384.544,33.732 384.188,33.715C383.832,33.698 382.59,33.63 382.252,33.715C381.912,33.8 381.078,33.357 381.028,33.357C380.976,33.357 379.804,33.596 378.548,33.885C377.29,34.174 374.86,33.936 374.538,33.936C374.214,33.936 372.754,34.021 371.954,34.123C371.156,34.225 368.166,33.664 366.942,33.596C365.72,33.528 362.524,34.276 362.388,34.259C362.252,34.242 361.012,33.987 359.96,33.783L359.092,34.242C358.684,34.446 358.464,33.715 358.074,34.242L357.818,34.582C357.444,34.327 355.44,34.038 353.35,33.953L351.48,34.089L351.006,34.123C350.546,34.089 349.612,33.97 348.916,33.885L348.712,34.106C348.252,34.582 348.032,33.851 347.674,34.106C347.148,34.48 346.672,33.97 346.162,33.919L345.618,33.868C345.092,33.953 344.412,34.225 344.124,34.463C343.834,34.702 342.628,34.208 342.238,34.344C341.848,34.48 340.538,33.885 340.148,33.783C339.758,33.681 338.772,34.225 338.704,34.242C338.636,34.259 337.532,34.123 336.326,33.987L335.204,34.174L334.642,34.259C334.048,34.259 333.25,34.344 332.858,34.48C332.468,34.617 331.16,34.038 330.48,34.089C329.8,34.14 327.336,34.242 326.504,34.106L325.824,34.634L325.688,34.736C325.162,34.531 323.802,34.361 322.648,34.327C321.492,34.293 318.332,34.821 318.026,34.685C317.72,34.548 316.616,34.957 316.31,35.042C316.004,35.127 315.222,34.804 315.172,34.838C315.12,34.872 314.542,35.059 314.034,35.246L313.558,35.297L313.2,35.331C312.792,35.212 312.096,35.11 311.672,35.11L311.382,35.246L310.804,35.518C310.244,35.348 309.53,35.246 309.224,35.263C308.92,35.28 307.9,35.467 307.644,35.705C307.39,35.944 306.268,35.45 305.962,35.416C305.656,35.382 304.688,35.842 304.264,35.91C303.838,35.978 302.276,35.91 301.85,35.961C301.426,36.012 299.456,36.25 298.436,36.352C297.416,36.454 294.256,36.573 293.662,36.556C293.066,36.539 291.402,37.033 290.994,37.033C290.586,37.033 289.074,37.305 288.564,37.356C288.054,37.407 286.304,37.679 285.812,37.662C285.318,37.645 283.654,38.224 283.06,38.36C282.464,38.496 280.256,38.513 279.576,38.547C278.896,38.581 277.01,39.125 276.772,39.159C276.534,39.194 275.6,39.228 275.21,39.228C274.818,39.228 273.766,39.653 273.426,39.687C273.086,39.721 271.54,40.01 270.74,40.248C269.942,40.487 266.986,40.997 266.136,41.099C265.286,41.201 263.078,42.035 262.79,41.848C262.5,41.661 261.718,42.239 261.498,42.222C261.276,42.205 260.478,42.477 260.172,42.579C259.866,42.682 258.966,43.073 258.694,43.124C258.422,43.175 257.234,43.549 256.57,43.719C255.908,43.89 253.614,44.587 252.952,44.757C252.288,44.928 249.452,45.761 248.212,46.306L246.954,46.493L246.428,46.578C245.816,46.714 245.084,46.935 244.796,47.071C244.508,47.208 243.522,47.361 243.216,47.446C242.91,47.531 241.772,47.735 241.312,47.667C240.854,47.599 238.424,48.603 236.692,49.062L235.026,49.13C234.55,49.147 234.058,49.096 233.6,49.198C233.056,49.3 232.562,49.624 232.018,49.675L231.646,49.709C231.204,49.505 230.608,49.505 230.32,49.709C230.032,49.913 228.756,49.505 228.45,49.402C228.146,49.3 227.142,49.011 226.938,48.96C226.734,48.909 226.158,48.994 225.954,48.875C225.75,48.756 224.832,49.045 224.594,49.13C224.356,49.215 222.878,48.977 221.74,48.671L220.72,48.331L220.602,48.297C220.568,48.024 220.38,47.939 220.194,48.092C220.006,48.245 218.8,48.467 218.052,48.177C217.304,47.888 215.47,46.051 215.216,45.387L214.144,45.166L213.618,45.064C213.262,44.264 212.768,43.379 212.548,43.073C212.326,42.767 211.46,41.644 211.018,41.286C210.576,40.929 210.492,39.517 210.406,39.449C210.322,39.381 209.964,39.194 209.778,39.125C209.592,39.057 209.014,38.292 208.504,37.594L207.518,37.271C206.668,36.982 206.024,36.318 205.224,35.91C205.004,35.791 204.51,36.029 204.154,36.08C203.56,36.148 202.964,36.165 202.37,36.267L201.758,36.386C201.112,36.607 200.348,36.845 200.059,36.931C199.77,37.016 198.87,36.897 198.598,36.777C198.326,36.658 197.646,37.254 197.171,37.186L196.729,37.186C196.168,37.135 195.557,37.033 195.03,37.152L194.061,37.373C193.008,37.628 191.802,37.832 191.411,37.849C191.02,37.866 190.527,38.768 190.221,38.853C189.916,38.938 188.76,39.177 188.37,39.194C187.979,39.211 186.653,39.534 186.076,39.772C185.498,40.01 183.714,40.044 183.629,40.078C183.544,40.112 183.221,40.351 182.932,40.538C182.644,40.725 181.403,41.082 181.08,41.269C180.758,41.457 179.228,41.627 178.685,41.797C178.141,41.967 176.476,42.579 176.119,42.579C175.762,42.579 174.709,42.869 174.029,42.545L174.216,43.549C174.216,43.549 174.012,43.737 173.893,43.737L173.214,43.788C172.67,44.145 171.855,44.553 171.396,44.672C170.937,44.791 169.272,45.166 168.762,45.319C168.252,45.472 166.689,45.88 166.434,45.931C166.18,45.982 165.568,46.391 165.177,46.102C164.786,45.812 163.954,46.986 163.75,47.122L163.597,47.122C162.713,46.969 162.102,47.497 161.354,47.667L160.963,47.752C160.641,47.939 160.267,48.092 160.114,48.075C159.961,48.058 159.57,48.194 159.57,48.433C159.57,48.671 158.755,48.365 158.602,48.433C158.449,48.501 157.48,48.518 156.835,48.416L156.665,49.215L156.58,49.607C155.798,49.675 154.643,49.811 154.014,49.896C153.386,49.981 151.856,50.747 151.687,50.696C151.517,50.645 149.885,50.628 148.458,50.781L148.016,52.108L147.83,52.652C147.524,52.312 146.912,52.142 146.47,52.278C146.029,52.414 144.499,52.993 144.041,53.35L143.599,52.72C143.599,52.72 143.174,52.771 143.021,52.874L142.223,53.418C141.305,53.622 140.269,53.945 139.929,54.133C139.589,54.32 138.145,54.184 137.55,54.609L136.769,54.609C136.31,54.592 136.905,55.375 136.123,55.188L135.817,55.119C135.46,55.119 135.019,55.239 134.815,55.392C134.611,55.545 133.931,55.205 133.642,55.341C133.353,55.477 132.402,56.123 132.181,56.566L131.4,56.294L131.162,56.208C130.686,56.549 129.972,56.838 129.582,56.855L129.259,56.821L128.834,56.787C128.392,56.821 126.863,57.144 125.436,57.468L124.263,58.029C124.043,58.131 123.958,58.42 123.601,58.131L123.176,57.808C122.921,58.131 122.462,58.539 122.14,58.693L121.137,58.693C120.525,58.999 119.965,59.288 119.897,59.339C119.829,59.39 119.013,59.56 118.181,59.714L117.45,60.088L116.788,60.428C115.887,60.717 115.054,60.837 114.953,60.7C114.851,60.564 114.12,60.717 113.865,60.564C113.61,60.411 113.287,61.177 113.016,61.228L112.591,61.228C112.421,61.126 111.928,61.279 111.503,61.534L111.062,61.738C110.569,61.977 110.127,62.028 109.6,62.079L109.329,62.079C109.057,62.249 108.462,62.657 108.003,63.031C107.545,63.406 105.693,62.844 105.353,62.878C105.013,62.912 104.095,63.406 103.705,63.474C103.314,63.542 102.023,63.848 101.666,63.797C101.309,63.746 100.714,64.58 100.306,64.631C99.899,64.682 98.726,64.427 98.488,64.291C98.251,64.154 97.571,64.92 97.214,65.073C96.857,65.226 96.416,65.107 96.246,64.954C96.076,64.801 95.124,65.141 94.785,65.311C94.445,65.482 93.459,65.703 93.306,65.482C93.153,65.26 92.134,65.703 91.862,65.839L91.811,65.805C91.165,65.226 90.843,65.771 90.452,66.043L90.384,66.094C90.248,66.077 89.959,66.179 89.721,66.332C89.483,66.485 88.821,66.06 88.753,65.941C88.685,65.822 88.243,65.669 87.954,65.975C87.665,66.281 86.493,65.992 86.561,65.907C86.629,65.822 86.408,65.635 85.966,65.72C85.525,65.805 84.148,65.465 83.859,65.397C83.571,65.328 82.449,65.397 82.109,65.397C81.77,65.397 79.646,65.397 78.134,65.345C76.621,65.294 73.002,64.478 72.832,64.188C72.663,63.899 70.93,63.678 70.25,63.44L69.927,63.031L69.519,62.521C68.908,62.164 68.347,61.806 68.279,61.721C68.211,61.636 67.633,61.364 67.26,61.211C66.886,61.058 66.019,60.122 65.73,59.901C65.441,59.679 65.441,58.625 65.204,58.318C64.966,58.012 64.592,56.991 64.694,56.753C64.796,56.515 63.98,56.294 63.963,56.191L63.997,56.106C64.286,55.545 63.912,55.171 63.369,54.949L63.063,54.83C63.114,54.711 63.437,54.439 63.776,54.235L63.827,53.86L63.861,53.605C64.15,53.146 64.099,52.925 63.742,53.129C63.386,53.333 62.553,53.673 62.485,53.622C62.417,53.571 62.774,52.771 62.893,52.448C63.012,52.125 62.315,51.274 62.196,51.138C62.077,51.002 61.992,50.457 61.517,50.27L61.517,50.168L61.67,49.522C61.33,48.926 60.922,47.939 60.752,47.31C60.582,46.68 59.41,44.911 59.291,44.553L59.138,44.23L58.917,43.719C58.56,43.192 57.983,41.712 57.626,40.419L57.626,40.299C57.66,39.84 57.813,39.33 57.66,38.921L57.099,37.407C57.371,35.757 57.49,34.191 57.371,33.953L57.439,33.749L57.524,33.477C57.677,33.187 57.915,32.319 58.051,31.537L59.512,30.176L59.563,30.125C59.529,30.005 59.58,29.75 59.699,29.529C59.818,29.308 59.512,28.746 59.767,28.61C60.021,28.474 60.582,27.232 61.126,26.517L61.432,25.837C61.636,25.377 61.738,24.901 62.23,24.612L62.995,24.169C62.927,23.455 63.063,22.825 63.335,22.774C63.606,22.723 64.269,22.519 64.048,22.451C63.827,22.383 63.42,22.111 63.59,22.059C63.759,22.008 64.167,21.838 64.15,21.787C64.133,21.736 63.827,21.515 63.573,21.362C63.318,21.209 62.043,21.515 61.534,21.685C61.024,21.855 59.189,22.502 58.492,22.655C57.796,22.808 56.182,23.71 56.012,23.642L55.842,23.557L54.211,24.016C53.837,24.186 53.48,24.391 53.089,24.544L52.834,24.646C52.529,24.748 52.189,25.054 52.087,25.326L51.628,25.377L51.356,25.411C51.067,25.531 50.235,25.803 49.487,26.007C48.74,26.211 46.616,27.334 46.106,27.487L45.647,27.623L45.257,27.742C44.832,27.896 43.88,28.321 43.133,28.695C42.385,29.07 39.802,30.21 39.055,30.482C38.307,30.754 36.132,31.656 35.895,31.911C35.657,32.166 34.535,32.558 34.162,32.694C33.788,32.83 32.479,33.238 32.038,33.357C31.596,33.477 30.39,33.851 30.407,33.953C30.424,34.055 29.676,34.668 28.691,35.076C27.705,35.484 24.103,36.948 22.812,37.458L21.86,38.275C21.3,38.751 20.841,39.347 20.161,39.755L19.516,40.146C18.819,40.589 17.765,41.354 17.171,41.848C16.576,42.341 14.231,43.192 13.96,43.379C13.688,43.566 12.736,43.924 12.328,43.805L11.989,43.737L11.275,43.617C10.493,43.515 9.559,43.566 9.202,43.737C8.845,43.907 7.911,43.413 7.843,43.481C7.775,43.549 7.18,43.6 6.637,43.6L6.772,43.056C6.823,42.886 6.959,42.75 7.027,42.579C7.214,42.086 7.622,41.627 6.501,41.371C6.025,41.269 5.277,40.81 5.396,40.112C5.464,39.704 5.158,39.687 4.751,39.568L4.428,39.483C4.224,39.074 3.374,38.156 2.576,37.424L3.102,36.437C3.018,36.352 2.372,35.893 1.675,35.399L1.607,34.531L1.539,33.834C0.996,33.085 0.486,32.115 0.418,31.673C0.35,31.231 0.588,29.869 0.792,29.58L0.367,29.291C0.367,29.291 0.316,29.002 0.401,28.951L0.656,28.78C0.979,28.644 1.064,28.355 0.877,28.117L1.217,27.862C1.403,27.725 1.505,27.453 1.539,27.232C1.573,27.028 1.369,26.756 1.471,26.585C1.624,26.313 1.964,26.126 2.202,25.888L2.712,25.377C3.272,24.833 3.578,24.169 3.391,23.914C3.204,23.659 4.377,23.353 4.615,23.131C4.853,22.91 5.821,22.655 5.787,22.536C5.753,22.417 6.212,21.923 6.501,21.668C6.789,21.413 7.775,20.868 7.911,20.766C8.047,20.664 8.268,20.171 8.353,20.035C8.438,19.899 8.981,19.524 9.423,19.184C9.865,18.844 11.615,18.384 11.887,18.265C12.159,18.146 12.753,17.414 13.042,17.227C13.331,17.04 14.011,16.462 14.062,16.581C14.112,16.7 14.384,16.887 14.435,16.496C14.486,16.104 15.947,15.27 16.576,14.76L17.46,15.134C17.46,15.134 17.732,15.049 17.816,14.947C18.088,14.675 18.343,14.386 18.581,14.079C18.887,13.722 19.057,13.943 19.414,14.079C19.855,14.25 20.399,14.182 19.77,13.62C19.753,13.603 20.144,13.212 20.416,13.076C20.552,13.007 20.96,13.246 21.028,13.195L22.047,12.276C23.559,11.85 24.902,11.34 25.021,11.153L25.19,11L25.275,10.932C25.479,10.966 25.972,11.119 26.38,11.289L26.533,10.915L26.618,10.71C26.363,10.336 26.38,10.047 26.686,10.064C26.991,10.081 27.977,9.962 28.283,9.894C28.589,9.826 29.574,9.043 29.948,8.516L30.458,8.26L30.729,8.124C31.358,8.141 32.683,7.988 33.686,7.767L33.958,6.865C33.958,6.865 34.263,6.865 34.416,6.865C34.671,6.882 35.028,7.018 35.181,6.916L35.47,6.746C35.419,6.406 35.725,6.202 36.166,6.287L36.523,6.219C36.931,6.133 37.288,5.912 37.628,5.708L37.984,5.487C38.307,5.181 38.715,4.976 38.885,5.01C39.055,5.045 39.633,4.789 39.921,4.517L40.244,4.449L40.55,4.381C40.958,4.5 41.502,4.585 41.756,4.551L41.926,4.449L42.232,4.262C42.521,4.007 42.827,3.7 42.912,3.598C42.997,3.496 43.438,3.411 43.727,3.598L43.931,3.666L44.611,3.905C45.172,3.564 46.276,3.173 47.058,3.054L47.618,2.747L47.958,2.56C48.366,2.271 48.893,2.152 49.13,2.305C49.368,2.458 50.014,1.795 50.354,1.761C50.694,1.727 51.764,1.642 52.036,1.437C52.308,1.233 53.191,1.795 53.412,1.812C53.633,1.829 54.635,1.437 55.23,1.216L55.927,1.216C56.385,1.233 56.946,1.216 57.371,1.267C57.813,1.318 57.813,1.267 57.847,1.012L57.847,0.91C57.949,0.791 58.237,0.825 58.509,0.961C58.781,1.097 59.648,0.672 59.869,0.655C60.089,0.638 61.89,0.621 63.369,0.57C64.847,0.519 68.789,1.284 69.01,1.216C69.23,1.148 69.944,1.318 70.25,1.505L70.675,1.284C70.913,1.165 71.303,1.25 71.626,1.216C72.238,1.165 72.883,1.539 73.495,1.08L73.563,1.029C74.175,1.42 74.701,1.573 74.752,1.352C74.803,1.131 76.027,1.097 76.485,1.182C76.944,1.267 78.253,2.118 78.609,2.39C78.966,2.662 80.308,2.918 80.41,2.918C80.512,2.918 81.09,3.258 81.668,3.615C82.245,3.973 83.282,5.334 83.146,5.521C83.01,5.708 83.707,6.304 83.859,6.491C84.012,6.678 84.556,7.325 84.743,7.495C84.93,7.665 85.236,8.516 85.304,8.907C85.372,9.298 85.643,10.455 85.745,10.285C85.847,10.115 86.085,10.047 86.153,10.438C86.221,10.83 86.629,12.157 86.561,12.599C86.493,13.042 87.088,14.505 87.377,15.202C87.665,15.9 88.532,17.823 88.855,17.874C89.178,17.925 90.35,19.32 90.741,19.422C91.132,19.524 90.707,20.409 90.945,20.562C91.182,20.715 91.641,21.192 91.539,21.362C91.437,21.532 91.522,22.025 91.607,22.213C91.692,22.4 92.202,24.339 92.559,24.646L91.59,24.646C91.522,24.765 91.437,25.088 91.403,25.343C91.369,25.599 91.454,26.756 91.556,27.334L90.979,27.845C90.588,28.185 90.486,28.831 90.486,29.342L90.486,29.75C90.146,29.903 89.619,30.346 89.313,30.754L89.144,31.162L88.991,31.537C88.804,31.962 88.515,32.49 88.328,32.694C88.141,32.898 87.665,33.698 87.597,33.97C87.529,34.242 87.19,34.906 87.258,35.297C87.326,35.688 85.949,36.148 85.813,36.437C85.677,36.726 84.93,37.883 84.675,38.377C84.42,38.87 83.231,40.793 82.772,41.61L82.313,42.324C81.855,43.039 81.294,43.719 80.835,44.451L80.716,44.638C80.767,44.945 81.447,45.081 82.194,44.945C82.942,44.808 85.015,44.979 85.321,44.945L85.44,44.655L85.643,44.179C86,44.4 86.425,44.485 86.578,44.383C86.731,44.281 87.75,44.06 88.345,43.975C88.94,43.89 90.248,43.345 90.35,43.702C90.452,44.06 91.726,43.481 92.355,43.328C92.983,43.175 94.615,42.222 94.954,42.154C95.294,42.086 96.314,41.61 96.62,41.61C96.925,41.61 97.792,41.32 97.979,41.201C98.166,41.082 98.879,41.337 98.998,41.303C99.117,41.269 99.559,41.031 99.78,40.946C100.001,40.861 100.867,40.793 101.156,40.81C101.445,40.827 103.11,39.976 104.316,39.398L105.676,39.262L106.542,39.177C107.477,39.006 108.479,38.785 108.751,38.683L108.989,38.564L109.583,38.258C110.314,38.19 110.994,38.037 111.079,37.9C111.164,37.764 111.554,37.441 111.741,37.441C111.928,37.441 112.591,37.373 112.795,37.356C112.999,37.339 113.797,36.76 114.222,36.267L114.919,36.914C114.919,36.914 115.309,36.828 115.377,36.726L116.091,35.705L116.295,35.535Z" fill="#1B7FBD"/>
</g>
</svg>
