<svg width="14" height="12" viewBox="0 0 14 12" fill="none" xmlns="http://www.w3.org/2000/svg" xmlns:xlink="http://www.w3.org/1999/xlink">
<path d="M8.459,3.344C9.668,4.553 9.668,6.515 8.459,7.724L10.58,9.845C12.961,7.464 12.961,3.603 10.58,1.223L8.459,3.344ZM8.459,7.724C7.25,8.933 5.288,8.933 4.079,7.724L1.958,9.845C4.339,12.226 8.2,12.226 10.58,9.845L8.459,7.724ZM4.079,7.724C2.87,6.515 2.87,4.553 4.079,3.344L1.958,1.223C-0.423,3.603 -0.423,7.464 1.958,9.845L4.079,7.724ZM4.079,3.344C5.288,2.135 7.25,2.135 8.459,3.344L10.58,1.223C8.2,-1.158 4.339,-1.158 1.958,1.223L4.079,3.344Z" fill="#1A7FBD"/>
</svg>
