<svg width="30" height="32" viewBox="0 0 30 32" fill="none" xmlns="http://www.w3.org/2000/svg" xmlns:xlink="http://www.w3.org/1999/xlink">
<path d="M15,12.06C14.294,12.06 13.603,12.281 13.016,12.696C12.429,13.11 11.971,13.699 11.701,14.388C11.431,15.076 11.36,15.834 11.498,16.565C11.636,17.296 11.977,17.968 12.476,18.495C12.976,19.022 13.612,19.381 14.305,19.526C14.998,19.671 15.716,19.597 16.369,19.311C17.021,19.026 17.579,18.543 17.971,17.923C18.364,17.303 18.573,16.575 18.573,15.829C18.573,14.829 18.196,13.871 17.526,13.164C16.856,12.457 15.947,12.06 15,12.06ZM23.351,9.163C23.169,8.676 22.895,8.235 22.544,7.865C22.194,7.495 21.776,7.205 21.315,7.014C19.908,6.428 16.56,6.559 15,6.559C13.44,6.559 10.095,6.423 8.685,7.014C8.224,7.205 7.805,7.495 7.455,7.865C7.105,8.235 6.83,8.676 6.648,9.163C6.094,10.646 6.218,14.183 6.218,15.828C6.218,17.473 6.094,21.006 6.651,22.495C6.833,22.981 7.107,23.423 7.458,23.793C7.808,24.162 8.226,24.452 8.687,24.644C10.094,25.23 13.442,25.098 15.003,25.098C16.564,25.098 19.907,25.235 21.317,24.644C21.778,24.452 22.197,24.162 22.547,23.793C22.897,23.423 23.172,22.981 23.354,22.495C23.913,21.011 23.784,17.474 23.784,15.829C23.784,14.184 23.913,10.652 23.354,9.163L23.351,9.163ZM15,21.624C13.914,21.624 12.852,21.284 11.949,20.647C11.046,20.01 10.343,19.105 9.927,18.047C9.511,16.988 9.403,15.823 9.614,14.699C9.826,13.575 10.349,12.542 11.117,11.732C11.885,10.921 12.864,10.369 13.929,10.146C14.994,9.922 16.098,10.037 17.101,10.476C18.105,10.914 18.962,11.657 19.566,12.61C20.169,13.563 20.491,14.683 20.491,15.829C20.492,16.59 20.351,17.344 20.075,18.048C19.799,18.751 19.395,19.39 18.885,19.929C18.375,20.467 17.769,20.894 17.102,21.184C16.436,21.475 15.721,21.625 15,21.624ZM20.717,11.144C20.464,11.144 20.216,11.065 20.005,10.916C19.794,10.768 19.63,10.557 19.533,10.31C19.436,10.062 19.41,9.79 19.46,9.528C19.509,9.266 19.631,9.025 19.81,8.835C19.989,8.646 20.218,8.517 20.466,8.465C20.715,8.413 20.973,8.439 21.207,8.542C21.441,8.644 21.642,8.817 21.782,9.04C21.923,9.262 21.998,9.524 21.998,9.791C21.999,9.969 21.967,10.145 21.903,10.31C21.839,10.474 21.745,10.623 21.626,10.749C21.507,10.875 21.366,10.975 21.211,11.043C21.055,11.112 20.888,11.147 20.72,11.147L20.717,11.144ZM26.786,0L3.214,0C2.362,0 1.544,0.357 0.941,0.993C0.339,1.63 0,2.492 0,3.392L0,28.608C0,29.508 0.339,30.37 0.941,31.007C1.544,31.643 2.362,32 3.214,32L26.786,32C27.638,32 28.456,31.643 29.059,31.007C29.661,30.37 30,29.508 30,28.608L30,3.392C30,2.492 29.661,1.63 29.059,0.993C28.456,0.357 27.638,0 26.786,0ZM25.639,20.493C25.553,22.304 25.161,23.909 23.908,25.228C22.655,26.546 21.136,26.968 19.422,27.054C17.653,27.16 12.351,27.16 10.582,27.054C8.866,26.963 7.351,26.549 6.096,25.228C4.841,23.906 4.446,22.301 4.365,20.493C4.265,18.626 4.265,13.03 4.365,11.165C4.451,9.354 4.838,7.749 6.096,6.431C7.353,5.112 8.873,4.695 10.582,4.609C12.351,4.504 17.653,4.504 19.422,4.609C21.138,4.7 22.658,5.114 23.908,6.436C25.158,7.757 25.558,9.362 25.639,11.174C25.739,13.034 25.739,18.625 25.639,20.493Z" fill="#FFFFFF"/>
</svg>
